<svg width="270" height="170" viewBox="0 0 270 170" fill="none" xmlns="http://www.w3.org/2000/svg">
    <g clip-path="url(#clip0_5344_86056)">
        <rect y="170" width="170" height="270" rx="10" transform="rotate(-90 0 170)" fill="white"/>
        <path d="M259.156 147.096C259.156 147.096 276.267 104.242 257.971 72.66C240.882 65.3182 223.419 66.5142 206.583 74.8968C206.583 74.8968 195.64 68.6846 189.801 70.4563C183.973 72.2281 165.666 156.796 207.329 148.735C215.912 150.938 216.966 151.426 223.375 152.234C238.84 154.161 247.017 151.769 258.728 147.096" fill="white"/>
        <path d="M216.988 155.534C216.988 155.534 228.172 149.964 234.867 132.18L240.135 134.638C240.135 134.638 237.984 149.311 222.629 159.332" fill="#00A7E1"/>
        <path d="M241.782 134.65C241.782 134.727 241.782 134.816 241.76 134.893C241.672 135.524 239.312 150.429 223.518 160.728C222.75 161.226 221.74 161.004 221.246 160.24C220.752 159.465 220.972 158.446 221.74 157.948C233.747 150.108 237.347 139.19 238.247 135.602L235.756 134.439C228.874 151.315 218.184 156.808 217.712 157.04C216.9 157.45 215.912 157.107 215.506 156.287C215.1 155.468 215.44 154.471 216.252 154.061C216.417 153.984 226.986 148.436 233.33 131.604C233.495 131.172 233.824 130.829 234.252 130.652C234.68 130.475 235.152 130.486 235.569 130.685L240.838 133.144C241.43 133.42 241.793 134.007 241.793 134.65L241.782 134.65Z" fill="#222222"/>
        <path d="M241.408 107.63C242.067 81.0429 257.74 72.6602 257.74 72.6602C260.319 73.0478 267.53 74.3877 272.019 75.9269C277.573 77.8205 279.878 79.3376 280.822 86.3471C281.7 92.9136 281.722 105.017 278.451 108.904L276.618 108.583C280.46 110.753 282.018 115.337 281.897 125.292C281.755 137.351 280.613 140.419 274.313 142.999C268.013 145.568 259.211 146.853 259.211 146.853C259.211 146.853 240.75 134.218 241.397 107.63" fill="white"/>
        <path d="M185.971 78.0971C196.013 62.3396 210.786 54.8096 222.871 53.0711C229.785 52.0745 238.335 53.8794 240.706 60.2467C241.683 62.86 245.107 71.4973 235.866 80.334" fill="white"/>
        <path d="M243.724 67.2563C243.724 72.4609 241.474 77.2335 236.985 81.53C236.327 82.1612 235.284 82.128 234.658 81.4636C234.033 80.7992 234.055 79.7472 234.724 79.116C243.022 71.1763 240.245 63.746 239.202 60.9445L239.158 60.8116C237.205 55.5627 229.599 53.7578 223.101 54.699C209.129 56.7255 195.761 65.7946 187.354 78.9831C186.86 79.7583 185.839 79.9798 185.082 79.4815C184.313 78.9832 184.094 77.9533 184.588 77.1892C193.5 63.2034 207.724 53.5695 222.629 51.4102C230.191 50.3139 239.554 52.429 242.232 59.6378L242.276 59.7596C243.241 62.3397 243.724 64.8312 243.724 67.2342L243.724 67.2563Z" fill="#222222"/>
        <path d="M257.576 72.7489C240.497 65.4071 223.419 66.5145 206.583 74.8971L206.583 98.0518L265.621 96.6344" fill="white"/>
        <path d="M259.617 72.6598C259.617 72.8812 259.573 73.1027 259.485 73.3131C259.134 74.1547 258.157 74.5533 257.323 74.1879C241.079 67.2116 224.243 67.9425 207.307 76.3805C206.495 76.7902 205.507 76.4469 205.101 75.6275C204.695 74.808 205.035 73.8114 205.847 73.4017C223.683 64.5208 241.441 63.7567 258.607 71.1316C259.233 71.3974 259.606 72.0175 259.606 72.6598L259.617 72.6598Z" fill="#222222"/>
        <path d="M260.363 147.096C260.363 147.76 259.968 148.38 259.321 148.635C248.082 153.12 239.499 155.91 223.167 153.873C217.921 153.22 216.099 152.743 211.237 151.459C210.029 151.138 208.624 150.772 206.923 150.329C206.045 150.108 205.507 149.2 205.738 148.314C205.957 147.428 206.857 146.886 207.735 147.118C209.448 147.561 210.852 147.926 212.071 148.248C216.911 149.521 218.546 149.953 223.573 150.573C239.169 152.522 247.028 149.964 258.113 145.546C258.958 145.202 259.913 145.623 260.254 146.476C260.33 146.675 260.374 146.886 260.374 147.085L260.363 147.096Z" fill="#222222"/>
        <path d="M208.855 131.206C216.263 133.111 232.716 136.023 239.301 140.84C246.227 145.912 245.162 160.307 238.379 164.792C232.782 168.535 225.395 168.446 219.271 166.73C207.329 163.386 196.463 157.494 188.923 147.717" fill="white"/>
        <path d="M245.656 151.99C245.656 152.156 245.656 152.322 245.656 152.499C245.524 158.435 243.077 163.673 239.29 166.186C234.011 169.719 226.559 170.505 218.832 168.334C205.211 164.514 194.707 157.925 187.617 148.734C187.057 148.015 187.189 146.963 187.902 146.409C188.616 145.844 189.659 145.977 190.207 146.697C196.848 155.312 206.769 161.513 219.699 165.134C222.915 166.031 231.091 167.67 237.457 163.407C240.322 161.513 242.232 157.195 242.341 152.411C242.44 147.937 240.937 144.095 238.324 142.179C233.33 138.525 221.641 135.856 213.904 134.095C211.785 133.608 209.952 133.198 208.438 132.811C207.56 132.589 207.022 131.681 207.252 130.795C207.472 129.91 208.372 129.367 209.25 129.599C210.721 129.976 212.532 130.386 214.628 130.873C223.101 132.811 234.724 135.457 240.256 139.51C243.648 141.991 245.645 146.642 245.645 152.001L245.656 151.99Z" fill="#222222"/>
        <path d="M282.951 94.6741C282.951 100.355 282.271 106.932 279.702 109.989C279.11 110.686 278.078 110.775 277.387 110.177C276.695 109.579 276.607 108.538 277.2 107.84C279.922 104.607 280.098 93.4228 279.198 86.5905C278.363 80.3672 276.64 79.2709 271.504 77.5213C267.179 76.0374 260.21 74.7197 257.51 74.321C256.61 74.1882 255.984 73.3355 256.127 72.4385C256.259 71.5305 257.093 70.9104 257.993 71.0433C260.791 71.4641 268.024 72.8372 272.557 74.3875C278.715 76.4914 281.448 78.5954 282.457 86.1586C282.699 87.9303 282.962 91.1417 282.962 94.6962L282.951 94.6741Z" fill="#222222"/>
        <path d="M283.555 124.285C283.555 124.617 283.555 124.96 283.555 125.303C283.412 137.528 282.26 141.526 274.95 144.527C268.529 147.151 259.826 148.436 259.463 148.491C258.563 148.624 257.729 147.993 257.598 147.085C257.466 146.177 258.091 145.335 258.991 145.202C259.079 145.191 267.673 143.918 273.71 141.448C278.802 139.367 280.109 137.495 280.262 125.27C280.394 113.754 278.188 110.708 274.335 109.369C269.517 107.696 261.56 107.586 261.483 107.586C260.572 107.586 259.88 106.788 259.859 105.903C259.859 104.983 260.616 104.253 261.527 104.264C261.878 104.264 270.099 104.385 275.411 106.235C281.305 108.283 283.566 113.222 283.566 124.296L283.555 124.285Z" fill="#222222"/>
        <path d="M249.135 135.38C244.559 129.278 239.367 123.432 233.956 117.74C217.844 100.653 200.898 83.7553 180.329 69.083L184.829 63.2694C205.398 77.9418 222.355 94.8399 238.456 111.915C243.856 117.607 249.069 123.465 253.635 129.555" fill="#009BCF"/>
        <path d="M255.282 129.556C255.282 130.054 255.051 130.553 254.623 130.885C253.899 131.438 252.867 131.294 252.318 130.564C248.356 125.282 243.571 119.723 237.26 113.068C222.08 96.9667 205.288 80.1018 185.147 65.5402L182.678 68.7404C202.972 83.4349 219.885 100.411 235.141 116.589C241.529 123.322 246.391 128.98 250.441 134.373C250.99 135.104 250.847 136.145 250.123 136.698C249.399 137.252 248.367 137.108 247.818 136.377C243.845 131.084 239.071 125.525 232.76 118.881C217.262 102.448 200.063 85.1956 179.374 70.4346C179.012 70.1689 178.76 69.7702 178.694 69.3162C178.628 68.8622 178.749 68.4082 179.023 68.0538L183.523 62.2403C184.061 61.5426 185.049 61.3987 185.773 61.9081C206.704 76.8351 224.034 94.2094 239.641 110.764C246.04 117.508 250.902 123.155 254.941 128.548C255.172 128.847 255.271 129.202 255.271 129.545L255.282 129.556Z" fill="#222222"/>
        <path d="M248.202 111.062C246.457 110.852 243.121 110.608 239.85 111.118C235.108 111.849 229.763 115.292 229.236 124.506C228.71 133.708 233.638 137.75 238.247 139.023C241.441 139.909 244.778 140.042 246.545 140.042C246.83 142.511 248.18 146.343 253.756 146.675C262.021 147.151 262.646 138.381 262.877 134.416L263.316 126.543L263.316 126.421L263.777 118.548C264.007 114.584 264.38 105.791 256.116 105.315C250.54 104.994 248.762 108.648 248.191 111.073" fill="#009BCF"/>
        <path d="M265.511 116.145C265.511 117.142 265.467 118.006 265.423 118.637L264.523 134.505C264.315 138.071 263.689 148.912 253.668 148.325C249.179 148.059 246.161 145.667 245.173 141.67C243.066 141.592 240.399 141.326 237.82 140.618C230.949 138.724 227.118 132.656 227.601 124.406C228.073 116.145 232.562 110.564 239.609 109.479C242.352 109.058 245.107 109.136 247.028 109.28C248.466 105.426 251.748 103.4 256.226 103.654C264.468 104.13 265.522 111.55 265.522 116.145L265.511 116.145ZM230.85 125.846C230.85 133.996 235.701 136.598 238.687 137.417C241.672 138.248 244.899 138.37 246.556 138.381C247.39 138.381 248.093 139.012 248.191 139.854C248.565 143.076 250.474 144.814 253.866 145.014C259.782 145.357 260.912 140.075 261.241 134.317L262.141 118.448C262.46 112.69 261.955 107.32 256.028 106.965C252.648 106.766 250.551 108.272 249.805 111.439C249.618 112.258 248.839 112.801 248.016 112.701C246.391 112.513 243.209 112.269 240.102 112.746C236.887 113.244 231.41 115.437 230.883 124.583C230.861 125.015 230.85 125.436 230.85 125.834L230.85 125.846Z" fill="#222222"/>
        <path d="M247.182 134.329L247.5 128.726C247.511 128.393 247.445 126.743 245.052 126.611L234.373 125.99C232.65 125.891 232.661 127.386 232.694 127.74C233.308 133.011 236.908 134.772 239.213 135.37C241.397 135.934 243.691 136.112 245.294 136.167C245.733 136.145 247.105 135.946 247.193 134.329" fill="white"/>
        <path d="M248.169 116.811L247.851 122.414C247.829 122.746 247.566 124.374 245.184 124.241L234.483 123.621C232.749 123.522 232.935 122.038 233.001 121.683C234.208 116.523 237.995 115.183 240.355 114.862C242.594 114.563 244.899 114.641 246.49 114.774C246.929 114.84 248.268 115.205 248.169 116.822" fill="white"/>
        <path d="M262.021 130.396C264.94 130.562 267.179 133.076 267.015 136.011C266.85 138.945 264.336 141.182 261.417 141.016C258.497 140.85 256.258 138.336 256.423 135.401C256.588 132.467 259.101 130.23 262.021 130.396Z" fill="#222222"/>
        <path d="M263.074 111.827C265.994 111.993 268.233 114.507 268.068 117.441C267.904 120.376 265.39 122.612 262.471 122.446C259.551 122.28 257.312 119.767 257.488 116.832C257.652 113.898 260.166 111.661 263.085 111.827" fill="#222222"/>
        <path d="M90.6475 86.7236C73.6353 82.5268 65.667 68.1866 65.8755 54.7324C66.0841 41.9203 74.5572 30.1603 88.1011 29.3741C92.8975 29.0862 110.612 27.7795 118.416 50.7348" fill="white"/>
        <path d="M120.062 50.7353C120.062 51.4218 119.634 52.0752 118.954 52.3077C118.098 52.6067 117.154 52.1416 116.857 51.2779C109.548 29.751 93.6 30.7144 88.3646 31.0245L88.2109 31.0245C74.8756 31.8107 67.7195 43.5597 67.5329 54.766C67.5329 54.9211 67.5329 55.0872 67.5329 55.2422C67.5329 67.3012 74.7548 81.0988 91.0536 85.1184C91.9317 85.3399 92.4804 86.2369 92.2609 87.1227C92.0414 88.0086 91.1524 88.5623 90.2743 88.3408C72.2414 83.8893 64.2402 68.5968 64.2402 55.2311C64.2402 55.0539 64.2402 54.8768 64.2402 54.6996C64.5146 37.8679 76.4122 28.3779 88.0243 27.7025L88.178 27.7025C103.895 26.7501 114.596 34.3133 119.985 50.1816C120.051 50.3588 120.073 50.547 120.073 50.7242L120.062 50.7353Z" fill="#222222"/>
        <path d="M67.8621 107.586C67.8621 107.586 65.2169 60.812 99.834 37.8677C134.44 14.9346 191.173 24.9671 196.507 89.4148C201.841 153.862 181.284 188.135 141.322 190.815C101.36 193.494 67.6426 159.133 67.8621 107.586Z" fill="white"/>
        <path d="M198.988 108.771C198.988 137.661 192.83 159.487 180.604 173.816C171 185.1 157.807 191.368 141.432 192.475C123.124 193.704 105.574 187.293 91.9974 174.425C75.2706 158.557 66.084 134.782 66.2157 107.619C66.1279 105.692 64.4816 59.3055 98.9231 36.483C118.515 23.5049 143.912 21.3788 163.635 31.0681C183.589 40.8681 195.849 61.5534 198.143 89.2814C198.702 96.1026 198.988 102.603 198.988 108.782L198.988 108.771ZM69.4974 108.084C69.4974 134.173 78.2779 156.852 94.2365 171.989C107.133 184.225 123.816 190.316 141.201 189.142C156.666 188.101 169.09 182.21 178.112 171.635C192.347 154.936 197.978 127.319 194.861 89.5361C192.666 63.0151 181.065 43.3043 162.186 34.0247C143.484 24.8337 119.36 26.8823 100.723 39.2293C67.3243 61.3651 69.4645 106.999 69.4974 107.464C69.4974 107.497 69.4974 107.53 69.4974 107.564C69.4974 107.73 69.4974 107.896 69.4974 108.062L69.4974 108.084Z" fill="#222222"/>
        <path d="M80.6377 105.305C80.6377 133.786 73.4377 138.337 73.4377 138.337C46.4487 136.454 44.4951 111.738 44.4402 105.371L44.4402 104.773C44.4512 98.7382 46.1524 73.5128 73.4377 71.6081C73.4377 71.6081 80.6377 76.1593 80.6377 104.64L80.6377 105.305Z" fill="#009BCF"/>
        <path d="M82.2841 104.641L82.2841 105.305C82.2841 133.875 75.128 139.223 74.3158 139.744C74.0194 139.932 73.6792 140.021 73.328 139.999C44.528 137.983 42.8487 110.82 42.8048 105.394L42.8048 104.785C42.8158 99.3257 44.3524 71.9853 73.328 69.9589C73.6792 69.9367 74.0194 70.0253 74.3158 70.2136C75.128 70.734 82.2841 76.0825 82.2841 104.652L82.2841 104.641ZM72.878 136.621C74.1621 135.226 78.9914 128.427 78.9914 105.294L78.9914 104.63C78.9914 81.6193 74.206 74.7758 72.867 73.3141C65.7548 73.9786 46.1524 78.2197 46.0975 104.774L46.0975 105.361C46.1524 112.182 48.2597 134.495 72.878 136.621Z" fill="#222222"/>
        <path d="M74.0414 101.717C74.0414 101.717 66.6877 92.5256 59.9597 88.6499C59.9597 88.6499 59.1914 95.294 59.1695 98.605C59.1695 98.605 51.9365 95.0393 51.0365 94.5964C51.0365 94.5964 56.3377 101.429 64.0426 107.696C64.0426 107.696 64.4926 101.838 64.4817 97.2429L74.0414 101.706L74.0414 101.717Z" fill="#F4DC30"/>
        <path d="M75.6877 101.717C75.6877 102.082 75.567 102.437 75.3365 102.736C74.8645 103.345 74.0414 103.544 73.3499 103.223L66.095 99.8344C65.9963 103.754 65.6999 107.63 65.6889 107.829C65.645 108.45 65.2609 108.981 64.7011 109.225C64.1414 109.468 63.4938 109.38 63.0109 108.992C55.2402 102.669 49.9609 95.9033 49.7414 95.6154C49.2694 95.0063 49.2804 94.1537 49.7524 93.5557C50.2353 92.9577 51.0584 92.7695 51.7499 93.1017C52.3206 93.3785 55.4267 94.9067 57.6328 96.0029C57.8414 92.6588 58.3024 88.6834 58.3243 88.4619C58.3902 87.9082 58.7194 87.421 59.2133 87.1663C59.7072 86.9116 60.2889 86.9338 60.7719 87.2106C67.6865 91.1971 75.0072 100.288 75.3145 100.676C75.556 100.975 75.6767 101.351 75.6767 101.717L75.6877 101.717ZM62.8353 97.2542C62.8353 96.6895 63.1206 96.158 63.5926 95.859C64.0645 95.5489 64.6572 95.5157 65.1731 95.7483L67.3024 96.7449C65.4914 94.9399 63.406 93.0352 61.3097 91.5182C61.0902 93.7107 60.8267 96.7449 60.8158 98.6274C60.8158 99.2032 60.5194 99.7236 60.0365 100.023C59.5536 100.322 58.9499 100.355 58.445 100.1C58.445 100.1 58.2475 100 57.9182 99.8344C59.2902 101.241 60.8706 102.769 62.6158 104.308C62.7255 102.259 62.8353 99.5686 62.8353 97.2542Z" fill="#F4DC30"/>
        <path d="M81.5927 133.896C69.6402 139.898 63.9988 151.858 64.1744 163.208C64.3829 176.02 72.8561 187.791 86.4 188.577C90.6256 188.821 104.872 189.873 113.543 174.414" fill="white"/>
        <path d="M115.2 174.403C115.2 174.68 115.134 174.957 114.991 175.223C108.977 185.953 99.3841 191.002 86.4768 190.227L86.3121 190.227C74.7109 189.552 62.8134 180.062 62.528 163.219C62.3414 150.019 69.3438 138.171 80.8573 132.402C81.6695 131.992 82.6573 132.324 83.0634 133.155C83.4695 133.974 83.1402 134.971 82.328 135.38C70.1451 141.493 65.8207 153.408 65.8207 162.699C65.8207 162.854 65.8207 163.02 65.8207 163.175C66.0073 174.381 73.1634 186.141 86.4987 186.905L86.6634 186.905C90.9658 187.171 104.06 187.946 112.116 173.584C112.566 172.787 113.565 172.51 114.355 172.953C114.893 173.263 115.189 173.816 115.189 174.403L115.2 174.403Z" fill="#222222"/>
        <path d="M167.136 97.5429C165.94 100.145 163.547 102.858 158.773 103.412C158.729 103.412 158.685 103.423 158.641 103.434C158.608 103.434 158.575 103.434 158.542 103.445C158.114 103.489 157.741 103.556 157.39 103.622C155.952 103.855 154.438 104.143 152.934 104.265C150.651 106.845 147.589 108.461 144.197 108.55C136.866 108.738 130.741 101.784 130.511 92.9917C130.28 84.1994 136.042 76.9241 143.374 76.7248C147.336 76.6141 150.958 78.6184 153.472 81.8518C154.767 81.9183 156.051 82.0401 157.302 82.2615C159.486 82.627 162.351 83.3467 164.349 84.6645C164.93 85.0964 170.407 89.3929 167.158 97.5319L167.136 97.5429Z" fill="#F1D4DA"/>
        <path d="M147.183 99.7128C157.511 100.178 160.057 98.4172 161.418 97.1216C163.13 95.5049 163.504 92.0389 162.648 89.9238C161.616 87.3659 158.96 85.3615 147.183 85.1954C147.183 85.1954 146.941 91.0201 143.934 91.8395C143.934 91.8395 146.963 92.6368 147.073 96.1803" fill="#E94E64"/>
        <path d="M148.785 85.9376C148.785 83.7672 147.929 81.5525 145.734 80.1019C144.944 79.5814 143.879 79.8029 143.363 80.6002C142.847 81.3975 143.067 82.4716 143.857 82.9921C145.613 84.1659 145.668 86.3473 144.922 87.9973C144.45 89.0493 143.528 90.1345 142.277 90.2895C141.827 90.212 141.355 90.1677 140.85 90.1455C139.983 90.1234 139.236 90.7546 139.116 91.6183C138.984 92.482 139.522 93.3015 140.367 93.534C140.927 93.689 141.476 93.7555 142.024 93.7555C144.669 94.4199 145.163 96.8893 145.251 97.7198C145.449 99.4694 144.79 101.507 143.341 101.872C142.43 102.105 141.871 103.035 142.101 103.965C142.332 104.895 143.265 105.449 144.175 105.217C147.183 104.452 149.06 101.141 148.654 97.3322C148.456 95.5272 147.677 93.5451 146.118 92.1277C146.897 91.4301 147.567 90.511 148.061 89.4147C148.522 88.3738 148.796 87.1668 148.796 85.9376L148.785 85.9376Z" fill="#222222"/>
        <path d="M134.791 97.4308C133.288 95.8584 133.266 92.6803 133.277 92.0602C133.277 91.429 133.288 88.262 134.791 86.6896C135.351 86.1027 136.054 85.8037 136.877 85.8037C140.202 85.8037 142.288 87.8523 142.595 91.4512C142.595 91.4733 142.617 91.8166 142.617 92.1709C142.617 92.3592 142.617 92.5474 142.595 92.7025C142.288 96.2792 140.202 98.3389 136.877 98.3389C136.054 98.3389 135.351 98.0399 134.791 97.453L134.791 97.4308Z" fill="#252525"/>
        <path d="M133.551 76.6475C136.482 76.6475 138.852 74.1559 138.852 71.0886C138.852 68.0212 136.482 65.5297 133.551 65.5297C130.621 65.5297 128.25 68.0212 128.25 71.0886C128.25 74.1559 130.621 76.6475 133.551 76.6475Z" fill="#222222"/>
        <path d="M133.551 122.037C136.482 122.037 138.852 119.546 138.852 116.478C138.852 113.411 136.482 110.919 133.551 110.919C130.621 110.919 128.25 113.411 128.25 116.478C128.25 119.546 130.621 122.037 133.551 122.037Z" fill="#222222"/>
        <path d="M164.799 92.4384C164.799 91.2868 164.601 90.1794 164.239 89.2714C162.582 85.1853 157.972 83.6129 147.216 83.4689C146.272 83.4578 145.493 84.2219 145.482 85.1742C145.482 86.1265 146.228 86.9128 147.172 86.9238C159.662 87.0899 160.617 89.4486 161.078 90.5781C161.747 92.228 161.341 94.8524 160.266 95.8712C159.453 96.6463 157.555 98.4624 147.282 97.9973C146.338 97.953 145.536 98.6949 145.493 99.6473C145.449 100.611 146.184 101.408 147.128 101.452C157.434 101.917 160.661 100.256 162.614 98.3849C164.118 96.9564 164.81 94.631 164.81 92.4495L164.799 92.4384Z" fill="#252525"/>
        <path fill-rule="evenodd" clip-rule="evenodd" d="M9.16528 12.8564C9.16528 15.0046 10.8885 16.7432 13.0177 16.7432C13.6324 16.7432 14.2031 16.5992 14.7189 16.3445C14.675 15.4586 15.3116 14.6724 16.2006 14.5728L16.497 14.5395C16.7385 14.0302 16.8702 13.4654 16.8702 12.8674C16.8702 10.7192 15.147 8.98066 13.0177 8.98066C10.8885 8.98066 9.16528 10.7192 9.16528 12.8674L9.16528 12.8564ZM12.2714 11.295L15.2128 14.0302C15.2897 14.1077 15.2128 14.2295 15.1141 14.1963L12.908 13.3657C12.908 13.3657 12.7982 13.3657 12.7763 13.4322L12.5567 14.0966C12.5348 14.163 12.447 14.1852 12.3921 14.1409L10.5153 12.3138C10.4385 12.2363 10.5153 12.1145 10.6141 12.1477L11.7446 12.5352C11.7994 12.5574 11.8653 12.5242 11.8763 12.4577L12.0958 11.3504C12.1067 11.2729 12.2055 11.2507 12.2604 11.295L12.2714 11.295Z" fill="#FCDD61"/>
        <path d="M23.0055 52.3552C23.0055 52.3552 23.0165 52.3109 23.0165 52.2887C23.0165 52.2666 23.0055 52.2445 23.0055 52.2223C23.0165 52.0894 23.0494 51.9676 23.0823 51.8569C23.1153 51.7351 23.1702 51.6244 23.2689 51.5136C23.3787 51.4029 23.5104 51.3475 23.675 51.3475C23.7628 51.3475 23.8506 51.3586 23.9494 51.3918C24.0372 51.414 24.1141 51.4472 24.1689 51.5025C24.2348 51.569 24.2787 51.6465 24.3116 51.7351C24.3445 51.8237 24.3665 51.9233 24.3775 52.0008C24.3775 52.0894 24.3884 52.1669 24.3884 52.2334L24.3884 58.8996C24.3884 58.8996 24.3884 58.9771 24.3994 59.0214L24.3994 59.1432C24.3994 59.3093 24.3994 59.4865 24.3994 59.6748C24.3884 59.863 24.3226 60.018 24.2128 60.1509C24.0702 60.317 23.8945 60.3945 23.708 60.3945C23.5872 60.3945 23.4665 60.3613 23.3458 60.2838C23.225 60.2174 23.1372 60.1177 23.0933 60.007C23.0275 59.8519 23.0055 59.6858 23.0055 59.5308C23.0055 59.3758 23.0055 59.1875 22.9945 59.0103L22.9945 58.955C22.9836 58.2795 22.9836 57.5708 22.9945 56.851L21.425 56.851L21.425 57.1389L21.4031 57.4158C21.3921 57.6151 21.3921 57.8366 21.4031 58.0691C21.4031 58.3016 21.4031 58.5231 21.3921 58.7114C21.3811 58.9107 21.3262 59.0989 21.2494 59.2761C21.1616 59.4422 21.008 59.5419 20.7994 59.5862C20.5909 59.6305 20.3823 59.6526 20.1848 59.6637C19.9872 59.6637 19.7897 59.6748 19.6031 59.6858L19.0214 59.6858C18.8238 59.6858 18.6153 59.6748 18.3958 59.6748L17.5836 59.6748C17.4848 59.6748 17.375 59.6748 17.2433 59.6858C17.1226 59.6858 16.9909 59.6858 16.8702 59.6637C16.7494 59.6415 16.6287 59.6083 16.5299 59.553C16.4311 59.4976 16.3543 59.4201 16.2994 59.3093C16.2445 59.1875 16.2006 59.0546 16.1677 58.9107C16.1238 58.7667 16.1019 58.6117 16.0909 58.4677C16.0799 58.3127 16.0689 58.1577 16.0689 58.0137C16.0689 57.8587 16.058 57.7148 16.058 57.5819L16.058 53.8058C16.058 53.8058 16.058 53.7505 16.0689 53.6619C16.0689 53.5733 16.0799 53.4625 16.1019 53.3297C16.1128 53.2078 16.1458 53.075 16.1677 52.9532C16.1897 52.8203 16.2226 52.7095 16.2775 52.632C16.3323 52.5434 16.4202 52.4659 16.5409 52.4106C16.6616 52.3552 16.7823 52.322 16.9031 52.2887C17.0238 52.2555 17.1445 52.2445 17.2433 52.2445C17.3311 52.2445 17.386 52.2334 17.397 52.2334L19.636 52.2334C19.8116 52.2334 19.9872 52.2334 20.1738 52.2445C20.3494 52.2445 20.525 52.2555 20.7116 52.2887C20.8214 52.2998 20.9311 52.333 21.0409 52.3663C21.1506 52.4106 21.2275 52.477 21.2823 52.5877C21.3482 52.7206 21.3811 52.8978 21.3921 53.1082C21.3921 53.3186 21.3921 53.4958 21.3811 53.6397C21.3811 53.8058 21.3811 53.9719 21.4031 54.1269C21.4031 54.2931 21.4141 54.4592 21.4141 54.6142L21.4141 55.19L23.0055 55.1679L23.0055 54.592C23.0055 54.4259 22.9945 54.2709 22.9945 54.1269L22.9945 53.6619C22.9945 53.5068 22.9945 53.3297 23.0055 53.1193C23.0055 52.9753 23.0055 52.8424 23.0055 52.7095C22.9945 52.5767 22.9945 52.4438 23.0055 52.322L23.0055 52.3552ZM19.9543 54.5477C19.9433 54.4813 19.9323 54.4038 19.9433 54.3373C19.9433 54.2709 19.9433 54.1934 19.9104 54.1159C19.8884 54.0716 19.8555 54.0384 19.8226 54.0051C19.7787 53.983 19.7348 53.9719 19.6799 53.9719C19.625 53.9719 19.5702 53.9719 19.5153 53.9719L18.0775 53.9719C17.9897 53.9719 17.9128 53.9941 17.858 54.0273C17.8031 54.0605 17.7702 54.1269 17.7372 54.2266C17.7153 54.3263 17.6933 54.4813 17.6933 54.6695L17.6933 57.0614C17.6933 57.0614 17.6933 57.1832 17.7043 57.2718C17.7043 57.3493 17.7043 57.4268 17.7153 57.5154C17.7153 57.604 17.7262 57.6705 17.7372 57.7369C17.7482 57.8366 17.7921 57.9252 17.8689 57.9805C17.9348 58.047 18.0226 58.0691 18.1214 58.0691L19.6799 58.047C19.7677 58.0359 19.8445 57.9916 19.8884 57.9252C19.9323 57.8587 19.9543 57.7812 19.9653 57.6926C19.9762 57.604 19.9872 57.5154 19.9872 57.4379C19.9872 57.3493 19.9762 57.2607 19.9762 57.1943L19.9543 54.5367L19.9543 54.5477ZM19.2519 43.6404C19.2958 43.5518 19.3506 43.4853 19.4275 43.43C19.5043 43.3746 19.5811 43.3414 19.6689 43.3192C19.8445 43.2749 19.9982 43.3192 20.1299 43.441C20.2726 43.5518 20.3714 43.6847 20.4482 43.8397C20.5141 43.9947 20.558 44.1608 20.5909 44.3491C20.6238 44.5263 20.6348 44.7034 20.6348 44.8917L20.6348 47.3389C20.6348 47.6933 20.6348 48.0144 20.6458 48.3244L20.6458 49.2989C20.6458 49.4207 20.6458 49.5315 20.6238 49.6533C20.6019 49.7751 20.5799 49.8858 20.558 49.9965C20.5141 50.1073 20.4702 50.2069 20.3933 50.3066C20.3275 50.3952 20.2397 50.4616 20.1299 50.517C19.8555 50.6609 19.5811 50.7274 19.2848 50.7274C18.9775 50.7274 18.6811 50.7163 18.3738 50.7163L17.5836 50.7163C17.5836 50.7163 17.4958 50.7163 17.397 50.7274C17.2982 50.7274 17.1775 50.7385 17.0458 50.7385C16.9141 50.7385 16.7823 50.7163 16.6397 50.7052C16.497 50.6831 16.3872 50.6388 16.2884 50.5724C16.2116 50.5281 16.1458 50.4506 16.1019 50.3509C16.058 50.2402 16.025 50.1405 15.9921 50.0298C15.9702 49.919 15.9482 49.8194 15.9482 49.7419C15.9482 49.6533 15.9372 49.5979 15.9372 49.5758L15.9372 44.7699C15.9372 44.7699 15.9372 44.7034 15.9482 44.5816C15.9482 44.4598 15.9592 44.3269 15.9921 44.183C16.0141 44.039 16.058 43.8951 16.1238 43.7622C16.1897 43.6293 16.2775 43.5407 16.3982 43.5075C16.4421 43.4964 16.508 43.4853 16.5738 43.4853C16.6397 43.4853 16.7055 43.4743 16.7714 43.4743C16.8372 43.4743 16.9031 43.4743 16.9689 43.4964C17.0348 43.4964 17.0787 43.5186 17.1116 43.5296C17.1775 43.5629 17.2214 43.6182 17.2653 43.6957C17.2982 43.7732 17.3202 43.8508 17.3311 43.9172C17.3421 43.9837 17.3641 44.0722 17.375 44.183C17.386 44.2937 17.397 44.4266 17.397 44.5816L17.397 44.947C17.386 45.2571 17.375 45.545 17.375 45.8108C17.375 46.0655 17.375 46.3312 17.375 46.5859C17.375 46.8406 17.375 47.1174 17.386 47.3943C17.386 47.6711 17.386 47.9922 17.397 48.3466C17.397 48.413 17.397 48.4795 17.386 48.557C17.386 48.6345 17.386 48.712 17.386 48.7895C17.386 48.867 17.408 48.9335 17.4299 48.9888C17.4519 49.0442 17.4958 49.0774 17.5616 49.0996C17.6933 49.1439 17.8141 49.1549 17.9348 49.1439C18.0555 49.1439 18.1872 49.1439 18.3299 49.1439C18.3848 49.1439 18.4397 49.1439 18.5055 49.155L18.7031 49.155C18.7689 49.155 18.8238 49.1328 18.8787 49.1107C18.9336 49.0885 18.9775 49.0442 19.0214 48.9888C19.0653 48.9335 19.0762 48.856 19.0762 48.7563L19.0762 48.4905C19.0872 48.2137 19.0982 47.9479 19.0982 47.6933C19.0982 47.4386 19.0982 47.1617 19.0762 46.8849C19.0762 46.4752 19.0653 46.0987 19.0653 45.7554L19.0653 44.6259C19.0653 44.2494 19.1311 43.9283 19.2519 43.6514L19.2519 43.6404ZM23.0275 50.2623C23.0275 50.4395 22.9945 50.6167 22.9616 50.7828C22.9177 50.9378 22.8189 51.0707 22.6543 51.1703C22.5226 51.2589 22.3799 51.3032 22.2372 51.3032C22.0836 51.3032 21.9519 51.2368 21.8421 51.126C21.7762 51.0596 21.7323 50.9821 21.6994 50.8935C21.6665 50.8049 21.6445 50.7052 21.6336 50.6277C21.6226 50.5391 21.6116 50.4727 21.6116 50.4063L21.6116 43.8951C21.6116 43.7733 21.6116 43.6404 21.6116 43.4964C21.6116 43.3525 21.6445 43.2085 21.6884 43.0867C21.7323 42.9649 21.7982 42.8541 21.897 42.7656C21.9848 42.677 22.1165 42.6327 22.2921 42.6327C22.4897 42.6327 22.6323 42.6991 22.7311 42.832C22.8189 42.9649 22.8958 43.1199 22.9397 43.3082C22.9836 43.4853 23.0055 43.6736 23.0055 43.8729L23.0055 44.8142C23.0055 44.9692 23.0165 45.1242 23.0165 45.2682C23.0165 45.4121 23.0055 45.5671 23.0055 45.7222L23.0055 46.1651C23.225 46.1651 23.4555 46.154 23.708 46.143C23.9494 46.143 24.158 46.143 24.3336 46.1762C24.4762 46.1873 24.6189 46.2316 24.7506 46.298C24.8933 46.3534 25.0031 46.442 25.0909 46.5748C25.1677 46.6966 25.2116 46.8295 25.2116 46.9846C25.2116 47.1396 25.1897 47.2835 25.1238 47.4053C25.058 47.505 24.9702 47.5825 24.8604 47.6379C24.7397 47.6822 24.6299 47.7154 24.5202 47.7265C24.4323 47.7375 24.3445 47.7486 24.2458 47.7486C24.147 47.7486 24.0482 47.7376 23.9714 47.7376C23.8287 47.7376 23.686 47.7486 23.5214 47.7486L23.0165 47.7486L23.0165 48.0365C23.0165 48.258 23.0165 48.4573 23.0275 48.6345C23.0275 48.8117 23.0275 48.9778 23.0384 49.1439L23.0384 50.2512L23.0275 50.2623ZM20.7445 41.3924C20.525 41.7025 20.2177 41.924 19.8116 42.0569C19.6141 42.1344 19.4165 42.1897 19.2299 42.223C19.0433 42.2451 18.8567 42.2562 18.6592 42.2562C18.4616 42.2562 18.275 42.2451 18.0994 42.2119C17.9238 42.1676 17.7482 42.1233 17.5726 42.0569C17.408 41.9793 17.2543 41.9018 17.1226 41.8132C16.9799 41.7247 16.8482 41.6139 16.7384 41.481C16.6067 41.3592 16.497 41.2264 16.3982 41.0935C16.3104 40.9495 16.2226 40.7945 16.1677 40.6173C16.0909 40.4623 16.036 40.2962 16.0031 40.1079C15.9592 39.9197 15.9482 39.7204 15.9482 39.521C15.9262 39.3771 15.9262 39.2442 15.9482 39.1113C15.9482 39.0449 15.9482 38.9784 15.9592 38.912C15.9592 38.8345 15.9811 38.768 15.9921 38.7016C16.0031 38.6684 16.0141 38.6352 16.0141 38.613C16.0141 38.5687 16.0141 38.5355 16.036 38.4912C16.036 38.4469 16.036 38.4137 16.058 38.3805C16.058 38.3362 16.0799 38.314 16.0909 38.2919C16.1128 38.2033 16.1458 38.1258 16.1677 38.0593C16.1897 37.9818 16.2226 37.9043 16.2555 37.8268C16.3214 37.6939 16.3872 37.561 16.4641 37.4282C16.486 37.3839 16.5189 37.3285 16.5738 37.2731C16.6177 37.2067 16.6726 37.1513 16.7275 37.0959C16.8702 36.952 17.0128 36.8413 17.1555 36.7527C17.2323 36.7084 17.3092 36.6641 17.397 36.6309C17.4848 36.5866 17.5726 36.5644 17.6714 36.5533C17.7592 36.5312 17.847 36.509 17.9348 36.498L18.1872 36.4537C18.275 36.4426 18.3628 36.4315 18.4397 36.4205C18.5275 36.4205 18.6153 36.4205 18.7141 36.4315C18.758 36.4315 18.8128 36.4315 18.8787 36.4426C18.9336 36.4426 18.9884 36.4537 19.0323 36.4537C19.0982 36.4648 19.1531 36.4758 19.2189 36.4869C19.2848 36.4869 19.3397 36.509 19.3836 36.5312C19.6909 36.5755 19.9653 36.6752 20.2177 36.8191C20.3494 36.9077 20.4701 37.0074 20.5689 37.107C20.6677 37.2067 20.7665 37.3285 20.8543 37.4614C20.9202 37.561 20.975 37.6607 21.0189 37.7714C21.0628 37.8711 21.0958 37.9818 21.1287 38.0926C21.1616 38.1922 21.1836 38.303 21.2055 38.4137C21.2165 38.5134 21.2384 38.6241 21.2604 38.7348C21.2714 38.7791 21.2823 38.8123 21.2823 38.8566L21.2823 39.067C21.2823 39.067 21.2823 39.1335 21.3043 39.1777L21.3043 39.4989C21.3043 39.4989 21.3043 39.5653 21.2823 39.6096L21.2823 39.7647C21.2823 39.7647 21.2823 39.8532 21.2604 39.9086C21.2604 39.975 21.2604 40.0304 21.2494 40.0858C21.2494 40.1301 21.2384 40.1854 21.2384 40.2408C21.2055 40.4512 21.1506 40.6505 21.0519 40.8499L20.8982 41.1599C20.8433 41.2485 20.7775 41.3482 20.7006 41.4257L20.7445 41.3924ZM18.0226 33.8293C18.1762 33.8182 18.3409 33.8071 18.4945 33.8071L21.3921 33.8071C21.5458 33.8071 21.6994 33.8071 21.8421 33.8293L23.1702 33.8293C23.2909 33.8403 23.4226 33.8514 23.5433 33.8403C23.6641 33.8403 23.7738 33.8293 23.8836 33.8293L24.1031 33.8293C24.1689 33.8293 24.2348 33.8293 24.3006 33.8514C24.4214 33.8514 24.5201 33.8736 24.608 33.9289C24.6519 33.94 24.6848 33.9621 24.7177 33.9732C24.7397 33.9843 24.7726 34.0064 24.8055 34.0175C24.8275 34.0507 24.8604 34.084 24.8823 34.1061C24.9153 34.1393 24.9372 34.1836 24.9592 34.2501C25.0141 34.3165 25.047 34.4051 25.0689 34.4937C25.0909 34.5823 25.0799 34.6819 25.0689 34.7816C25.036 34.9145 24.9921 35.0141 24.9153 35.0695C24.8714 35.1359 24.7945 35.1913 24.6738 35.2467C24.6189 35.2688 24.5641 35.291 24.5202 35.302C24.4762 35.3131 24.4214 35.3242 24.3665 35.3242C24.3226 35.3353 24.2897 35.3463 24.2458 35.3574C24.2019 35.3574 24.1799 35.3685 24.158 35.3685L24.0262 35.3685L17.1336 35.3906L16.8262 35.3906C16.7275 35.3906 16.6177 35.3685 16.486 35.3463C16.2775 35.3242 16.1019 35.2577 15.9702 35.1359C15.8933 35.0252 15.8384 34.9366 15.8165 34.8813C15.8055 34.8259 15.7945 34.7705 15.7945 34.7262L15.7945 34.549C15.7945 34.4826 15.7945 34.4272 15.8165 34.3608C15.8275 34.2944 15.8604 34.239 15.8933 34.1725C15.9702 34.0729 16.0689 33.9954 16.1787 33.9511C16.2665 33.9068 16.3543 33.8846 16.4311 33.8625C16.5189 33.8403 16.6067 33.8293 16.6836 33.8293L16.958 33.8293C17.0458 33.8293 17.1445 33.8293 17.2214 33.8071L17.9787 33.8071L18.0226 33.8293ZM22.6214 36.4094C22.6543 36.3097 22.6982 36.2211 22.7531 36.1436C22.8299 36.0661 22.9067 36.0107 22.9836 35.9664C23.0604 35.9222 23.1482 35.9 23.236 35.9C23.3677 35.9 23.4884 35.9443 23.5872 36.0329C23.686 36.1104 23.7519 36.199 23.7848 36.2876C23.7958 36.3319 23.8067 36.3651 23.8177 36.4094C23.8287 36.4537 23.8287 36.4869 23.8287 36.5312C23.8397 36.5755 23.8506 36.6198 23.8506 36.6641L23.8506 38.3029C23.8506 38.4358 23.8506 38.5798 23.8726 38.7237L23.8726 39.5432C23.8616 39.6871 23.8506 39.809 23.8506 39.9197L23.8506 41.481C23.8506 41.5585 23.8506 41.6361 23.8397 41.7025C23.8397 41.769 23.8177 41.8465 23.8067 41.924C23.7958 41.9683 23.7848 42.0015 23.7738 42.0458C23.7628 42.079 23.7409 42.1122 23.7299 42.1565C23.708 42.223 23.675 42.2894 23.6202 42.3558C23.5653 42.4001 23.5104 42.4444 23.4445 42.4777C23.3787 42.4998 23.2909 42.5109 23.1921 42.5109C23.0494 42.5109 22.9177 42.4555 22.797 42.3558C22.7311 42.3116 22.6762 42.234 22.6543 42.1344C22.6433 42.0901 22.6323 42.0458 22.6214 41.9904C22.6104 41.9461 22.5884 41.9018 22.5775 41.8575C22.5665 41.8022 22.5555 41.7579 22.5555 41.7246L22.5555 36.9741C22.5555 36.9077 22.5555 36.8412 22.5775 36.7748C22.5775 36.7084 22.5775 36.653 22.5884 36.5976C22.5884 36.5423 22.6104 36.4869 22.6214 36.4205L22.6214 36.4094ZM18.4506 40.7059C18.5933 40.728 18.758 40.728 18.9116 40.7059C19.0982 40.6616 19.2519 40.6173 19.3616 40.5509C19.6031 40.3958 19.7787 40.1633 19.8994 39.8643C19.9433 39.7536 19.9653 39.6428 19.9762 39.5321C19.9872 39.4103 19.9982 39.2996 19.9982 39.1888C19.9872 39.1224 19.9762 39.067 19.9762 39.0117C19.9762 38.9563 19.9762 38.9009 19.9543 38.8345C19.9543 38.7791 19.9433 38.7237 19.9214 38.6794L19.8555 38.5133C19.7897 38.3694 19.6689 38.2365 19.5043 38.1369C19.4165 38.0815 19.3397 38.0483 19.2628 38.015C19.186 37.9929 19.1092 37.9708 19.0214 37.9486C18.8897 37.9154 18.7689 37.9043 18.6482 37.9265C18.5275 37.9265 18.4067 37.9597 18.275 37.9929C18.2202 38.004 18.1653 38.0372 18.1214 38.0593C18.0665 38.0815 18.0226 38.1036 17.9787 38.1258C17.9567 38.1479 17.9348 38.1701 17.9128 38.1811C17.8799 38.1922 17.858 38.2254 17.847 38.2476C17.7921 38.2697 17.7372 38.314 17.6933 38.3915C17.6494 38.458 17.6275 38.5133 17.6055 38.5798C17.5836 38.613 17.5616 38.6462 17.5506 38.6905C17.5397 38.7237 17.5177 38.757 17.5067 38.8013C17.4628 39.0006 17.4409 39.211 17.4409 39.4214C17.4409 39.521 17.4409 39.6207 17.4628 39.7093C17.4738 39.7979 17.5067 39.8975 17.5397 39.975C17.5836 40.0636 17.6275 40.1411 17.6823 40.2187C17.7262 40.2962 17.7921 40.3626 17.8799 40.4291C17.9567 40.4955 18.0445 40.5398 18.1433 40.5841C18.2311 40.6173 18.3409 40.6505 18.4616 40.6727L18.4506 40.7059ZM23.6311 32.5558C23.3458 32.5558 23.1043 32.4783 22.9177 32.3233C22.7202 32.1572 22.5775 31.9357 22.4677 31.6699C22.358 31.3931 22.2811 31.0609 22.2372 30.6733C22.1823 30.2858 22.1494 29.876 22.1275 29.4331C22.0287 29.4331 21.9299 29.4331 21.8531 29.422C21.7653 29.422 21.6555 29.4109 21.5348 29.4109L21.5348 30.1197C21.5348 30.3965 21.5238 30.6955 21.5238 30.9944C21.5238 31.3045 21.5128 31.5924 21.5019 31.8693C21.5019 32.1461 21.4799 32.3786 21.4689 32.5337C21.458 32.6555 21.436 32.7551 21.425 32.8437C21.4031 32.9102 21.3482 32.9988 21.2494 33.0984C21.1616 33.1981 21.0189 33.2534 20.8433 33.2534C20.6787 33.2534 20.547 33.1981 20.4482 33.0984C20.3823 33.0431 20.3384 32.9655 20.3055 32.877C20.2726 32.7884 20.2506 32.6887 20.2397 32.6112C20.2287 32.5226 20.2177 32.4562 20.2177 32.3897L20.2177 25.2141C20.2177 25.0923 20.2177 24.9816 20.2287 24.8708C20.2287 24.7601 20.2506 24.6604 20.2726 24.5497C20.2945 24.439 20.3494 24.3393 20.4262 24.2618C20.4921 24.1732 20.558 24.1289 20.6348 24.1178C20.7116 24.1068 20.7994 24.0957 20.8872 24.0957C21.1287 24.0957 21.2933 24.2175 21.3702 24.4722C21.436 24.6272 21.4689 24.8044 21.4909 24.9926C21.4909 25.1698 21.5019 25.347 21.5128 25.5131C21.5238 25.9007 21.5348 26.2882 21.5458 26.6536C21.5458 27.0191 21.5567 27.4067 21.5567 27.8053C21.6665 27.8053 21.7653 27.8164 21.8421 27.8274C21.9189 27.8274 22.0177 27.8274 22.1165 27.8385C22.1165 27.4177 22.1494 27.0302 22.1933 26.6647C22.2372 26.3104 22.3031 26.0003 22.4128 25.7345C22.5116 25.4688 22.6653 25.2584 22.8519 25.1144C23.0494 24.9705 23.3019 24.893 23.6092 24.893C23.9714 24.893 24.2567 24.9926 24.4543 25.203C24.6519 25.4023 24.8055 25.6792 24.8933 26.0335C24.9921 26.3768 25.058 26.7865 25.0799 27.2516C25.1019 27.7167 25.1128 28.2039 25.1128 28.7355C25.1128 29.267 25.1019 29.7653 25.0799 30.2415C25.058 30.7065 24.9921 31.1052 24.8933 31.4485C24.8055 31.7917 24.6519 32.0686 24.4543 32.2679C24.2567 32.4672 23.9714 32.578 23.6092 32.578L23.6311 32.5558ZM18.1653 25.9117C18.2311 25.7678 18.308 25.6238 18.3958 25.4799C18.4836 25.3359 18.5823 25.203 18.6811 25.0812C18.736 25.0148 18.8019 24.9705 18.8897 24.9483C18.9775 24.9262 19.0653 24.9262 19.1421 24.9483C19.2189 24.9594 19.2958 25.0037 19.3616 25.0701C19.4275 25.1255 19.4604 25.203 19.4823 25.2916C19.5372 25.5463 19.5372 25.801 19.4823 26.0778C19.4165 26.3436 19.3397 26.5872 19.2409 26.8198C19.1531 27.0302 19.0543 27.2295 18.9775 27.4067C18.8897 27.5838 18.8019 27.761 18.7031 27.9492C18.6702 28.0046 18.6372 28.0821 18.5823 28.1707L18.4397 28.4254C18.3848 28.5251 18.3299 28.6358 18.275 28.7576C18.3409 28.8905 18.3958 29.0234 18.4506 29.1452L18.5933 29.4774C18.6372 29.577 18.6811 29.6656 18.7141 29.721C18.8238 29.9203 18.9116 30.1086 18.9884 30.2857C19.0543 30.4629 19.1421 30.6401 19.2299 30.8505C19.2958 31.0055 19.3616 31.1716 19.4494 31.3267C19.5262 31.4817 19.5592 31.6478 19.5372 31.836C19.5372 31.98 19.4933 32.1129 19.4275 32.2458C19.3616 32.3786 19.2519 32.4562 19.0982 32.4894C19.0214 32.4894 18.9336 32.4894 18.8348 32.4672C18.725 32.434 18.6372 32.3897 18.5604 32.3122C18.4836 32.2347 18.4177 32.135 18.3519 32.0354L17.9567 31.227C17.8909 31.0941 17.825 30.9723 17.7811 30.8726C17.7372 30.773 17.6823 30.6512 17.6165 30.5072C17.5726 30.4408 17.5397 30.3743 17.4958 30.2968C17.4519 30.2193 17.4189 30.1418 17.375 30.0532L17.375 30.7951C17.375 30.9169 17.375 31.0277 17.386 31.1273C17.386 31.2159 17.386 31.3156 17.3641 31.4374C17.3531 31.526 17.3421 31.6146 17.3421 31.7142C17.3421 31.8139 17.3202 31.9136 17.2872 31.9911C17.2433 32.0797 17.1665 32.1461 17.0677 32.2015C16.9909 32.2458 16.9031 32.279 16.8153 32.279C16.7165 32.279 16.6177 32.279 16.5409 32.2347C16.4202 32.1682 16.3214 32.0686 16.2665 31.9246C16.2006 31.7807 16.1787 31.6367 16.1787 31.4928L16.1787 31.227C16.1787 31.1052 16.1897 31.0166 16.1897 30.9612C16.1897 30.8948 16.1787 30.8062 16.1787 30.6844L16.1787 29.6435L15.8275 29.6435C15.597 29.6435 15.4323 29.5438 15.3555 29.3334C15.2677 29.1341 15.2348 28.9126 15.2677 28.6801C15.2897 28.4697 15.3336 28.3036 15.4104 28.2039C15.4762 28.0821 15.586 28.0268 15.7397 28.0157C15.7945 28.0157 15.8604 28.0046 15.9482 28.0046C16.025 28.0046 16.1019 27.9935 16.1897 27.9935L16.1897 26.6315C16.1897 26.5097 16.1897 26.3657 16.1787 26.1996C16.1787 26.0335 16.1787 25.8785 16.2116 25.7345C16.2336 25.5795 16.2884 25.4466 16.3653 25.3248C16.4421 25.203 16.5628 25.1144 16.7275 25.0812C16.9141 25.0369 17.0567 25.0701 17.1555 25.192C17.2543 25.3027 17.3311 25.4466 17.375 25.6238C17.4189 25.801 17.4409 25.9782 17.4409 26.1775C17.4409 26.3768 17.4409 26.5318 17.4299 26.6536C17.4299 26.7755 17.4189 26.9083 17.4189 27.0523L17.4189 27.4399L17.4628 27.3734C17.4628 27.3734 17.4848 27.3181 17.4958 27.2959C17.5397 27.2184 17.5726 27.1409 17.6165 27.0744C17.6494 26.9969 17.6823 26.9194 17.7262 26.8419C17.7921 26.6979 17.8689 26.554 17.9458 26.41L18.1762 25.9671L18.1653 25.9117ZM23.6311 26.4322C23.5104 26.4322 23.4226 26.4986 23.3677 26.6426C23.3128 26.7755 23.2799 26.9526 23.258 27.1852C23.247 27.4067 23.236 27.6503 23.247 27.9271C23.247 28.2039 23.258 28.4697 23.258 28.7355C23.258 29.0012 23.258 29.267 23.247 29.5328C23.247 29.7985 23.247 30.0421 23.258 30.2525C23.2689 30.4629 23.3128 30.6401 23.3677 30.773C23.4226 30.8948 23.5104 30.9612 23.6311 30.9612C23.7409 30.9612 23.8177 30.8948 23.8726 30.773C23.9275 30.6401 23.9604 30.4629 23.9933 30.2525C24.0043 30.0421 24.0153 29.7985 24.0153 29.5328C24.0153 29.267 24.0043 29.0012 24.0043 28.7355C24.0043 28.4697 24.0043 28.2039 24.0262 27.9271C24.0372 27.6503 24.0482 27.4067 24.0372 27.1852C24.0262 26.9637 23.9823 26.7755 23.9275 26.6426C23.8726 26.4986 23.7738 26.4322 23.6202 26.4322L23.6311 26.4322ZM17.1994 20.3086L18.1762 20.3086C18.297 20.3086 18.3738 20.3086 18.3848 20.3086C18.4287 20.2643 18.4945 20.1978 18.5823 20.0982C18.6702 19.9985 18.736 19.9099 18.8019 19.8435C18.8677 19.766 18.9336 19.6884 19.0104 19.6109C19.0762 19.5223 19.1531 19.4337 19.2409 19.3562C19.2958 19.3009 19.3506 19.2455 19.4055 19.2012C19.4494 19.1569 19.4933 19.1126 19.5372 19.0683C19.6799 18.9244 19.8445 18.7693 20.0092 18.6254C20.1848 18.4814 20.3494 18.3707 20.536 18.3153C20.6019 18.2932 20.6787 18.2932 20.7665 18.3043C20.8543 18.3153 20.9202 18.3707 20.986 18.4593C21.0628 18.5922 21.1067 18.7361 21.1067 18.8801C21.1067 19.0573 21.0738 19.2123 20.997 19.3673C20.9311 19.5223 20.8543 19.6441 20.7884 19.7438C20.6787 19.8878 20.5689 20.0317 20.4482 20.1535L20.075 20.53L19.7897 20.8179C19.6689 20.9287 19.5701 21.0394 19.4823 21.1501L19.8006 21.4713L19.9653 21.6374C19.9653 21.6374 20.0641 21.7481 20.1189 21.7924C20.2287 21.8921 20.3384 22.0028 20.4592 22.1135C20.5689 22.2243 20.6677 22.3461 20.7775 22.49C21.008 22.8112 21.1287 23.1101 21.1287 23.398L21.1287 23.5088C21.1287 23.5088 21.1287 23.5642 21.1067 23.5974C21.0628 23.7746 20.997 23.8853 20.8982 23.9407C20.8104 23.996 20.7116 24.0182 20.6128 23.996C20.5031 23.9739 20.4043 23.9406 20.3275 23.8853C20.2397 23.8188 20.1628 23.7524 20.086 23.6749L19.8336 23.4423C19.7567 23.3759 19.647 23.2652 19.5043 23.1101C19.3616 22.9551 19.208 22.8001 19.0653 22.6451C18.9116 22.49 18.7689 22.3461 18.6482 22.2132C18.5275 22.0803 18.4506 22.0028 18.4177 21.9696L17.2323 21.9696L17.2323 22.7226C17.2323 22.8112 17.2323 22.9219 17.2433 23.0548C17.2433 23.1766 17.2433 23.3095 17.2214 23.4313C17.2104 23.5531 17.1775 23.6527 17.1336 23.7635C17.0787 23.8631 16.9909 23.9407 16.8811 23.985C16.7933 24.0292 16.6945 24.0514 16.5958 24.0625C16.486 24.0625 16.3872 24.0625 16.2884 24.0403C16.1787 24.0071 16.1019 23.9407 16.0689 23.8299C16.025 23.7192 15.9921 23.6195 15.9811 23.5088L15.9811 22.5675C15.9811 22.4457 15.9811 22.3793 15.9702 22.3572L15.9702 19.6109C15.9702 19.3009 15.9921 19.0351 16.025 18.8247C16.0689 18.6032 16.1567 18.4261 16.3104 18.2932C16.3543 18.2489 16.4202 18.2267 16.497 18.2267C16.5738 18.2157 16.6506 18.2157 16.7384 18.2267C16.8153 18.2267 16.8921 18.26 16.958 18.2932C17.0238 18.3264 17.0787 18.3707 17.1116 18.4371C17.1336 18.5036 17.1665 18.57 17.1884 18.6586C17.2104 18.7472 17.2323 18.8136 17.2323 18.8801C17.2323 18.9908 17.2433 19.1015 17.2433 19.2234C17.2433 19.3341 17.2323 19.4448 17.2323 19.5556L17.2323 20.3307L17.1994 20.3086ZM23.7738 15.9345L23.7958 15.8681C23.7958 15.8681 23.8397 15.7574 23.8726 15.6909C23.9055 15.6245 23.9494 15.5691 24.0153 15.5137C24.0702 15.4584 24.136 15.4252 24.2128 15.403C24.5092 15.3587 24.7397 15.4141 24.8933 15.558C25.0031 15.6466 25.0689 15.7574 25.0909 15.8681C25.1128 15.9788 25.1238 16.0342 25.1238 16.0453L25.1238 21.9142C25.1238 22.2353 25.0689 22.49 24.9701 22.6672C24.8823 22.8444 24.7397 22.933 24.5641 22.933L22.9506 22.933C22.9506 22.933 22.8409 22.933 22.775 22.944L22.325 22.944C22.2592 22.944 22.1933 22.933 22.1494 22.933C21.9848 22.9219 21.8531 22.8444 21.7543 22.7004C21.6555 22.5565 21.6006 22.4014 21.6006 22.2243C21.6006 22.18 21.6006 22.1357 21.6116 22.0803C21.6116 22.0139 21.6116 21.9696 21.6336 21.9253C21.6665 21.8256 21.7214 21.737 21.7982 21.6817C21.8641 21.6152 21.9519 21.5709 22.0397 21.5377C22.1275 21.5045 22.2372 21.4823 22.347 21.4823C22.4458 21.4823 22.5445 21.4713 22.6214 21.4602L23.7409 21.4602C23.7409 21.4602 23.7628 21.3716 23.7738 21.2719C23.7738 21.1612 23.7848 20.9619 23.7848 20.674C23.7848 20.4193 23.7848 20.1978 23.7738 20.0096C23.7738 19.8102 23.7628 19.7106 23.7628 19.6995L23.7628 15.9345L23.7738 15.9345ZM19.2738 17.518C19.2628 17.7395 19.2519 17.9499 19.2409 18.1271C19.2299 18.3042 19.1421 18.4482 18.9884 18.5479C18.9116 18.5922 18.8128 18.6143 18.7031 18.6143C18.5933 18.6143 18.4836 18.6143 18.3958 18.5922C18.308 18.57 18.2421 18.5257 18.1872 18.4593C18.1214 18.3928 18.0775 18.2821 18.0336 18.1271C18.0336 18.0939 18.0226 18.0274 18.0226 17.9167C18.0226 17.8059 18.0116 17.6952 18.0006 17.5623C18.0006 17.4295 17.9897 17.3076 17.9897 17.1969C17.9897 17.0862 17.9787 17.0197 17.9787 16.9865L16.7494 16.9865C16.6616 16.9865 16.5738 16.9976 16.497 16.9976C16.4092 16.9976 16.3214 16.9754 16.2445 16.9533C16.1787 16.9422 16.1238 16.9201 16.0689 16.909C16.0141 16.8979 15.9592 16.8536 15.8933 16.7983C15.8165 16.7318 15.7616 16.6543 15.7287 16.5436C15.6958 16.4218 15.6848 16.2999 15.7067 16.1671C15.7506 15.9124 15.8384 15.7574 15.9921 15.6909C16.0799 15.6466 16.2006 15.6134 16.3433 15.6134C16.475 15.6023 16.5519 15.5913 16.5848 15.5913L21.3043 15.5913L21.3043 15.6023C21.3043 15.6023 21.3372 15.6023 21.3811 15.6134C21.425 15.6134 21.4909 15.6355 21.5567 15.6577C21.6226 15.6798 21.6884 15.7131 21.7543 15.7684C21.8201 15.8127 21.886 15.8792 21.9299 15.9567C21.9958 16.0674 22.0177 16.1781 22.0177 16.2889C22.0177 16.4218 21.9738 16.5546 21.886 16.6765C21.8201 16.765 21.7433 16.8315 21.6555 16.8758C21.5677 16.9201 21.4799 16.9533 21.4031 16.9644C21.3153 16.9754 21.2275 16.9865 21.1506 16.9976L19.2848 16.9976L19.2848 17.518L19.2738 17.518Z" fill="#009BCF"/>
    </g>
    <defs>
        <clipPath id="clip0_5344_86056">
            <rect y="170" width="170" height="270" rx="10" transform="rotate(-90 0 170)" fill="white"/>
        </clipPath>
    </defs>
</svg>
