<svg width="270" height="170" viewBox="0 0 270 170" fill="none" xmlns="http://www.w3.org/2000/svg">
    <g clip-path="url(#clip0_5344_86110)">
        <rect y="170" width="170" height="270" rx="10" transform="rotate(-90 0 170)" fill="#40A4FF"/>
        <path d="M131.105 35.8857C103.503 29.1974 90.5641 6.38601 90.8999 -15.0301C91.2468 -35.4274 104.992 -54.1527 126.975 -55.3929C134.766 -55.8469 163.51 -57.9288 176.169 -21.3863" fill="white"/>
        <path d="M178.922 -21.3865C178.922 -20.257 178.206 -19.2051 177.064 -18.8175C175.632 -18.3303 174.065 -19.0833 173.572 -20.5117C161.73 -54.7177 135.885 -53.2006 127.401 -52.7023L127.143 -52.7023C105.552 -51.4621 93.9556 -32.8033 93.6534 -14.9971C93.3624 4.33715 105.003 26.7499 131.755 33.2278C133.232 33.5822 134.139 35.055 133.769 36.5167C133.411 37.9784 131.923 38.8643 130.445 38.5099C101.13 31.4118 88.1464 7.05015 88.1464 -14.2552C88.1464 -14.5321 88.1464 -14.8089 88.1464 -15.0968C88.4933 -35.4166 101.88 -56.722 126.819 -58.1283L127.065 -58.1283C152.607 -59.6454 170.002 -47.5864 178.766 -22.2946C178.866 -22.0066 178.911 -21.7077 178.911 -21.4087L178.922 -21.3865Z" fill="#222222"/>
        <path d="M131.105 133.862C103.503 140.55 90.5641 163.362 90.8999 184.778C91.2468 205.175 104.992 223.889 126.975 225.141C134.766 225.595 163.51 227.677 176.169 191.134" fill="white"/>
        <path d="M178.922 191.146C178.922 191.433 178.878 191.732 178.777 192.031C170.013 217.312 152.619 229.371 127.065 227.876L126.807 227.876C101.88 226.448 88.4822 205.142 88.1464 184.834C88.1464 184.557 88.1464 184.28 88.1464 183.992C88.1464 162.687 101.142 138.325 130.445 131.227C131.923 130.873 133.411 131.759 133.769 133.22C134.128 134.693 133.232 136.155 131.755 136.509C105.003 142.987 93.3176 165.444 93.6534 184.734C93.9556 202.54 105.552 221.199 127.143 222.428L127.401 222.428C135.896 222.938 161.73 224.455 173.572 190.26C174.065 188.842 175.632 188.078 177.064 188.565C178.206 188.953 178.922 190.005 178.922 191.134L178.922 191.146Z" fill="#222222"/>
        <path d="M96.9219 88.5623C96.7652 78.2529 97.101 65.2747 98.9478 53.7583C102.854 27.8353 112.738 4.85786 131.117 -14.0113C162.827 -46.5342 215.457 -54.2634 255.897 -34.0211C273.359 -25.3727 286.052 -10.2242 294.323 7.06148C299.461 17.4263 309.143 45.3536 309.132 84.2436L309.132 85.0077C309.132 123.975 299.483 152.279 294.323 162.699C286.052 179.985 273.359 195.144 255.897 203.782C215.457 224.024 162.827 216.295 131.117 183.772C112.738 164.892 102.854 141.925 98.9478 116.002C97.1122 104.486 96.7764 91.5078 96.9219 81.1984" fill="white"/>
        <path d="M311.885 84.9738C311.885 132.091 298.33 160.772 296.786 163.883C287.484 183.317 273.762 197.968 257.117 206.195C215.099 227.246 161.26 218.597 129.136 185.654C111.238 167.283 100.481 144.627 96.2278 116.4C94.5265 105.737 94.1459 93.9101 94.1459 84.8742C94.1459 75.8271 94.5265 64.0117 96.2278 53.3369C100.481 25.1328 111.238 2.47642 129.136 -15.8945C161.26 -48.8381 215.099 -57.4865 257.14 -36.4469C273.773 -28.2193 287.484 -13.5691 296.808 5.89811C298.342 8.97654 311.885 37.6236 311.885 84.1987L311.885 84.9849L311.885 84.9738ZM99.6641 88.8163C99.7649 96.9775 100.246 106.7 101.668 115.57C105.753 142.667 116.028 164.348 133.109 181.878C163.599 213.149 214.729 221.344 254.666 201.356C270.202 193.671 283.063 179.896 291.85 161.536C297.267 150.617 306.401 122.258 306.401 85.007L306.401 84.2208C306.401 38.8417 293.35 11.2577 291.861 8.25677C283.052 -10.1363 270.202 -23.9117 254.677 -31.5967C214.718 -51.5954 163.599 -43.401 133.098 -12.1295C116.028 5.39981 105.742 27.0817 101.668 54.1563C100.246 63.0373 99.7649 72.7708 99.6641 80.932C99.6641 81.0317 99.6641 81.1313 99.6753 81.231C99.6529 82.3826 99.6417 83.6007 99.6417 84.8742C99.6417 86.1476 99.6529 87.3768 99.6753 88.5284C99.6753 88.6281 99.6753 88.7277 99.6641 88.8274L99.6641 88.8163Z" fill="#222222"/>
        <path d="M208.26 59.815C220.035 59.815 229.571 71.0325 229.571 84.8743C229.571 98.7162 220.024 109.934 208.26 109.934C196.496 109.934 186.948 98.7162 186.948 84.8743C186.948 71.0325 196.496 59.815 208.26 59.815Z" fill="#F1D4DA"/>
        <path d="M218.188 94.9182C218.188 98.7606 216.229 102.227 212.658 104.264C211.349 105.017 209.659 104.574 208.909 103.268C208.148 101.961 208.607 100.3 209.916 99.5579C213.005 97.7862 213.095 94.6413 212.155 92.2827C211.259 90.0458 209.189 87.9308 206.48 87.6761C205.663 87.7979 204.812 87.8754 203.905 87.8976C202.495 87.9308 201.297 86.901 201.118 85.5278C200.951 84.1437 201.835 82.8591 203.212 82.538C204.219 82.2944 205.215 82.1947 206.166 82.2169C210.286 81.4085 212.054 78.762 212.3 76.2926C212.535 73.8675 211.315 71.1102 208.528 70.5011C207.051 70.18 206.099 68.7294 206.435 67.2566C206.76 65.7949 208.226 64.8647 209.715 65.1859C214.942 66.3264 218.311 71.2209 217.774 76.813C217.483 79.7586 216.005 82.7484 213.274 84.8745C215.065 86.3251 216.453 88.2408 217.27 90.2673C217.897 91.8287 218.199 93.4011 218.199 94.9071L218.188 94.9182Z" fill="#222222"/>
        <path d="M194.19 76.4149C191.783 78.8954 191.739 83.8895 191.761 84.8751C191.739 85.8717 191.783 90.8548 194.19 93.3352C195.097 94.2654 196.216 94.7305 197.537 94.7305C202.876 94.7305 206.222 91.497 206.715 85.8495C206.715 85.8163 206.749 85.2737 206.749 84.72C206.749 84.4321 206.749 84.1332 206.715 83.8895C206.222 78.2531 202.876 75.0197 197.537 75.0197C196.216 75.0197 195.085 75.4958 194.19 76.4149Z" fill="#222222"/>
        <path d="M192.198 111.85C196.899 111.85 200.716 115.77 200.716 120.598C200.716 125.426 196.899 129.346 192.198 129.346C187.497 129.346 183.68 125.426 183.68 120.598C183.68 115.77 187.497 111.85 192.198 111.85Z" fill="#222222"/>
        <path d="M200.716 49.1524C200.716 44.3209 196.902 40.4043 192.198 40.4043C187.493 40.4043 183.68 44.3209 183.68 49.1524C183.68 53.9838 187.493 57.9004 192.198 57.9004C196.902 57.9004 200.716 53.9838 200.716 49.1524Z" fill="#222222"/>
        <path d="M117.618 84.3422C117.618 39.0295 105.932 31.7764 105.932 31.7764C62.1337 34.7773 58.9661 74.0992 58.8765 84.2315L58.8765 85.1838C58.8989 94.7845 61.6636 134.926 105.932 137.96C105.932 137.96 117.618 130.718 117.618 85.3942L117.618 84.3422Z" fill="#009BCC"/>
        <path d="M120.36 84.342L120.36 85.394C120.36 130.906 108.719 139.433 107.387 140.263C106.895 140.573 106.313 140.717 105.742 140.673C58.6526 137.45 56.1453 93.8874 56.1229 85.1947L56.1229 84.2313C56.1677 79.1707 56.9848 66.1262 63.5887 54.045C71.9164 38.819 86.098 30.4142 105.742 29.0743C106.324 29.03 106.895 29.174 107.387 29.484C108.719 30.3035 120.36 38.8411 120.36 84.3531L120.36 84.342ZM104.981 135.158C107.074 132.899 114.864 122.058 114.864 85.394L114.864 84.342C114.864 47.412 107.141 36.7925 105.003 34.5778C65.1334 37.9553 61.7083 73.3904 61.6187 84.2645L61.6187 85.2058C61.6411 96.1242 64.8871 131.77 104.981 135.169L104.981 135.158Z" fill="#222222"/>
        <path d="M107.768 88.0411C107.768 88.0411 94.4592 75.4837 83.2214 69.9138C83.2214 69.9138 82.5722 80.5443 82.8072 85.8042C82.8072 85.8042 70.215 81.9949 68.7039 81.3748C68.7039 81.3748 78.4531 90.5326 91.4931 99.8232C91.4931 99.8232 91.7169 90.4661 91.2804 83.1909L107.745 88.0411L107.768 88.0411Z" fill="#F5DD33"/>
        <path d="M109.145 88.0403C109.145 88.2729 109.089 88.5054 108.954 88.7158C108.641 89.2584 107.981 89.5131 107.376 89.3359L92.7691 85.0394C92.881 87.6528 92.937 90.6869 92.937 94.0865C92.937 97.486 92.881 99.8336 92.881 99.8557C92.8699 100.365 92.5788 100.819 92.1199 101.041C91.661 101.262 91.1237 101.218 90.7096 100.93C77.748 91.6946 67.8757 82.4482 67.7749 82.3596C67.2936 81.9056 67.2041 81.1859 67.5734 80.6322C67.9316 80.0785 68.6368 79.8681 69.2524 80.1117C70.2598 80.5214 77.2331 82.6697 81.3969 83.9432C81.3969 83.6331 81.3969 83.312 81.3969 82.9798C81.3969 77.4762 81.8558 69.902 81.867 69.8355C81.8894 69.3815 82.1469 68.9718 82.5498 68.7393C82.9528 68.5067 83.4341 68.4957 83.8482 68.706C95.1421 74.3092 108.182 86.5454 108.73 87.0659C109.01 87.3316 109.156 87.686 109.156 88.0514L109.145 88.0403ZM89.9261 83.1902C89.9261 82.7804 90.1164 82.3818 90.4521 82.1271C90.7991 81.8503 91.2692 81.7617 91.6946 81.8946L102.306 85.0173C97.9067 81.2523 90.9558 75.6934 84.475 72.1167C84.3407 74.7522 84.128 79.3366 84.128 82.9908C84.128 84.065 84.1504 84.9841 84.184 85.7481C84.2064 86.18 84.0049 86.6119 83.6579 86.8887C83.2998 87.1545 82.8408 87.243 82.4155 87.1102C81.7103 86.8998 77.9606 85.7592 74.4684 84.674C78.1509 87.8521 83.7027 92.4476 90.1723 97.187C90.1723 96.3122 90.1835 95.2602 90.1835 94.0975C90.1835 89.9339 90.094 86.1911 89.9261 83.2787C89.9261 83.2566 89.9261 83.2234 89.9261 83.2012L89.9261 83.1902Z" fill="#F5DD33"/>
        <path fill-rule="evenodd" clip-rule="evenodd" d="M8.95459 12.4501C8.95459 14.5984 10.7119 16.3369 12.8834 16.3369C13.5102 16.3369 14.0922 16.193 14.6183 15.9383C14.5735 15.0524 15.2227 14.2662 16.1294 14.1665L16.4316 14.1333C16.6778 13.6239 16.8121 13.0592 16.8121 12.4612C16.8121 10.3129 15.0548 8.5744 12.8834 8.5744C10.7119 8.5744 8.95459 10.3129 8.95459 12.4612L8.95459 12.4501ZM12.1222 10.8888L15.122 13.6239C15.2003 13.7014 15.122 13.8232 15.0213 13.79L12.7714 12.9595C12.7714 12.9595 12.6595 12.9595 12.6371 13.0259L12.4133 13.6904C12.3909 13.7568 12.3013 13.7789 12.2454 13.7346L10.3313 11.9075C10.253 11.83 10.3313 11.7082 10.4321 11.7414L11.585 12.129C11.6409 12.1511 11.7081 12.1179 11.7193 12.0515L11.9431 10.9441C11.9543 10.8666 12.0551 10.8445 12.111 10.8888L12.1222 10.8888Z" fill="#FCDD61"/>
        <path d="M23.0691 51.9607C23.0691 51.9607 23.0803 51.9164 23.0803 51.8942C23.0803 51.8721 23.0691 51.8499 23.0691 51.8278C23.0803 51.6949 23.1139 51.5731 23.1475 51.4624C23.1811 51.3406 23.237 51.2298 23.3378 51.1191C23.4497 51.0084 23.584 50.953 23.7519 50.953C23.8415 50.953 23.931 50.9641 24.0317 50.9973C24.1213 51.0194 24.1996 51.0526 24.2556 51.108C24.3228 51.1744 24.3675 51.252 24.4011 51.3406C24.4347 51.4291 24.4571 51.5288 24.4683 51.6063C24.4683 51.6949 24.4795 51.7724 24.4795 51.8389L24.4795 58.5051C24.4795 58.5051 24.4795 58.5826 24.4907 58.6269L24.4907 58.7487C24.4907 58.9148 24.4907 59.092 24.4907 59.2802C24.4795 59.4685 24.4123 59.6235 24.3004 59.7564C24.1549 59.9225 23.9758 60 23.7855 60C23.6624 60 23.5392 59.9668 23.4161 59.8893C23.293 59.8228 23.2035 59.7232 23.1587 59.6124C23.0915 59.4574 23.0691 59.2913 23.0691 59.1363C23.0691 58.9812 23.0691 58.793 23.0579 58.6158L23.0579 58.5604C23.0467 57.885 23.0467 57.1763 23.0579 56.4565L21.4573 56.4565L21.4573 56.7444L21.4349 57.0212C21.4237 57.2206 21.4237 57.442 21.4349 57.6746C21.4349 57.9071 21.4349 58.1286 21.4237 58.3168C21.4126 58.5162 21.3566 58.7044 21.2782 58.8816C21.1887 59.0477 21.032 59.1473 20.8193 59.1916C20.6066 59.2359 20.394 59.2581 20.1925 59.2691C19.991 59.2691 19.7896 59.2802 19.5993 59.2913L19.006 59.2913C18.8046 59.2913 18.5919 59.2802 18.368 59.2802L17.5397 59.2802C17.439 59.2802 17.3271 59.2802 17.1928 59.2913C17.0696 59.2913 16.9353 59.2913 16.8122 59.2691C16.6891 59.247 16.5659 59.2138 16.4652 59.1584C16.3645 59.1031 16.2861 59.0255 16.2301 58.9148C16.1742 58.793 16.1294 58.6601 16.0958 58.5162C16.0511 58.3722 16.0287 58.2172 16.0175 58.0732C16.0063 57.9182 15.9951 57.7632 15.9951 57.6192C15.9951 57.4642 15.9839 57.3202 15.9839 57.1873L15.9839 53.4113C15.9839 53.4113 15.9839 53.3559 15.9951 53.2673C15.9951 53.1787 16.0063 53.068 16.0287 52.9351C16.0399 52.8133 16.0734 52.6804 16.0958 52.5586C16.1182 52.4257 16.1518 52.315 16.2078 52.2375C16.2637 52.1489 16.3533 52.0714 16.4764 52.016C16.5995 51.9607 16.7226 51.9274 16.8458 51.8942C16.9689 51.861 17.092 51.8499 17.1928 51.8499C17.2823 51.8499 17.3383 51.8389 17.3495 51.8389L19.6329 51.8389C19.8119 51.8389 19.991 51.8388 20.1813 51.8499C20.3604 51.8499 20.5395 51.861 20.7298 51.8942C20.8417 51.9053 20.9536 51.9385 21.0656 51.9717C21.1775 52.016 21.2558 52.0825 21.3118 52.1932C21.379 52.3261 21.4126 52.5033 21.4237 52.7137C21.4237 52.924 21.4237 53.1012 21.4126 53.2452C21.4126 53.4113 21.4126 53.5774 21.4349 53.7324C21.4349 53.8985 21.4461 54.0646 21.4461 54.2196L21.4461 54.7955L23.0691 54.7733L23.0691 54.1975C23.0691 54.0314 23.0579 53.8764 23.0579 53.7324L23.0579 53.2673C23.0579 53.1123 23.0579 52.9351 23.0691 52.7247C23.0691 52.5808 23.0691 52.4479 23.0691 52.315C23.0579 52.1821 23.0579 52.0493 23.0691 51.9274L23.0691 51.9607ZM19.9574 54.1532C19.9463 54.0868 19.9351 54.0092 19.9463 53.9428C19.9463 53.8764 19.9463 53.7989 19.9127 53.7213C19.8903 53.677 19.8567 53.6438 19.8231 53.6106C19.7784 53.5885 19.7336 53.5774 19.6776 53.5774C19.6217 53.5774 19.5657 53.5774 19.5097 53.5774L18.0434 53.5774C17.9539 53.5774 17.8755 53.5995 17.8196 53.6328C17.7636 53.666 17.73 53.7324 17.6964 53.8321C17.6741 53.9317 17.6517 54.0868 17.6517 54.275L17.6517 56.6669C17.6517 56.6669 17.6517 56.7887 17.6629 56.8773C17.6629 56.9548 17.6629 57.0323 17.6741 57.1209C17.6741 57.2095 17.6852 57.2759 17.6964 57.3424C17.7076 57.442 17.7524 57.5306 17.8308 57.586C17.8979 57.6524 17.9875 57.6746 18.0882 57.6746L19.6776 57.6524C19.7672 57.6414 19.8455 57.5971 19.8903 57.5306C19.9351 57.4642 19.9574 57.3867 19.9686 57.2981C19.9798 57.2095 19.991 57.1209 19.991 57.0434C19.991 56.9548 19.9798 56.8662 19.9798 56.7998L19.9574 54.1421L19.9574 54.1532ZM19.2411 43.2458C19.2859 43.1573 19.3418 43.0908 19.4202 43.0354C19.4985 42.9801 19.5769 42.9468 19.6664 42.9247C19.8455 42.8804 20.0022 42.9247 20.1365 43.0465C20.282 43.1572 20.3828 43.2901 20.4611 43.4452C20.5283 43.6002 20.5731 43.7663 20.6066 43.9545C20.6402 44.1317 20.6514 44.3089 20.6514 44.4971L20.6514 46.9444C20.6514 47.2987 20.6514 47.6199 20.6626 47.9299L20.6626 48.9044C20.6626 49.0262 20.6626 49.1369 20.6402 49.2587C20.6178 49.3805 20.5955 49.4913 20.5731 49.602C20.5283 49.7127 20.4835 49.8124 20.4052 49.9121C20.338 50.0007 20.2485 50.0671 20.1365 50.1225C19.8567 50.2664 19.5769 50.3329 19.2747 50.3329C18.9613 50.3329 18.659 50.3218 18.3456 50.3218L17.5397 50.3218C17.5397 50.3218 17.4502 50.3218 17.3495 50.3329C17.2487 50.3329 17.1256 50.3439 16.9913 50.3439C16.857 50.3439 16.7226 50.3218 16.5771 50.3107C16.4316 50.2886 16.3197 50.2443 16.219 50.1778C16.1406 50.1335 16.0734 50.056 16.0287 49.9564C15.9839 49.8456 15.9503 49.746 15.9167 49.6352C15.8944 49.5245 15.872 49.4248 15.872 49.3473C15.872 49.2587 15.8608 49.2034 15.8608 49.1812L15.8608 44.3753C15.8608 44.3753 15.8608 44.3089 15.872 44.1871C15.872 44.0653 15.8832 43.9324 15.9167 43.7884C15.9391 43.6445 15.9839 43.5005 16.0511 43.3677C16.1182 43.2348 16.2078 43.1462 16.3309 43.113C16.3757 43.1019 16.4428 43.0908 16.51 43.0908C16.5771 43.0908 16.6443 43.0797 16.7115 43.0797C16.7786 43.0797 16.8458 43.0797 16.9129 43.1019C16.9801 43.1019 17.0249 43.124 17.0584 43.1351C17.1256 43.1683 17.1704 43.2237 17.2151 43.3012C17.2487 43.3787 17.2711 43.4562 17.2823 43.5227C17.2935 43.5891 17.3159 43.6777 17.3271 43.7884C17.3383 43.8992 17.3495 44.0321 17.3495 44.1871L17.3495 44.5525C17.3383 44.8626 17.3271 45.1505 17.3271 45.4162C17.3271 45.6709 17.3271 45.9367 17.3271 46.1914C17.3271 46.4461 17.3271 46.7229 17.3383 46.9998C17.3383 47.2766 17.3383 47.5977 17.3495 47.9521C17.3495 48.0185 17.3495 48.0849 17.3383 48.1625C17.3383 48.24 17.3383 48.3175 17.3383 48.395C17.3383 48.4725 17.3607 48.5389 17.383 48.5943C17.4054 48.6497 17.4502 48.6829 17.5174 48.7051C17.6517 48.7494 17.7748 48.7604 17.8979 48.7493C18.021 48.7493 18.1554 48.7493 18.3009 48.7493C18.3568 48.7493 18.4128 48.7494 18.48 48.7604L18.6814 48.7604C18.7486 48.7604 18.8046 48.7383 18.8605 48.7161C18.9165 48.694 18.9613 48.6497 19.006 48.5943C19.0508 48.5389 19.062 48.4614 19.062 48.3618L19.062 48.096C19.0732 47.8192 19.0844 47.5534 19.0844 47.2987C19.0844 47.044 19.0844 46.7672 19.062 46.4904C19.062 46.0806 19.0508 45.7041 19.0508 45.3609L19.0508 44.2314C19.0508 43.8549 19.118 43.5337 19.2411 43.2569L19.2411 43.2458ZM23.0915 49.8678C23.0915 50.045 23.0579 50.2221 23.0244 50.3882C22.9796 50.5433 22.8789 50.6761 22.711 50.7758C22.5766 50.8644 22.4311 50.9087 22.2856 50.9087C22.1289 50.9087 21.9946 50.8422 21.8827 50.7315C21.8155 50.6651 21.7707 50.5875 21.7372 50.499C21.7036 50.4104 21.6812 50.3107 21.67 50.2332C21.6588 50.1446 21.6476 50.0782 21.6476 50.0117L21.6476 43.5005C21.6476 43.3787 21.6476 43.2458 21.6476 43.1019C21.6476 42.9579 21.6812 42.814 21.726 42.6922C21.7707 42.5704 21.8379 42.4596 21.9386 42.371C22.0282 42.2824 22.1625 42.2382 22.3416 42.2382C22.5431 42.2382 22.6886 42.3046 22.7893 42.4375C22.8788 42.5704 22.9572 42.7254 23.002 42.9136C23.0467 43.0908 23.0691 43.2791 23.0691 43.4784L23.0691 44.4196C23.0691 44.5747 23.0803 44.7297 23.0803 44.8736C23.0803 45.0176 23.0691 45.1726 23.0691 45.3276L23.0691 45.7706C23.293 45.7706 23.528 45.7595 23.7855 45.7484C24.0317 45.7484 24.2444 45.7484 24.4235 45.7817C24.569 45.7927 24.7145 45.837 24.8488 45.9035C24.9943 45.9588 25.1063 46.0474 25.1958 46.1803C25.2742 46.3021 25.3189 46.435 25.3189 46.59C25.3189 46.745 25.2966 46.889 25.2294 47.0108C25.1622 47.1105 25.0727 47.188 24.9608 47.2434C24.8376 47.2877 24.7257 47.3209 24.6138 47.3319C24.5242 47.343 24.4347 47.3541 24.334 47.3541C24.2332 47.3541 24.1325 47.343 24.0541 47.343C23.9086 47.343 23.7631 47.3541 23.5952 47.3541L23.0803 47.3541L23.0803 47.642C23.0803 47.8635 23.0803 48.0628 23.0915 48.24C23.0915 48.4172 23.0915 48.5832 23.1027 48.7493L23.1027 49.8567L23.0915 49.8678ZM20.7634 40.9979C20.5395 41.308 20.2261 41.5294 19.8119 41.6623C19.6105 41.7398 19.409 41.7952 19.2187 41.8284C19.0284 41.8506 18.8381 41.8617 18.6367 41.8617C18.4352 41.8617 18.2449 41.8506 18.0658 41.8174C17.8867 41.7731 17.7076 41.7288 17.5285 41.6623C17.3606 41.5848 17.2039 41.5073 17.0696 41.4187C16.9241 41.3301 16.7898 41.2194 16.6779 41.0865C16.5436 40.9647 16.4316 40.8318 16.3309 40.6989C16.2413 40.555 16.1518 40.3999 16.0958 40.2228C16.0175 40.0677 15.9615 39.9017 15.9279 39.7134C15.8832 39.5252 15.872 39.3258 15.872 39.1265C15.8496 38.9826 15.8496 38.8497 15.872 38.7168C15.872 38.6503 15.872 38.5839 15.8832 38.5175C15.8832 38.44 15.9055 38.3735 15.9167 38.3071C15.9279 38.2738 15.9391 38.2406 15.9391 38.2185C15.9391 38.1742 15.9391 38.141 15.9615 38.0967C15.9615 38.0524 15.9615 38.0192 15.9839 37.9859C15.9839 37.9417 16.0063 37.9195 16.0175 37.8974C16.0399 37.8088 16.0734 37.7312 16.0958 37.6648C16.1182 37.5873 16.1518 37.5098 16.1854 37.4323C16.2525 37.2994 16.3197 37.1665 16.398 37.0336C16.4204 36.9893 16.454 36.934 16.51 36.8786C16.5547 36.8122 16.6107 36.7568 16.6667 36.7014C16.8122 36.5575 16.9577 36.4467 17.1032 36.3581C17.1816 36.3138 17.2599 36.2696 17.3495 36.2363C17.439 36.192 17.5285 36.1699 17.6293 36.1588C17.7188 36.1367 17.8084 36.1145 17.8979 36.1034L18.1554 36.0592C18.2449 36.0481 18.3345 36.037 18.4128 36.0259C18.5023 36.0259 18.5919 36.0259 18.6926 36.037C18.7374 36.037 18.7934 36.037 18.8605 36.0481C18.9165 36.0481 18.9725 36.0592 19.0172 36.0592C19.0844 36.0702 19.1404 36.0813 19.2075 36.0924C19.2747 36.0924 19.3306 36.1145 19.3754 36.1367C19.6888 36.181 19.9686 36.2806 20.2261 36.4246C20.3604 36.5132 20.4835 36.6128 20.5843 36.7125C20.685 36.8121 20.7857 36.934 20.8753 37.0668C20.9424 37.1665 20.9984 37.2662 21.0432 37.3769C21.088 37.4766 21.1215 37.5873 21.1551 37.698C21.1887 37.7977 21.2111 37.9084 21.2335 38.0192C21.2447 38.1188 21.267 38.2296 21.2894 38.3403C21.3006 38.3846 21.3118 38.4178 21.3118 38.4621L21.3118 38.6725C21.3118 38.6725 21.3118 38.7389 21.3342 38.7832L21.3342 39.1044C21.3342 39.1044 21.3342 39.1708 21.3118 39.2151L21.3118 39.3701C21.3118 39.3701 21.3118 39.4587 21.2894 39.5141C21.2894 39.5805 21.2894 39.6359 21.2782 39.6913C21.2782 39.7355 21.267 39.7909 21.267 39.8463C21.2335 40.0567 21.1775 40.256 21.0768 40.4553L20.9201 40.7654C20.8641 40.854 20.7969 40.9536 20.7186 41.0311L20.7634 40.9979ZM17.9875 33.4347C18.1442 33.4237 18.3121 33.4126 18.4688 33.4126L21.4237 33.4126C21.5804 33.4126 21.7372 33.4126 21.8827 33.4347L23.237 33.4347C23.3602 33.4458 23.4945 33.4569 23.6176 33.4458C23.7407 33.4458 23.8526 33.4347 23.9646 33.4347L24.1884 33.4347C24.2556 33.4347 24.3228 33.4347 24.3899 33.4569C24.513 33.4569 24.6138 33.479 24.7033 33.5344C24.7481 33.5455 24.7817 33.5676 24.8153 33.5787C24.8376 33.5898 24.8712 33.6119 24.9048 33.623C24.9272 33.6562 24.9608 33.6894 24.9832 33.7116C25.0167 33.7448 25.0391 33.7891 25.0615 33.8555C25.1175 33.922 25.151 34.0106 25.1734 34.0991C25.1958 34.1877 25.1846 34.2874 25.1734 34.3871C25.1399 34.5199 25.0951 34.6196 25.0167 34.675C24.972 34.7414 24.8936 34.7968 24.7705 34.8521C24.7145 34.8743 24.6586 34.8964 24.6138 34.9075C24.569 34.9186 24.513 34.9297 24.4571 34.9297C24.4123 34.9407 24.3787 34.9518 24.334 34.9629C24.2892 34.9629 24.2668 34.974 24.2444 34.974L24.1101 34.974L17.0808 34.9961L16.7674 34.9961C16.6667 34.9961 16.5547 34.974 16.4204 34.9518C16.2078 34.9297 16.0287 34.8632 15.8944 34.7414C15.816 34.6307 15.76 34.5421 15.7376 34.4867C15.7265 34.4314 15.7153 34.376 15.7153 34.3317L15.7153 34.1545C15.7153 34.0881 15.7153 34.0327 15.7376 33.9663C15.7488 33.8998 15.7824 33.8445 15.816 33.778C15.8944 33.6784 15.9951 33.6008 16.107 33.5566C16.1966 33.5123 16.2861 33.4901 16.3645 33.468C16.454 33.4458 16.5436 33.4347 16.6219 33.4347L16.9017 33.4347C16.9913 33.4347 17.092 33.4347 17.1704 33.4126L17.9427 33.4126L17.9875 33.4347ZM22.6774 36.0148C22.711 35.9152 22.7557 35.8266 22.8117 35.7491C22.89 35.6716 22.9684 35.6162 23.0467 35.5719C23.1251 35.5276 23.2146 35.5055 23.3042 35.5055C23.4385 35.5055 23.5616 35.5498 23.6624 35.6384C23.7631 35.7159 23.8303 35.8045 23.8638 35.8931C23.875 35.9374 23.8862 35.9706 23.8974 36.0148C23.9086 36.0591 23.9086 36.0924 23.9086 36.1367C23.9198 36.181 23.931 36.2253 23.931 36.2696L23.931 37.9084C23.931 38.0413 23.931 38.1853 23.9534 38.3292L23.9534 39.1486C23.9422 39.2926 23.931 39.4144 23.931 39.5252L23.931 41.0865C23.931 41.164 23.931 41.2415 23.9198 41.308C23.9198 41.3744 23.8974 41.4519 23.8862 41.5295C23.875 41.5737 23.8638 41.607 23.8526 41.6513C23.8415 41.6845 23.8191 41.7177 23.8079 41.762C23.7855 41.8284 23.7519 41.8949 23.6959 41.9613C23.64 42.0056 23.584 42.0499 23.5169 42.0831C23.4497 42.1053 23.3602 42.1163 23.2594 42.1163C23.1139 42.1163 22.9796 42.061 22.8565 41.9613C22.7893 41.917 22.7333 41.8395 22.711 41.7399C22.6998 41.6956 22.6886 41.6513 22.6774 41.5959C22.6662 41.5516 22.6438 41.5073 22.6326 41.463C22.6214 41.4076 22.6102 41.3633 22.6102 41.3301L22.6102 36.5796C22.6102 36.5132 22.6102 36.4467 22.6326 36.3803C22.6326 36.3138 22.6326 36.2585 22.6438 36.2031C22.6438 36.1477 22.6662 36.0924 22.6774 36.0259L22.6774 36.0148ZM18.424 40.3114C18.5695 40.3335 18.7374 40.3335 18.8941 40.3114C19.0844 40.2671 19.2411 40.2228 19.353 40.1563C19.5993 40.0013 19.7784 39.7688 19.9015 39.4698C19.9463 39.3591 19.9686 39.2483 19.9798 39.1376C19.991 39.0158 20.0022 38.905 20.0022 38.7943C19.991 38.7279 19.9798 38.6725 19.9798 38.6171C19.9798 38.5618 19.9798 38.5064 19.9574 38.4399C19.9574 38.3846 19.9463 38.3292 19.9239 38.2849L19.8567 38.1188C19.7896 37.9749 19.6664 37.842 19.4985 37.7423C19.409 37.687 19.3306 37.6537 19.2523 37.6205C19.1739 37.5984 19.0956 37.5762 19.006 37.5541C18.8717 37.5209 18.7486 37.5098 18.6255 37.5319C18.5023 37.5319 18.3792 37.5651 18.2449 37.5984C18.1889 37.6094 18.133 37.6427 18.0882 37.6648C18.0322 37.687 17.9875 37.7091 17.9427 37.7312C17.9203 37.7534 17.8979 37.7755 17.8755 37.7866C17.842 37.7977 17.8196 37.8309 17.8084 37.8531C17.7524 37.8752 17.6964 37.9195 17.6517 37.997C17.6069 38.0635 17.5845 38.1188 17.5621 38.1853C17.5397 38.2185 17.5174 38.2517 17.5062 38.296C17.495 38.3292 17.4726 38.3624 17.4614 38.4067C17.4166 38.606 17.3942 38.8164 17.3942 39.0268C17.3942 39.1265 17.3942 39.2262 17.4166 39.3148C17.4278 39.4033 17.4614 39.503 17.495 39.5805C17.5397 39.6691 17.5845 39.7466 17.6405 39.8241C17.6852 39.9016 17.7524 39.9681 17.842 40.0345C17.9203 40.101 18.0098 40.1453 18.1106 40.1896C18.2001 40.2228 18.3121 40.256 18.4352 40.2781L18.424 40.3114ZM23.7071 32.1613C23.4161 32.1613 23.1699 32.0838 22.9796 31.9288C22.7781 31.7626 22.6326 31.5412 22.5207 31.2754C22.4087 30.9986 22.3304 30.6664 22.2856 30.2788C22.2296 29.8912 22.1961 29.4815 22.1737 29.0386C22.0729 29.0386 21.9722 29.0386 21.8939 29.0275C21.8043 29.0275 21.6924 29.0164 21.5693 29.0164L21.5693 29.7251C21.5693 30.002 21.5581 30.3009 21.5581 30.5999C21.5581 30.91 21.5469 31.1979 21.5357 31.4747C21.5357 31.7516 21.5133 31.9841 21.5021 32.1391C21.4909 32.2609 21.4685 32.3606 21.4573 32.4492C21.4349 32.5156 21.379 32.6042 21.2782 32.7039C21.1887 32.8036 21.0432 32.8589 20.8641 32.8589C20.6962 32.8589 20.5619 32.8036 20.4611 32.7039C20.394 32.6485 20.3492 32.571 20.3156 32.4824C20.282 32.3938 20.2597 32.2942 20.2485 32.2167C20.2373 32.1281 20.2261 32.0616 20.2261 31.9952L20.2261 24.8196C20.2261 24.6978 20.2261 24.587 20.2373 24.4763C20.2373 24.3656 20.2597 24.2659 20.282 24.1552C20.3044 24.0444 20.3604 23.9448 20.4388 23.8673C20.5059 23.7787 20.5731 23.7344 20.6514 23.7233C20.7298 23.7122 20.8193 23.7011 20.9089 23.7011C21.1551 23.7011 21.323 23.823 21.4014 24.0776C21.4685 24.2327 21.5021 24.4099 21.5245 24.5981C21.5245 24.7753 21.5357 24.9525 21.5469 25.1186C21.5581 25.5061 21.5693 25.8937 21.5804 26.2591C21.5804 26.6245 21.5916 27.0121 21.5916 27.4108C21.7036 27.4108 21.8043 27.4218 21.8827 27.4329C21.961 27.4329 22.0618 27.4329 22.1625 27.444C22.1625 27.0232 22.1961 26.6356 22.2408 26.2702C22.2856 25.9159 22.3528 25.6058 22.4647 25.34C22.5654 25.0743 22.7221 24.8639 22.9124 24.7199C23.1139 24.576 23.3713 24.4984 23.6848 24.4984C24.0541 24.4984 24.3451 24.5981 24.5466 24.8085C24.7481 25.0078 24.9048 25.2847 24.9943 25.639C25.0951 25.9823 25.1622 26.392 25.1846 26.8571C25.207 27.3222 25.2182 27.8094 25.2182 28.3409C25.2182 28.8725 25.207 29.3708 25.1846 29.8469C25.1622 30.312 25.0951 30.7107 24.9943 31.0539C24.9048 31.3972 24.7481 31.6741 24.5466 31.8734C24.3451 32.0727 24.0541 32.1834 23.6848 32.1834L23.7071 32.1613ZM18.133 25.5172C18.2001 25.3732 18.2785 25.2293 18.368 25.0853C18.4576 24.9414 18.5583 24.8085 18.659 24.6867C18.715 24.6202 18.7822 24.576 18.8717 24.5538C18.9613 24.5317 19.0508 24.5317 19.1292 24.5538C19.2075 24.5649 19.2859 24.6092 19.353 24.6756C19.4202 24.731 19.4538 24.8085 19.4761 24.8971C19.5321 25.1518 19.5321 25.4065 19.4761 25.6833C19.409 25.9491 19.3306 26.1927 19.2299 26.4252C19.1404 26.6356 19.0396 26.8349 18.9613 27.0121C18.8717 27.1893 18.7822 27.3665 18.6814 27.5547C18.6479 27.6101 18.6143 27.6876 18.5583 27.7762L18.4128 28.0309C18.3568 28.1305 18.3009 28.2413 18.2449 28.3631C18.3121 28.496 18.368 28.6288 18.424 28.7507L18.5695 29.0829C18.6143 29.1825 18.659 29.2711 18.6926 29.3265C18.8046 29.5258 18.8941 29.714 18.9725 29.8912C19.0396 30.0684 19.1292 30.2456 19.2187 30.456C19.2859 30.611 19.353 30.7771 19.4426 30.9321C19.5209 31.0872 19.5545 31.2533 19.5321 31.4415C19.5321 31.5855 19.4873 31.7183 19.4202 31.8512C19.353 31.9841 19.2411 32.0616 19.0844 32.0948C19.006 32.0948 18.9165 32.0948 18.8158 32.0727C18.7038 32.0395 18.6143 31.9952 18.5359 31.9177C18.4576 31.8402 18.3904 31.7405 18.3233 31.6408L17.9203 30.8325C17.8531 30.6996 17.786 30.5778 17.7412 30.4781C17.6964 30.3785 17.6405 30.2567 17.5733 30.1127C17.5285 30.0463 17.495 29.9798 17.4502 29.9023C17.4054 29.8248 17.3718 29.7473 17.3271 29.6587L17.3271 30.4006C17.3271 30.5224 17.3271 30.6332 17.3383 30.7328C17.3383 30.8214 17.3383 30.9211 17.3159 31.0429C17.3047 31.1315 17.2935 31.22 17.2935 31.3197C17.2935 31.4194 17.2711 31.519 17.2375 31.5965C17.1928 31.6851 17.1144 31.7516 17.0137 31.8069C16.9353 31.8512 16.8458 31.8844 16.7562 31.8844C16.6555 31.8844 16.5547 31.8845 16.4764 31.8402C16.3533 31.7737 16.2525 31.6741 16.1966 31.5301C16.1294 31.3862 16.107 31.2422 16.107 31.0982L16.107 30.8325C16.107 30.7107 16.1182 30.6221 16.1182 30.5667C16.1182 30.5003 16.107 30.4117 16.107 30.2899L16.107 29.249L15.7488 29.249C15.5138 29.249 15.3459 29.1493 15.2675 28.9389C15.178 28.7396 15.1444 28.5181 15.178 28.2856C15.2004 28.0752 15.2452 27.9091 15.3235 27.8094C15.3907 27.6876 15.5026 27.6322 15.6593 27.6212C15.7153 27.6212 15.7824 27.6101 15.872 27.6101C15.9503 27.6101 16.0287 27.599 16.1182 27.599L16.1182 26.237C16.1182 26.1152 16.1182 25.9712 16.107 25.8051C16.107 25.639 16.107 25.484 16.1406 25.34C16.163 25.185 16.219 25.0521 16.2973 24.9303C16.3757 24.8085 16.4988 24.7199 16.6667 24.6867C16.857 24.6424 17.0025 24.6756 17.1032 24.7974C17.2039 24.9082 17.2823 25.0521 17.3271 25.2293C17.3718 25.4065 17.3942 25.5836 17.3942 25.783C17.3942 25.9823 17.3942 26.1373 17.383 26.2591C17.383 26.3809 17.3718 26.5138 17.3718 26.6578L17.3718 27.0453L17.4166 26.9789C17.4166 26.9789 17.439 26.9235 17.4502 26.9014C17.495 26.8239 17.5285 26.7464 17.5733 26.6799C17.6069 26.6024 17.6405 26.5249 17.6852 26.4474C17.7524 26.3034 17.8308 26.1595 17.9091 26.0155L18.1442 25.5726L18.133 25.5172ZM23.7071 26.0377C23.584 26.0377 23.4945 26.1041 23.4385 26.2481C23.3825 26.3809 23.349 26.5581 23.3266 26.7907C23.3154 27.0121 23.3042 27.2557 23.3154 27.5326C23.3154 27.8094 23.3266 28.0752 23.3266 28.3409C23.3266 28.6067 23.3266 28.8725 23.3154 29.1382C23.3154 29.404 23.3154 29.6476 23.3266 29.858C23.3378 30.0684 23.3825 30.2456 23.4385 30.3785C23.4945 30.5003 23.584 30.5667 23.7071 30.5667C23.8191 30.5667 23.8974 30.5003 23.9534 30.3785C24.0094 30.2456 24.0429 30.0684 24.0765 29.858C24.0877 29.6476 24.0989 29.404 24.0989 29.1382C24.0989 28.8725 24.0877 28.6067 24.0877 28.3409C24.0877 28.0752 24.0877 27.8094 24.1101 27.5326C24.1213 27.2557 24.1325 27.0121 24.1213 26.7907C24.1101 26.5692 24.0653 26.3809 24.0094 26.2481C23.9534 26.1041 23.8526 26.0377 23.6959 26.0377L23.7071 26.0377ZM17.148 19.914L18.1442 19.914C18.2673 19.914 18.3456 19.914 18.3568 19.914C18.4016 19.8697 18.4688 19.8033 18.5583 19.7036C18.6479 19.604 18.715 19.5154 18.7822 19.4489C18.8493 19.3714 18.9165 19.2939 18.9948 19.2164C19.062 19.1278 19.1404 19.0392 19.2299 18.9617C19.2859 18.9063 19.3418 18.851 19.3978 18.8067C19.4426 18.7624 19.4873 18.7181 19.5321 18.6738C19.6776 18.5298 19.8455 18.3748 20.0134 18.2309C20.1925 18.0869 20.3604 17.9762 20.5507 17.9208C20.6178 17.8986 20.6962 17.8987 20.7857 17.9097C20.8753 17.9208 20.9424 17.9762 21.0096 18.0648C21.088 18.1976 21.1327 18.3416 21.1327 18.4856C21.1327 18.6627 21.0991 18.8177 21.0208 18.9728C20.9536 19.1278 20.8753 19.2496 20.8081 19.3493C20.6962 19.4932 20.5843 19.6372 20.4611 19.759L20.0806 20.1355L19.7896 20.4234C19.6664 20.5341 19.5657 20.6449 19.4761 20.7556L19.8007 21.0767L19.9686 21.2428C19.9686 21.2428 20.0694 21.3536 20.1253 21.3979C20.2373 21.4975 20.3492 21.6083 20.4723 21.719C20.5843 21.8297 20.685 21.9515 20.7969 22.0955C21.032 22.4166 21.1551 22.7156 21.1551 23.0035L21.1551 23.1143C21.1551 23.1143 21.1551 23.1696 21.1327 23.2028C21.088 23.38 21.0208 23.4908 20.9201 23.5461C20.8305 23.6015 20.7298 23.6236 20.629 23.6015C20.5171 23.5793 20.4164 23.5461 20.338 23.4908C20.2485 23.4243 20.1701 23.3579 20.0918 23.2804L19.8343 23.0478C19.756 22.9814 19.644 22.8706 19.4985 22.7156C19.353 22.5606 19.1963 22.4056 19.0508 22.2505C18.8941 22.0955 18.7486 21.9515 18.6255 21.8187C18.5023 21.6858 18.424 21.6083 18.3904 21.575L17.1816 21.575L17.1816 22.328C17.1816 22.4166 17.1816 22.5274 17.1928 22.6602C17.1928 22.7821 17.1928 22.9149 17.1704 23.0368C17.1592 23.1586 17.1256 23.2582 17.0808 23.3689C17.0249 23.4686 16.9353 23.5461 16.8234 23.5904C16.7338 23.6347 16.6331 23.6569 16.5324 23.6679C16.4204 23.6679 16.3197 23.6679 16.219 23.6458C16.107 23.6126 16.0287 23.5461 15.9951 23.4354C15.9503 23.3247 15.9167 23.225 15.9055 23.1143L15.9055 22.173C15.9055 22.0512 15.9055 21.9848 15.8944 21.9626L15.8944 19.2164C15.8944 18.9063 15.9167 18.6406 15.9503 18.4302C15.9951 18.2087 16.0846 18.0315 16.2413 17.8987C16.2861 17.8544 16.3533 17.8322 16.4316 17.8322C16.51 17.8211 16.5883 17.8211 16.6779 17.8322C16.7562 17.8322 16.8346 17.8654 16.9017 17.8987C16.9689 17.9319 17.0249 17.9762 17.0584 18.0426C17.0808 18.109 17.1144 18.1755 17.1368 18.2641C17.1592 18.3527 17.1816 18.4191 17.1816 18.4856C17.1816 18.5963 17.1928 18.707 17.1928 18.8288C17.1928 18.9396 17.1816 19.0503 17.1816 19.161L17.1816 19.9362L17.148 19.914ZM23.8526 15.54L23.875 15.4736C23.875 15.4736 23.9198 15.3628 23.9534 15.2964C23.987 15.2299 24.0317 15.1746 24.0989 15.1192C24.1549 15.0638 24.222 15.0306 24.3004 15.0085C24.6026 14.9642 24.8376 15.0196 24.9943 15.1635C25.1063 15.2521 25.1734 15.3628 25.1958 15.4736C25.2182 15.5843 25.2294 15.6397 25.2294 15.6507L25.2294 21.5197C25.2294 21.8408 25.1734 22.0955 25.0727 22.2727C24.9832 22.4499 24.8376 22.5384 24.6586 22.5384L23.0132 22.5384C23.0132 22.5384 22.9012 22.5384 22.8341 22.5495L22.3752 22.5495C22.308 22.5495 22.2408 22.5384 22.1961 22.5384C22.0282 22.5274 21.8939 22.4499 21.7931 22.3059C21.6924 22.1619 21.6364 22.0069 21.6364 21.8297C21.6364 21.7854 21.6364 21.7412 21.6476 21.6858C21.6476 21.6193 21.6476 21.5751 21.67 21.5308C21.7036 21.4311 21.7595 21.3425 21.8379 21.2871C21.905 21.2207 21.9946 21.1764 22.0841 21.1432C22.1737 21.11 22.2856 21.0878 22.3975 21.0878C22.4983 21.0878 22.599 21.0767 22.6774 21.0657L23.8191 21.0657C23.8191 21.0657 23.8415 20.9771 23.8526 20.8774C23.8526 20.7667 23.8638 20.5674 23.8638 20.2794C23.8638 20.0248 23.8638 19.8033 23.8526 19.615C23.8526 19.4157 23.8415 19.3161 23.8415 19.305L23.8415 15.54L23.8526 15.54ZM19.2635 17.1235C19.2523 17.345 19.2411 17.5554 19.2299 17.7325C19.2187 17.9097 19.1292 18.0537 18.9725 18.1533C18.8941 18.1976 18.7934 18.2198 18.6814 18.2198C18.5695 18.2198 18.4576 18.2198 18.368 18.1976C18.2785 18.1755 18.2113 18.1312 18.1554 18.0648C18.0882 17.9983 18.0434 17.8876 17.9987 17.7325C17.9987 17.6993 17.9875 17.6329 17.9875 17.5221C17.9875 17.4114 17.9763 17.3007 17.9651 17.1678C17.9651 17.0349 17.9539 16.9131 17.9539 16.8024C17.9539 16.6916 17.9427 16.6252 17.9427 16.592L16.6891 16.592C16.5995 16.592 16.51 16.6031 16.4316 16.6031C16.3421 16.6031 16.2525 16.5809 16.1742 16.5588C16.107 16.5477 16.0511 16.5256 15.9951 16.5145C15.9391 16.5034 15.8832 16.4591 15.816 16.4037C15.7376 16.3373 15.6817 16.2598 15.6481 16.149C15.6145 16.0272 15.6033 15.9054 15.6257 15.7725C15.6705 15.5178 15.76 15.3628 15.9167 15.2964C16.0063 15.2521 16.1294 15.2189 16.2749 15.2189C16.4092 15.2078 16.4876 15.1967 16.5212 15.1967L21.3342 15.1967L21.3342 15.2078C21.3342 15.2078 21.3678 15.2078 21.4126 15.2189C21.4573 15.2189 21.5245 15.241 21.5916 15.2632C21.6588 15.2853 21.726 15.3185 21.7931 15.3739C21.8603 15.4182 21.9274 15.4846 21.9722 15.5622C22.0394 15.6729 22.0618 15.7836 22.0618 15.8943C22.0618 16.0272 22.017 16.1601 21.9274 16.2819C21.8603 16.3705 21.7819 16.4369 21.6924 16.4812C21.6028 16.5255 21.5133 16.5588 21.4349 16.5698C21.3454 16.5809 21.2558 16.592 21.1775 16.603L19.2747 16.6031L19.2747 17.1235L19.2635 17.1235Z" fill="white"/>
    </g>
    <defs>
        <clipPath id="clip0_5344_86110">
            <rect y="170" width="170" height="270" rx="10" transform="rotate(-90 0 170)" fill="white"/>
        </clipPath>
    </defs>
</svg>
