<svg width="270" height="170" viewBox="0 0 270 170" fill="none" xmlns="http://www.w3.org/2000/svg">
    <g clip-path="url(#clip0_5349_86423)">
        <path d="M270.422 164.054C270.426 164.054 270.428 164.056 270.428 164.059C270.425 167.345 267.729 170 264.417 170H6.4388C3.11445 170 0.428101 167.32 0.428101 164.042V5.95753C0.428101 2.66871 3.12564 0 6.4388 0H264.406C267.719 0.0110735 270.417 2.67978 270.417 5.95753V164.048C270.417 164.051 270.419 164.054 270.422 164.054Z" fill="white" stroke="#F2F2F2" stroke-miterlimit="10"/>
        <path d="M41.3231 23.6797L37.8109 33.9576L39.7426 34.4601L48.4902 9.05469H73.2951V64.7805H53.9341V46.0159L48.1939 64.7805H35.2865L29.5463 46.0159V64.7805H9.98776V9.05469H36.7353L41.3231 23.6797Z" fill="#E94E64"/>
        <path d="M65.0086 36.9504C65.0086 17.9019 76.4781 7.98438 92.0415 7.98438C107.605 7.98438 119.151 17.9019 119.151 36.9504C119.151 55.999 107.682 65.9165 92.0415 65.9165C76.4012 65.9165 65.0086 56.0645 65.0086 36.9504ZM83.722 34.0232L82.4268 35.9456C87.8817 38.5123 95.1915 39.1567 102.007 39.1567V37.016C95.1915 37.016 88.672 36.164 83.722 34.0232Z" fill="#009BCF"/>
        <path d="M92.1841 7.98384C107.813 7.98384 119.294 17.9013 119.294 36.9499C119.294 55.9984 107.824 65.9159 92.1841 65.9159C76.5439 65.9159 65.1512 56.064 65.1512 36.9499C65.1512 17.8358 76.6207 7.98384 92.1841 7.98384ZM92.1841 6.8916C74.8317 6.8916 64.0536 18.4147 64.0536 36.9499C64.0536 55.4851 74.8317 67.0082 92.1841 67.0082C109.537 67.0082 120.391 55.4851 120.391 36.9499C120.391 18.4147 109.58 6.8916 92.1841 6.8916Z" fill="white"/>
        <path d="M29.4914 127.605H9.98778V71.8789H28.9866C49.8512 71.8789 60.5414 78.5852 60.5414 100.211C60.5414 122.187 50.4988 127.616 29.4914 127.616V127.605ZM23.6085 96.203L22.3134 98.1253C29.1951 100.343 38.6671 101.336 46.1853 101.336V99.1957C38.6561 99.1957 29.9853 97.9833 23.5975 96.203H23.6085Z" fill="#4EB250"/>
        <path d="M62.956 99.7746V71.8789H88.9134V106.699H91.4268V71.8789H117.099V99.7746C117.099 118.823 105.629 128.741 89.989 128.741C74.3487 128.741 62.956 118.889 62.956 99.7746Z" fill="#5F67AE"/>
        <path d="M10.6353 146.239H15.8488V147.561H12.2488V149.44H15.5854V150.761H12.2488V152.64H15.8597V153.961H10.6353V146.239Z" fill="#181818"/>
        <path d="M20.3488 152.137H20.4256L22.3244 146.25H24.1024L21.4244 153.972H19.361L16.6719 146.25H18.4719L20.3597 152.137H20.3488Z" fill="#181818"/>
        <path d="M27.5049 146.238H30.5451C32.3122 146.238 33.3219 147.32 33.3219 148.838C33.3219 150.356 32.2902 151.437 30.5012 151.437H29.1073V153.95H27.5049V146.228V146.238ZM30.2488 150.149C31.2036 150.149 31.6646 149.613 31.6646 148.838C31.6646 148.073 31.2036 147.549 30.2488 147.549H29.1073V150.149H30.2488Z" fill="#181818"/>
        <path d="M36.0548 150.565C36.4719 150.543 37.2512 150.499 37.5036 150.488V150.019C37.5036 149.538 37.1633 149.254 36.5707 149.254C36.0329 149.254 35.6926 149.495 35.6048 149.899H34.0902C34.189 148.894 35.067 148.107 36.6036 148.107C37.8768 148.107 39.0731 148.675 39.0731 150.073V153.973H37.5694V153.175H37.5255C37.2402 153.711 36.6804 154.082 35.8243 154.082C34.7048 154.082 33.8926 153.503 33.8816 152.356C33.8816 151.067 34.9243 150.641 36.0438 150.576L36.0548 150.565ZM36.2853 152.99C37.0097 152.99 37.5146 152.52 37.5036 151.897V151.471C37.2621 151.471 36.5816 151.515 36.3182 151.537C35.7694 151.581 35.4182 151.843 35.4182 152.291C35.4182 152.738 35.7804 152.968 36.2853 152.968V152.99Z" fill="#181818"/>
        <path d="M40.2037 156.113V154.89C40.4122 154.901 40.6537 154.912 40.8513 154.912C41.1696 154.912 41.422 154.879 41.6086 154.377L41.7074 154.136L39.622 148.184H41.2793L42.4976 152.454H42.5635L43.7927 148.184H45.472L43.2 154.617C42.8708 155.545 42.2342 156.146 41.0049 156.157C40.6976 156.157 40.4013 156.157 40.2037 156.124V156.113Z" fill="#181818"/>
        <path d="M46.2402 148.172H47.7548V149.188H47.8206C48.0621 148.511 48.6548 148.096 49.4341 148.096C50.2133 148.096 50.828 148.522 51.0255 149.188H51.0804C51.3219 148.533 51.9914 148.096 52.8365 148.096C53.9121 148.096 54.6694 148.806 54.6694 150.073V153.961H53.078V150.378C53.078 149.712 52.6828 149.395 52.167 149.395C51.5743 149.395 51.2231 149.811 51.2231 150.422V153.961H49.6755V150.335C49.6755 149.767 49.3133 149.395 48.7755 149.395C48.2377 149.395 47.8206 149.832 47.8206 150.488V153.961H46.2292V148.172H46.2402Z" fill="#181818"/>
        <path d="M55.6573 151.1C55.6573 149.309 56.7658 148.107 58.467 148.107C59.9926 148.107 61.2 149.069 61.2 151.046V151.493H57.2268C57.2268 152.367 57.7426 152.902 58.5658 152.913C59.1036 152.913 59.4878 152.673 59.6524 152.323H61.167C60.9365 153.394 59.9817 154.093 58.5439 154.093C56.7548 154.093 55.6683 152.946 55.6683 151.111L55.6573 151.1ZM59.6963 150.488C59.6963 149.789 59.2024 149.276 58.5 149.287C57.7756 149.287 57.2597 149.822 57.2268 150.488H59.7073H59.6963Z" fill="#181818"/>
        <path d="M63.7793 153.961H62.1878V148.172H63.7024V149.188H63.7683C64.0317 148.522 64.6573 148.096 65.5134 148.096C66.7317 148.096 67.5219 148.926 67.5219 150.269V153.961H65.9415V150.553C65.9415 149.843 65.5463 149.417 64.8878 149.417C64.2293 149.417 63.7683 149.865 63.7683 150.619V153.972L63.7793 153.961Z" fill="#181818"/>
        <path d="M71.8133 149.362H70.7157V152.191C70.7157 152.65 70.9462 152.77 71.2645 152.781C71.4292 152.781 71.7035 152.77 71.9011 152.748V153.994C71.7255 154.015 71.4511 154.048 71.056 154.048C69.9145 154.048 69.1243 153.546 69.1352 152.421V149.373H68.334V148.194H69.1352V146.807H70.7267V148.194H71.8243V149.373L71.8133 149.362Z" fill="#181818"/>
        <path d="M75.3805 146.238H78.4207C80.1878 146.238 81.1975 147.32 81.1975 148.838C81.1975 150.356 80.1658 151.437 78.3768 151.437H76.9829V153.95H75.3805V146.228V146.238ZM78.1244 150.149C79.0792 150.149 79.5402 149.613 79.5402 148.838C79.5402 148.073 79.0792 147.549 78.1244 147.549H76.9829V150.149H78.1244Z" fill="#181818"/>
        <path d="M83.7658 153.961H82.1743V146.239H83.7658V153.961Z" fill="#181818"/>
        <path d="M86.8829 150.565C87.3 150.543 88.0793 150.499 88.3317 150.488V150.019C88.3317 149.538 87.9915 149.254 87.3988 149.254C86.861 149.254 86.5207 149.495 86.4329 149.899H84.9183C85.0171 148.894 85.8951 148.107 87.4317 148.107C88.7049 148.107 89.9012 148.675 89.9012 150.073V153.973H88.3976V153.175H88.3537C88.0683 153.711 87.5085 154.082 86.6524 154.082C85.5329 154.082 84.7207 153.503 84.7098 152.356C84.7098 151.067 85.7524 150.641 86.872 150.576L86.8829 150.565ZM87.1134 152.99C87.8378 152.99 88.3427 152.52 88.3317 151.897V151.471C88.0903 151.471 87.4098 151.515 87.1463 151.537C86.5976 151.581 86.2463 151.843 86.2463 152.291C86.2463 152.738 86.6085 152.968 87.1134 152.968V152.99Z" fill="#181818"/>
        <path d="M94.1926 149.362H93.095V152.191C93.095 152.65 93.3255 152.77 93.6438 152.781C93.8084 152.781 94.0828 152.77 94.2804 152.748V153.994C94.1048 154.015 93.8194 154.048 93.4352 154.048C92.2938 154.048 91.5035 153.546 91.5145 152.421V149.373H90.7133V148.194H91.5145V146.807H93.106V148.194H94.2035V149.373L94.1926 149.362Z" fill="#181818"/>
        <path d="M98.2865 149.363H97.1341V153.972H95.5426V149.363H94.7195V148.183H95.5426V147.746C95.5426 146.523 96.278 145.89 97.4524 145.89C97.8146 145.89 98.1219 145.922 98.3963 145.988V147.178C98.1658 147.157 98.0012 147.157 97.9134 147.146C97.4085 147.146 97.1341 147.342 97.1341 147.823V148.172H98.2865V149.352V149.363Z" fill="#181818"/>
        <path d="M98.7696 151.089C98.7696 149.298 99.8671 148.107 101.623 148.107C103.379 148.107 104.477 149.309 104.488 151.089C104.488 152.88 103.39 154.082 101.623 154.082C99.8671 154.082 98.7696 152.88 98.7696 151.089ZM101.634 152.859C102.446 152.859 102.874 152.105 102.863 151.089C102.863 150.073 102.435 149.309 101.634 149.309C100.833 149.309 100.383 150.073 100.383 151.089C100.383 152.105 100.811 152.859 101.634 152.859Z" fill="#181818"/>
        <path d="M105.476 148.172H107.012V149.177H107.078C107.287 148.467 107.824 148.085 108.483 148.085C108.648 148.085 108.845 148.107 108.988 148.14V149.549C108.834 149.505 108.527 149.461 108.307 149.461C107.594 149.461 107.056 149.953 107.067 150.663V153.961H105.476V148.172Z" fill="#181818"/>
        <path d="M109.756 148.172H111.271V149.188H111.337C111.578 148.511 112.171 148.096 112.95 148.096C113.729 148.096 114.344 148.522 114.542 149.188H114.596C114.838 148.533 115.507 148.096 116.352 148.096C117.428 148.096 118.185 148.806 118.185 150.073V153.961H116.594V150.378C116.594 149.712 116.199 149.395 115.683 149.395C115.09 149.395 114.739 149.811 114.739 150.422V153.961H113.192V150.335C113.192 149.767 112.829 149.395 112.292 149.395C111.754 149.395 111.337 149.832 111.337 150.488V153.961H109.745V148.172H109.756Z" fill="#181818"/>
        <path d="M201.315 147.714C201.315 146.381 202.017 145.486 203.17 145.475C204.333 145.475 205.002 146.381 205.013 147.714C205.013 149.079 204.311 149.975 203.17 149.964C201.995 149.975 201.304 149.079 201.315 147.714ZM203.17 149.297C203.839 149.297 204.223 148.686 204.223 147.714C204.223 146.742 203.861 146.152 203.17 146.163C202.5 146.163 202.105 146.763 202.105 147.714C202.105 148.686 202.489 149.297 203.17 149.297ZM208.877 145.628H209.755L203.06 155.327H202.171L208.877 145.628ZM208.855 150.969C210.007 150.969 210.699 151.864 210.699 153.208C210.699 154.551 209.996 155.469 208.855 155.458C207.691 155.458 206.989 154.562 207 153.208C207 151.864 207.713 150.969 208.855 150.969ZM208.855 154.77C209.524 154.77 209.909 154.169 209.909 153.197C209.909 152.225 209.546 151.624 208.855 151.646C208.185 151.646 207.79 152.246 207.79 153.197C207.79 154.147 208.174 154.77 208.855 154.77Z" fill="#181818"/>
        <path d="M128.437 -7.64551H127.998V174.67H128.437V-7.64551Z" fill="#181818"/>
        <path d="M221.685 32.0127H221.246V174.68H221.685V32.0127Z" fill="#181818"/>
        <path d="M272.184 57.1895H221.466V57.6263H272.184V57.1895Z" fill="#181818"/>
        <path d="M190.888 -7.64551H190.449V32.0135H190.888V-7.64551Z" fill="#181818"/>
        <path d="M190.811 134.694H190.372V174.353H190.811V134.694Z" fill="#181818"/>
        <path d="M158.148 158.571C158.148 158.571 163.273 153.219 165.556 148.697C165.556 148.697 161.221 148.435 159.069 148.533C159.069 148.533 160.628 143.465 160.88 142.864C160.88 142.864 157.138 146.785 153.34 152.028C153.34 152.028 157.16 152.115 160.134 151.941L158.158 158.56L158.148 158.571Z" fill="#F5DD33"/>
        <path d="M175.566 158.571C175.566 158.571 180.692 153.219 182.974 148.697C182.974 148.697 178.639 148.435 176.488 148.533C176.488 148.533 178.046 143.465 178.299 142.864C178.299 142.864 174.556 146.785 170.759 152.028C170.759 152.028 174.578 152.115 177.553 151.941L175.577 158.56L175.566 158.571Z" fill="#F5DD33"/>
        <path d="M140.729 158.571C140.729 158.571 145.855 153.219 148.138 148.697C148.138 148.697 143.802 148.435 141.651 148.533C141.651 148.533 143.21 143.465 143.462 142.864C143.462 142.864 139.719 146.785 135.922 152.028C135.922 152.028 139.741 152.115 142.716 151.941L140.74 158.56L140.729 158.571Z" fill="#F5DD33"/>
        <path d="M221.74 134.804H-6.58537V135.241H221.74V134.804Z" fill="#181818"/>
        <path d="M272.184 31.7949H128.217V32.2318H272.184V31.7949Z" fill="#181818"/>
        <path fill-rule="evenodd" clip-rule="evenodd" d="M260.056 7.42676C257.927 7.42676 256.204 9.14156 256.204 11.2605C256.204 11.8721 256.346 12.4401 256.599 12.9535C257.477 12.9098 258.256 13.5433 258.355 14.428L258.388 14.7229C258.893 14.9632 259.452 15.0942 260.045 15.0942C262.174 15.0942 263.898 13.3794 263.898 11.2605C263.898 9.14156 262.174 7.42676 260.045 7.42676H260.056ZM261.604 10.5178L258.893 13.445C258.816 13.5214 258.695 13.445 258.728 13.3467L259.551 11.1513C259.551 11.1513 259.551 11.0421 259.485 11.0202L258.827 10.8018C258.761 10.7799 258.739 10.6925 258.783 10.6379L260.594 8.77021C260.671 8.69375 260.791 8.77021 260.759 8.86851L260.374 9.99351C260.352 10.0481 260.385 10.1137 260.451 10.1246L261.549 10.343C261.626 10.3539 261.648 10.4522 261.604 10.5069V10.5178Z" fill="#FCDD61"/>
        <path d="M220.895 21.2C220.895 21.2 220.939 21.2109 220.961 21.2109C220.983 21.2109 221.005 21.2 221.027 21.2C221.159 21.2109 221.279 21.2437 221.389 21.2765C221.51 21.3092 221.62 21.3639 221.729 21.4622C221.839 21.5714 221.894 21.7024 221.894 21.8663C221.894 21.9537 221.883 22.041 221.85 22.1393C221.828 22.2267 221.795 22.3032 221.74 22.3578C221.674 22.4233 221.598 22.467 221.51 22.4998C221.422 22.5325 221.323 22.5544 221.246 22.5653C221.159 22.5653 221.082 22.5762 221.016 22.5762H214.409C214.409 22.5762 214.332 22.5762 214.288 22.5872H214.167C214.002 22.5872 213.827 22.5872 213.64 22.5872C213.454 22.5762 213.3 22.5107 213.168 22.4015C213.004 22.2595 212.927 22.0847 212.927 21.899C212.927 21.7789 212.96 21.6588 213.037 21.5386C213.102 21.4185 213.201 21.3311 213.311 21.2874C213.465 21.2219 213.629 21.2 213.783 21.2C213.937 21.2 214.123 21.2 214.299 21.1891H214.354C215.023 21.1782 215.726 21.1782 216.439 21.1891V19.6272H216.154L215.879 19.6054C215.682 19.5944 215.462 19.5944 215.232 19.6054C215.001 19.6054 214.782 19.6054 214.595 19.5944C214.398 19.5835 214.211 19.5289 214.035 19.4524C213.871 19.3651 213.772 19.2122 213.728 19.0046C213.684 18.7971 213.662 18.5896 213.651 18.393C213.651 18.1964 213.64 17.9998 213.629 17.8141V17.2352C213.629 17.0386 213.64 16.8311 213.64 16.6126V15.8044C213.64 15.7061 213.64 15.5969 213.629 15.4658C213.629 15.3456 213.629 15.2146 213.651 15.0944C213.673 14.9743 213.706 14.8541 213.761 14.7558C213.816 14.6575 213.893 14.5811 214.002 14.5265C214.123 14.4719 214.255 14.4282 214.398 14.3954C214.54 14.3517 214.694 14.3299 214.837 14.3189C214.99 14.308 215.144 14.2971 215.287 14.2971C215.44 14.2971 215.583 14.2862 215.715 14.2862H219.457C219.457 14.2862 219.512 14.2862 219.6 14.2971C219.688 14.2971 219.798 14.308 219.929 14.3299C220.05 14.3408 220.182 14.3736 220.302 14.3954C220.434 14.4172 220.544 14.45 220.621 14.5046C220.709 14.5592 220.785 14.6466 220.84 14.7668C220.895 14.8869 220.928 15.0071 220.961 15.1272C220.994 15.2473 221.005 15.3675 221.005 15.4658C221.005 15.5532 221.016 15.6078 221.016 15.6187V17.8469C221.016 18.0216 221.016 18.1964 221.005 18.3821C221.005 18.5568 220.994 18.7316 220.961 18.9172C220.95 19.0265 220.917 19.1357 220.884 19.2449C220.84 19.3541 220.774 19.4306 220.665 19.4852C220.533 19.5507 220.357 19.5835 220.149 19.5944C219.94 19.5944 219.765 19.5944 219.622 19.5835C219.457 19.5835 219.293 19.5835 219.139 19.6054C218.974 19.6054 218.81 19.6163 218.656 19.6163H218.085L218.107 21.2H218.678C218.843 21.2 218.996 21.1891 219.139 21.1891H219.6C219.754 21.1891 219.929 21.1891 220.138 21.2C220.281 21.2 220.412 21.2 220.544 21.2C220.676 21.1891 220.807 21.1891 220.928 21.2H220.895ZM218.722 18.1636C218.788 18.1527 218.865 18.1418 218.93 18.1527C218.996 18.1527 219.073 18.1527 219.15 18.1199C219.194 18.0981 219.227 18.0653 219.26 18.0325C219.282 17.9888 219.293 17.9452 219.293 17.8905C219.293 17.8359 219.293 17.7813 219.293 17.7267V16.2959C219.293 16.2085 219.271 16.1321 219.238 16.0774C219.205 16.0228 219.139 15.9901 219.04 15.9573C218.941 15.9355 218.788 15.9136 218.601 15.9136H216.231C216.231 15.9136 216.11 15.9136 216.022 15.9245C215.945 15.9245 215.868 15.9245 215.78 15.9355C215.693 15.9355 215.627 15.9464 215.561 15.9573C215.462 15.9682 215.374 16.0119 215.32 16.0884C215.254 16.1539 215.232 16.2413 215.232 16.3396L215.254 17.8905C215.265 17.9779 215.309 18.0544 215.374 18.0981C215.44 18.1418 215.517 18.1636 215.605 18.1745C215.693 18.1855 215.781 18.1964 215.857 18.1964C215.945 18.1964 216.033 18.1855 216.099 18.1855L218.733 18.1636H218.722ZM229.533 17.4646C229.621 17.5083 229.687 17.5629 229.741 17.6393C229.796 17.7158 229.829 17.7922 229.851 17.8796C229.895 18.0544 229.851 18.2073 229.731 18.3384C229.621 18.4804 229.489 18.5787 229.335 18.6551C229.182 18.7206 229.017 18.7643 228.83 18.7971C228.655 18.8299 228.479 18.8408 228.293 18.8408H225.867C225.516 18.8408 225.198 18.8408 224.89 18.8517H223.924C223.804 18.8517 223.694 18.8517 223.573 18.8299C223.452 18.808 223.343 18.7862 223.233 18.7643C223.123 18.7206 223.024 18.677 222.926 18.6005C222.838 18.535 222.772 18.4476 222.717 18.3384C222.574 18.0653 222.509 17.7922 222.509 17.4973C222.509 17.1915 222.52 16.8966 222.52 16.5908V15.8044C222.52 15.8044 222.52 15.717 222.509 15.6187C222.509 15.5204 222.498 15.4003 222.498 15.2692C222.498 15.1381 222.52 15.0071 222.53 14.8651C222.552 14.7231 222.596 14.6138 222.662 14.5155C222.706 14.4391 222.783 14.3736 222.882 14.3299C222.991 14.2862 223.09 14.2534 223.2 14.2206C223.31 14.1988 223.409 14.177 223.485 14.177C223.573 14.177 223.628 14.166 223.65 14.166H228.413C228.413 14.166 228.479 14.166 228.6 14.177C228.721 14.177 228.852 14.1879 228.995 14.2206C229.138 14.2425 229.28 14.2862 229.412 14.3517C229.544 14.4172 229.632 14.5046 229.665 14.6248C229.676 14.6685 229.687 14.734 229.687 14.7995C229.687 14.8651 229.698 14.9306 229.698 14.9961C229.698 15.0617 229.698 15.1272 229.676 15.1927C229.676 15.2583 229.654 15.302 229.643 15.3347C229.61 15.4003 229.555 15.4439 229.478 15.4876C229.401 15.5204 229.324 15.5422 229.259 15.5532C229.193 15.5641 229.105 15.5859 228.995 15.5969C228.885 15.6078 228.754 15.6187 228.6 15.6187H228.238C227.931 15.6078 227.645 15.5969 227.382 15.5969C227.129 15.5969 226.866 15.5969 226.613 15.5969C226.361 15.5969 226.087 15.5969 225.812 15.6078C225.538 15.6078 225.22 15.6078 224.868 15.6187C224.802 15.6187 224.737 15.6187 224.66 15.6078C224.583 15.6078 224.506 15.6078 224.429 15.6078C224.352 15.6078 224.287 15.6296 224.232 15.6515C224.177 15.6733 224.144 15.717 224.122 15.7825C224.078 15.9136 224.067 16.0338 224.078 16.1539C224.078 16.274 224.078 16.4051 224.078 16.5471C224.078 16.6017 224.078 16.6563 224.067 16.7219V16.9185C224.067 16.984 224.089 17.0386 224.111 17.0932C224.133 17.1478 224.177 17.1915 224.232 17.2352C224.287 17.2789 224.363 17.2898 224.462 17.2898H224.726C225 17.3007 225.263 17.3117 225.516 17.3117C225.768 17.3117 226.043 17.3117 226.317 17.2898C226.723 17.2898 227.096 17.2789 227.437 17.2789H228.556C228.929 17.2789 229.248 17.3444 229.522 17.4646H229.533ZM222.97 21.2219C222.794 21.2219 222.618 21.1891 222.454 21.1563C222.3 21.1126 222.168 21.0143 222.07 20.8505C221.982 20.7194 221.938 20.5774 221.938 20.4355C221.938 20.2825 222.004 20.1515 222.113 20.0422C222.179 19.9767 222.256 19.933 222.344 19.9003C222.432 19.8675 222.531 19.8456 222.607 19.8347C222.695 19.8238 222.761 19.8129 222.827 19.8129H229.281C229.401 19.8129 229.533 19.8129 229.676 19.8129C229.818 19.8129 229.961 19.8456 230.082 19.8893C230.202 19.933 230.312 19.9986 230.4 20.0969C230.488 20.1842 230.532 20.3153 230.532 20.4901C230.532 20.6867 230.466 20.8287 230.334 20.927C230.202 21.0143 230.049 21.0908 229.862 21.1345C229.687 21.1782 229.5 21.2 229.302 21.2H228.37C228.216 21.2 228.062 21.2109 227.92 21.2109C227.777 21.2109 227.623 21.2 227.47 21.2H227.03C227.03 21.4185 227.041 21.6478 227.052 21.899C227.052 22.1393 227.052 22.3469 227.02 22.5216C227.009 22.6636 226.965 22.8056 226.899 22.9367C226.844 23.0787 226.756 23.1879 226.624 23.2753C226.504 23.3517 226.372 23.3954 226.218 23.3954C226.065 23.3954 225.922 23.3736 225.801 23.308C225.702 23.2425 225.626 23.1551 225.571 23.0459C225.527 22.9257 225.494 22.8165 225.483 22.7073C225.472 22.6199 225.461 22.5325 225.461 22.4342C225.461 22.3359 225.472 22.2376 225.472 22.1612C225.472 22.0192 225.461 21.8772 225.461 21.7134V21.2109H225.176C224.956 21.2109 224.759 21.2109 224.583 21.2219C224.407 21.2219 224.243 21.2219 224.078 21.2328H222.98L222.97 21.2219ZM231.761 18.95C231.454 18.7316 231.234 18.4257 231.102 18.0216C231.026 17.825 230.971 17.6284 230.938 17.4427C230.916 17.2571 230.905 17.0714 230.905 16.8748C230.905 16.6782 230.916 16.4925 230.949 16.3177C230.993 16.143 231.037 15.9682 231.102 15.7935C231.179 15.6296 231.256 15.4767 231.344 15.3456C231.432 15.2037 231.541 15.0726 231.673 14.9634C231.794 14.8323 231.926 14.7231 232.057 14.6248C232.2 14.5374 232.354 14.45 232.529 14.3954C232.683 14.3189 232.848 14.2643 233.034 14.2316C233.221 14.1879 233.418 14.177 233.616 14.177C233.759 14.1551 233.89 14.1551 234.022 14.177C234.088 14.177 234.154 14.177 234.22 14.1879C234.296 14.1879 234.362 14.2097 234.428 14.2206C234.461 14.2316 234.494 14.2425 234.516 14.2425C234.56 14.2425 234.593 14.2425 234.637 14.2643C234.68 14.2643 234.713 14.2643 234.746 14.2862C234.79 14.2862 234.812 14.308 234.834 14.3189C234.922 14.3408 234.999 14.3736 235.065 14.3954C235.141 14.4172 235.218 14.45 235.295 14.4828C235.427 14.5483 235.559 14.6138 235.69 14.6903C235.734 14.7121 235.789 14.7449 235.844 14.7995C235.91 14.8432 235.965 14.8978 236.02 14.9524C236.162 15.0944 236.272 15.2364 236.36 15.3784C236.404 15.4549 236.448 15.5313 236.481 15.6187C236.524 15.7061 236.546 15.7935 236.557 15.8918C236.579 15.9791 236.601 16.0665 236.612 16.1539L236.656 16.4051C236.667 16.4925 236.678 16.5799 236.689 16.6563C236.689 16.7437 236.689 16.8311 236.678 16.9294C236.678 16.9731 236.678 17.0277 236.667 17.0932C236.667 17.1478 236.656 17.2024 236.656 17.2461C236.645 17.3117 236.634 17.3663 236.623 17.4318C236.623 17.4973 236.601 17.552 236.579 17.5956C236.535 17.9015 236.437 18.1745 236.294 18.4257C236.206 18.5568 236.107 18.677 236.009 18.7753C235.91 18.8736 235.789 18.9719 235.657 19.0592C235.559 19.1248 235.46 19.1794 235.35 19.2231C235.251 19.2668 235.141 19.2995 235.032 19.3323C234.933 19.3651 234.823 19.3869 234.713 19.4088C234.615 19.4197 234.505 19.4415 234.395 19.4634C234.351 19.4743 234.318 19.4852 234.274 19.4852H234.066C234.066 19.4852 234 19.4852 233.956 19.5071H233.638C233.638 19.5071 233.572 19.5071 233.528 19.4852H233.374C233.374 19.4852 233.287 19.4852 233.232 19.4634C233.166 19.4634 233.111 19.4634 233.056 19.4524C233.012 19.4524 232.957 19.4415 232.902 19.4415C232.694 19.4088 232.496 19.3541 232.299 19.2558L231.991 19.1029C231.904 19.0483 231.805 18.9828 231.728 18.9063L231.761 18.95ZM239.257 16.2413C239.268 16.3942 239.279 16.558 239.279 16.7109V19.5944C239.279 19.7473 239.279 19.9003 239.257 20.0422V21.3639C239.246 21.484 239.235 21.6151 239.246 21.7352C239.246 21.8554 239.257 21.9646 239.257 22.0738V22.2923C239.257 22.3578 239.257 22.4233 239.235 22.4889C239.235 22.609 239.213 22.7073 239.159 22.7947C239.148 22.8384 239.126 22.8711 239.115 22.9039C239.104 22.9257 239.082 22.9585 239.071 22.9913C239.038 23.0131 239.005 23.0459 238.983 23.0677C238.95 23.1005 238.906 23.1224 238.84 23.1442C238.774 23.1988 238.687 23.2316 238.599 23.2534C238.511 23.2753 238.412 23.2643 238.313 23.2534C238.182 23.2207 238.083 23.177 238.028 23.1005C237.962 23.0568 237.907 22.9804 237.852 22.8602C237.831 22.8056 237.809 22.751 237.798 22.7073C237.787 22.6636 237.776 22.609 237.776 22.5544C237.765 22.5107 237.754 22.4779 237.743 22.4342C237.743 22.3906 237.732 22.3687 237.732 22.3469V22.2158L237.71 15.3566V15.0507C237.71 14.9524 237.732 14.8432 237.754 14.7121C237.776 14.5046 237.841 14.3299 237.962 14.1988C238.072 14.1223 238.16 14.0677 238.215 14.0459C238.27 14.035 238.324 14.024 238.368 14.024H238.544C238.61 14.024 238.665 14.024 238.731 14.0459C238.796 14.0568 238.851 14.0896 238.917 14.1223C239.016 14.1988 239.093 14.2971 239.137 14.4063C239.18 14.4937 239.202 14.5811 239.224 14.6575C239.246 14.7449 239.257 14.8323 239.257 14.9087V15.1818C239.257 15.2692 239.257 15.3675 239.279 15.4439V16.1976L239.257 16.2413ZM236.7 20.8177C236.799 20.8505 236.887 20.8942 236.963 20.9488C237.04 21.0253 237.095 21.1017 237.139 21.1782C237.183 21.2546 237.205 21.342 237.205 21.4294C237.205 21.5605 237.161 21.6806 237.073 21.7789C236.996 21.8772 236.909 21.9427 236.821 21.9755C236.777 21.9864 236.744 21.9973 236.7 22.0083C236.656 22.0192 236.623 22.0192 236.579 22.0192C236.535 22.0301 236.491 22.041 236.448 22.041H234.823C234.691 22.041 234.549 22.041 234.406 22.0629H233.594C233.451 22.052 233.33 22.041 233.221 22.041H231.673C231.596 22.041 231.52 22.041 231.454 22.0301C231.388 22.0301 231.311 22.0083 231.234 21.9973C231.19 21.9864 231.157 21.9755 231.113 21.9646C231.081 21.9537 231.048 21.9318 231.004 21.9209C230.938 21.899 230.872 21.8663 230.806 21.8117C230.762 21.7571 230.718 21.7024 230.685 21.6369C230.663 21.5714 230.652 21.484 230.652 21.3857C230.652 21.2437 230.707 21.1126 230.806 20.9925C230.85 20.927 230.927 20.8723 231.026 20.8505C231.07 20.8396 231.113 20.8287 231.168 20.8177C231.212 20.8068 231.256 20.785 231.3 20.774C231.355 20.7631 231.399 20.7522 231.432 20.7522H236.14C236.206 20.7522 236.272 20.7522 236.338 20.774C236.404 20.774 236.459 20.774 236.513 20.785C236.568 20.785 236.623 20.8068 236.689 20.8177H236.7ZM232.441 16.6672C232.42 16.8092 232.42 16.9731 232.441 17.126C232.485 17.3117 232.529 17.4646 232.595 17.5738C232.749 17.8141 232.979 17.9888 233.276 18.109C233.385 18.1527 233.495 18.1745 233.605 18.1855C233.726 18.1964 233.835 18.2073 233.945 18.2073C234.011 18.1964 234.066 18.1855 234.121 18.1855C234.176 18.1855 234.23 18.1855 234.296 18.1636C234.351 18.1636 234.406 18.1527 234.45 18.1308L234.615 18.0653C234.757 17.9998 234.889 17.8796 234.988 17.7158C235.043 17.6284 235.076 17.552 235.109 17.4755C235.131 17.399 235.152 17.3226 235.174 17.2352C235.207 17.1041 235.218 16.984 235.196 16.8638C235.196 16.7437 235.163 16.6236 235.131 16.4925C235.12 16.4379 235.087 16.3833 235.065 16.3396C235.043 16.285 235.021 16.2413 234.999 16.1976C234.977 16.1757 234.955 16.1539 234.944 16.1321C234.933 16.0993 234.9 16.0774 234.878 16.0665C234.856 16.0119 234.812 15.9573 234.735 15.9136C234.67 15.8699 234.615 15.8481 234.549 15.8262C234.516 15.8044 234.483 15.7825 234.439 15.7716C234.406 15.7607 234.373 15.7388 234.329 15.7279C234.132 15.6842 233.923 15.6624 233.715 15.6624C233.616 15.6624 233.517 15.6624 233.429 15.6842C233.341 15.6952 233.243 15.7279 233.166 15.7607C233.078 15.8044 233.001 15.8481 232.924 15.9027C232.848 15.9464 232.782 16.0119 232.716 16.0993C232.65 16.1757 232.606 16.2631 232.562 16.3614C232.529 16.4488 232.496 16.558 232.474 16.6782L232.441 16.6672ZM240.52 21.8226C240.52 21.5386 240.596 21.2983 240.75 21.1126C240.915 20.916 241.134 20.774 241.398 20.6648C241.672 20.5556 242.001 20.4791 242.385 20.4355C242.77 20.3808 243.176 20.3481 243.615 20.3262C243.615 20.2279 243.615 20.1296 243.626 20.0532C243.626 19.9658 243.637 19.8566 243.637 19.7364H242.934C242.66 19.7364 242.363 19.7255 242.067 19.7255C241.76 19.7255 241.474 19.7146 241.2 19.7037C240.926 19.7037 240.695 19.6818 240.541 19.6709C240.421 19.66 240.322 19.6381 240.234 19.6272C240.168 19.6054 240.081 19.5507 239.982 19.4524C239.883 19.3651 239.828 19.2231 239.828 19.0483C239.828 18.8845 239.883 18.7534 239.982 18.6551C240.037 18.5896 240.113 18.5459 240.201 18.5131C240.289 18.4804 240.388 18.4585 240.465 18.4476C240.552 18.4367 240.618 18.4257 240.684 18.4257H247.796C247.917 18.4257 248.027 18.4257 248.137 18.4367C248.246 18.4367 248.345 18.4585 248.455 18.4804C248.565 18.5022 248.663 18.5568 248.74 18.6333C248.828 18.6988 248.872 18.7643 248.883 18.8408C248.894 18.9172 248.905 19.0046 248.905 19.092C248.905 19.3323 248.784 19.4961 248.532 19.5726C248.378 19.6381 248.202 19.6709 248.016 19.6927C247.84 19.6927 247.665 19.7037 247.5 19.7146C247.116 19.7255 246.732 19.7364 246.37 19.7473C246.007 19.7473 245.623 19.7583 245.228 19.7583C245.228 19.8675 245.217 19.9658 245.206 20.0422C245.206 20.1187 245.206 20.217 245.195 20.3153C245.612 20.3153 245.996 20.3481 246.359 20.3918C246.71 20.4355 247.017 20.501 247.28 20.6102C247.544 20.7085 247.752 20.8614 247.895 21.0471C248.038 21.2437 248.115 21.4949 248.115 21.8007C248.115 22.1612 248.016 22.4452 247.807 22.6418C247.61 22.8384 247.335 22.9913 246.984 23.0787C246.644 23.177 246.238 23.2425 245.777 23.2643C245.316 23.2862 244.833 23.2971 244.306 23.2971C243.779 23.2971 243.285 23.2862 242.813 23.2643C242.352 23.2425 241.957 23.177 241.617 23.0787C241.277 22.9913 241.002 22.8384 240.805 22.6418C240.607 22.4452 240.498 22.1612 240.498 21.8007L240.52 21.8226ZM247.105 16.3833C247.248 16.4488 247.39 16.5253 247.533 16.6126C247.676 16.7 247.807 16.7983 247.928 16.8966C247.994 16.9512 248.038 17.0168 248.06 17.1041C248.082 17.1915 248.082 17.2789 248.06 17.3554C248.049 17.4318 248.005 17.5083 247.939 17.5738C247.884 17.6393 247.807 17.6721 247.72 17.6939C247.467 17.7486 247.215 17.7486 246.94 17.6939C246.677 17.6284 246.435 17.552 246.205 17.4537C245.996 17.3663 245.799 17.268 245.623 17.1915C245.448 17.1041 245.272 17.0168 245.085 16.9185C245.03 16.8857 244.954 16.8529 244.866 16.7983L244.613 16.6563C244.515 16.6017 244.405 16.5471 244.284 16.4925C244.152 16.558 244.021 16.6126 243.9 16.6672L243.571 16.8092C243.472 16.8529 243.384 16.8966 243.329 16.9294C243.132 17.0386 242.945 17.126 242.77 17.2024C242.594 17.268 242.418 17.3554 242.21 17.4427C242.056 17.5083 241.891 17.5738 241.738 17.6612C241.584 17.7376 241.42 17.7704 241.233 17.7486C241.09 17.7486 240.959 17.7049 240.827 17.6393C240.695 17.5738 240.618 17.4646 240.585 17.3117C240.585 17.2352 240.585 17.1478 240.607 17.0495C240.64 16.9403 240.684 16.8529 240.761 16.7765C240.838 16.7 240.937 16.6345 241.035 16.5689L241.837 16.1757C241.968 16.1102 242.089 16.0447 242.188 16.001C242.287 15.9573 242.407 15.9027 242.55 15.8371C242.616 15.7935 242.682 15.7607 242.759 15.717C242.835 15.6733 242.912 15.6405 243 15.5969H242.265C242.144 15.5969 242.034 15.5969 241.935 15.6078C241.848 15.6078 241.749 15.6078 241.628 15.5859C241.54 15.575 241.452 15.5641 241.354 15.5641C241.255 15.5641 241.156 15.5422 241.079 15.5095C240.991 15.4658 240.926 15.3893 240.871 15.291C240.827 15.2146 240.794 15.1272 240.794 15.0398C240.794 14.9415 240.794 14.8432 240.838 14.7668C240.904 14.6466 241.002 14.5483 241.145 14.4937C241.288 14.4282 241.431 14.4063 241.573 14.4063H241.837C241.957 14.4063 242.045 14.4172 242.1 14.4172C242.166 14.4172 242.254 14.4063 242.374 14.4063H243.406V14.0568C243.406 13.8274 243.505 13.6636 243.713 13.5871C243.911 13.4998 244.13 13.467 244.361 13.4998C244.57 13.5216 244.734 13.5653 244.833 13.6418C244.954 13.7073 245.009 13.8165 245.02 13.9694C245.02 14.024 245.03 14.0896 245.03 14.177C245.03 14.2534 245.041 14.3299 245.041 14.4172H246.391C246.512 14.4172 246.655 14.4172 246.82 14.4063C246.984 14.4063 247.138 14.4063 247.28 14.4391C247.434 14.4609 247.566 14.5155 247.687 14.592C247.807 14.6685 247.895 14.7886 247.928 14.9524C247.972 15.1381 247.939 15.2801 247.818 15.3784C247.709 15.4767 247.566 15.5532 247.39 15.5969C247.215 15.6405 247.039 15.6624 246.841 15.6624C246.644 15.6624 246.49 15.6624 246.37 15.6515C246.249 15.6515 246.117 15.6405 245.974 15.6405H245.59L245.656 15.6842C245.656 15.6842 245.711 15.7061 245.733 15.717C245.81 15.7607 245.887 15.7935 245.952 15.8371C246.029 15.8699 246.106 15.9027 246.183 15.9464C246.326 16.0119 246.468 16.0884 246.611 16.1648L247.05 16.3942L247.105 16.3833ZM246.589 21.8226C246.589 21.7024 246.523 21.6151 246.381 21.5605C246.249 21.5058 246.073 21.4731 245.843 21.4512C245.623 21.4403 245.382 21.4294 245.107 21.4403C244.833 21.4403 244.57 21.4512 244.306 21.4512C244.043 21.4512 243.779 21.4512 243.516 21.4403C243.252 21.4403 243.011 21.4403 242.802 21.4512C242.594 21.4622 242.418 21.5058 242.287 21.5605C242.166 21.6151 242.1 21.7024 242.1 21.8226C242.1 21.9318 242.166 22.0083 242.287 22.0629C242.418 22.1175 242.594 22.1503 242.802 22.183C243.011 22.1939 243.252 22.2049 243.516 22.2049C243.779 22.2049 244.043 22.1939 244.306 22.1939C244.57 22.1939 244.833 22.194 245.107 22.2158C245.382 22.2267 245.623 22.2376 245.843 22.2267C246.062 22.2158 246.249 22.1721 246.381 22.1175C246.523 22.0629 246.589 21.9646 246.589 21.8117V21.8226ZM252.659 15.4221V16.3942C252.659 16.5143 252.659 16.5908 252.659 16.6017C252.702 16.6454 252.768 16.7109 252.867 16.7983C252.966 16.8857 253.054 16.9512 253.12 17.0168C253.196 17.0823 253.273 17.1478 253.35 17.2243C253.438 17.2898 253.526 17.3663 253.602 17.4537C253.657 17.5083 253.712 17.5629 253.756 17.6175L253.888 17.7486C254.031 17.8905 254.184 18.0544 254.327 18.2182C254.47 18.393 254.579 18.5568 254.634 18.7425C254.656 18.808 254.656 18.8845 254.645 18.9719C254.634 19.0592 254.579 19.1248 254.491 19.1903C254.36 19.2668 254.217 19.3105 254.074 19.3105C253.899 19.3105 253.745 19.2777 253.591 19.2012C253.438 19.1357 253.317 19.0592 253.218 18.9937C253.076 18.8845 252.933 18.7753 252.812 18.6551L252.439 18.2838L252.154 17.9998C252.044 17.8796 251.934 17.7813 251.824 17.6939L251.506 18.0107L251.341 18.1745C251.341 18.1745 251.232 18.2728 251.188 18.3274C251.089 18.4367 250.979 18.5459 250.87 18.666C250.76 18.7753 250.639 18.8736 250.496 18.9828C250.178 19.2122 249.882 19.3323 249.596 19.3323H249.487C249.487 19.3323 249.432 19.3323 249.399 19.3105C249.223 19.2668 249.113 19.2012 249.059 19.1029C249.004 19.0155 248.982 18.9172 249.004 18.8189C249.026 18.7097 249.059 18.6114 249.113 18.535C249.179 18.4476 249.245 18.3711 249.322 18.2947L249.552 18.0435C249.618 17.967 249.728 17.8578 249.882 17.7158C250.035 17.5738 250.189 17.4209 250.343 17.2789C250.496 17.126 250.639 16.984 250.771 16.8638C250.902 16.7437 250.979 16.6672 251.012 16.6345V15.4549H250.266C250.178 15.4549 250.068 15.4549 249.937 15.4658C249.816 15.4658 249.684 15.4658 249.563 15.4439C249.443 15.433 249.344 15.4003 249.234 15.3566C249.135 15.302 249.059 15.2146 249.015 15.1054C248.971 15.018 248.949 14.9197 248.938 14.8214C248.938 14.7121 248.938 14.6138 248.96 14.5155C248.993 14.4063 249.059 14.3299 249.168 14.2971C249.278 14.2534 249.377 14.2206 249.487 14.2097H250.42C250.54 14.2097 250.606 14.2097 250.628 14.1988H253.35C253.657 14.1988 253.921 14.2206 254.129 14.2534C254.349 14.2971 254.524 14.3845 254.656 14.5374C254.7 14.5811 254.722 14.6466 254.722 14.7231C254.733 14.7995 254.733 14.876 254.722 14.9634C254.722 15.0398 254.689 15.1163 254.656 15.1818C254.623 15.2473 254.579 15.302 254.513 15.3347C254.448 15.3566 254.382 15.3893 254.294 15.4112C254.206 15.433 254.14 15.4549 254.074 15.4549C253.965 15.4549 253.855 15.4658 253.734 15.4658C253.624 15.4658 253.515 15.4549 253.405 15.4549H252.637L252.659 15.4221ZM256.994 21.9646L257.06 21.9864C257.06 21.9864 257.17 22.0301 257.235 22.0629C257.301 22.0957 257.356 22.1393 257.411 22.2049C257.466 22.2595 257.499 22.325 257.521 22.4015C257.565 22.6964 257.51 22.9257 257.367 23.0787C257.279 23.1879 257.17 23.2534 257.06 23.2753C256.95 23.2971 256.895 23.308 256.884 23.308H251.067C250.749 23.308 250.496 23.2534 250.321 23.1551C250.145 23.0677 250.057 22.9257 250.057 22.751V21.1454C250.057 21.1454 250.057 21.0362 250.046 20.9706V20.5228C250.046 20.4573 250.057 20.3918 250.057 20.3481C250.068 20.1842 250.145 20.0532 250.288 19.9549C250.431 19.8566 250.584 19.802 250.76 19.802C250.804 19.802 250.848 19.802 250.902 19.8129C250.968 19.8129 251.012 19.8129 251.056 19.8347C251.155 19.8675 251.243 19.9221 251.298 19.9986C251.363 20.0641 251.407 20.1515 251.44 20.2389C251.473 20.3262 251.495 20.4355 251.495 20.5447C251.495 20.643 251.506 20.7413 251.517 20.8177V21.9318C251.517 21.9318 251.605 21.9537 251.704 21.9646C251.813 21.9646 252.011 21.9755 252.296 21.9755C252.549 21.9755 252.768 21.9755 252.955 21.9646C253.152 21.9646 253.251 21.9537 253.262 21.9537H256.994V21.9646ZM255.424 17.4864C255.205 17.4755 254.996 17.4646 254.821 17.4537C254.645 17.4427 254.502 17.3554 254.404 17.2024C254.36 17.126 254.338 17.0277 254.338 16.9185C254.338 16.8092 254.338 16.7 254.36 16.6126C254.382 16.5253 254.426 16.4597 254.491 16.4051C254.557 16.3396 254.667 16.2959 254.821 16.2522C254.854 16.2522 254.92 16.2413 255.029 16.2413C255.139 16.2413 255.249 16.2304 255.381 16.2194C255.512 16.2194 255.633 16.2085 255.743 16.2085C255.852 16.2085 255.918 16.1976 255.951 16.1976V14.9743C255.951 14.8869 255.94 14.7995 255.94 14.7231C255.94 14.6357 255.962 14.5483 255.984 14.4719C255.995 14.4063 256.017 14.3517 256.028 14.2971C256.039 14.2425 256.083 14.1879 256.138 14.1223C256.204 14.0459 256.28 13.9913 256.39 13.9585C256.511 13.9257 256.632 13.9148 256.763 13.9367C257.016 13.9804 257.17 14.0677 257.235 14.2206C257.279 14.308 257.312 14.4282 257.312 14.5702C257.323 14.7012 257.334 14.7777 257.334 14.8104V19.5071H257.323C257.323 19.5071 257.323 19.5398 257.312 19.5835C257.312 19.6272 257.29 19.6927 257.268 19.7583C257.246 19.8238 257.213 19.8893 257.159 19.9549C257.115 20.0204 257.049 20.0859 256.972 20.1296C256.862 20.1952 256.752 20.217 256.643 20.217C256.511 20.217 256.379 20.1733 256.259 20.0859C256.171 20.0204 256.105 19.9439 256.061 19.8566C256.017 19.7692 255.984 19.6818 255.973 19.6054C255.962 19.518 255.951 19.4306 255.94 19.3541V17.4973H255.424V17.4864Z" fill="#009BCF"/>
        <path d="M177.662 26.564H138.798C136.646 26.564 134.89 24.8274 134.89 22.6757V9.16472C134.89 7.02394 136.646 5.27637 138.798 5.27637H177.662C179.813 5.27637 181.57 7.01302 181.57 9.16472V22.6866C181.57 24.8274 179.813 26.5749 177.662 26.5749V26.564ZM138.798 5.71326C136.888 5.71326 135.329 7.25331 135.329 9.16472V22.6866C135.329 24.5871 136.888 26.138 138.798 26.138H177.662C179.572 26.138 181.131 24.5871 181.131 22.6866V9.16472C181.131 7.26423 179.572 5.71326 177.662 5.71326H138.798ZM177.135 24.2376H139.324C138.216 24.2376 137.305 23.331 137.305 22.2278V9.61254C137.305 8.50938 138.216 7.60283 139.324 7.60283H177.135C178.244 7.60283 179.155 8.50938 179.155 9.61254V22.2388C179.155 23.3419 178.244 24.2485 177.135 24.2485V24.2376ZM139.324 8.0288C138.457 8.0288 137.744 8.73875 137.744 9.60161V22.2278C137.744 23.0907 138.457 23.8007 139.324 23.8007H177.135C178.002 23.8007 178.716 23.0907 178.716 22.2278V9.61254C178.716 8.74967 178.002 8.03972 177.135 8.03972H139.324V8.0288Z" fill="#181818"/>
        <path d="M145.185 10.3994H141.168C140.599 10.3994 140.137 10.8591 140.137 11.4261V20.3824C140.137 20.9495 140.599 21.4091 141.168 21.4091H145.185C145.755 21.4091 146.217 20.9495 146.217 20.3824V11.4261C146.217 10.8591 145.755 10.3994 145.185 10.3994Z" fill="#F5DD33"/>
        <path d="M152.956 10.3994H148.939C148.369 10.3994 147.907 10.8591 147.907 11.4261V20.3824C147.907 20.9495 148.369 21.4091 148.939 21.4091H152.956C153.526 21.4091 153.988 20.9495 153.988 20.3824V11.4261C153.988 10.8591 153.526 10.3994 152.956 10.3994Z" fill="#F5DD33"/>
        <path d="M160.716 10.3994H156.71C156.14 10.3994 155.678 10.8591 155.678 11.4261V20.3824C155.678 20.9495 156.14 21.4091 156.71 21.4091H160.716C161.286 21.4091 161.748 20.9495 161.748 20.3824V11.4261C161.748 10.8591 161.286 10.3994 160.716 10.3994Z" fill="#F5DD33"/>
        <path d="M181.35 11.7314H182.623C183.249 11.7314 183.765 12.2448 183.765 12.8674V18.9511C183.765 19.5737 183.249 20.087 182.623 20.087H181.35V11.7314Z" fill="#181818"/>
        <mask id="mask0_5349_86423" style="mask-type:luminance" maskUnits="userSpaceOnUse" x="128" y="32" width="145" height="104">
            <path d="M272.184 32.0127H128.217V135.294H272.184V32.0127Z" fill="white"/>
        </mask>
        <g mask="url(#mask0_5349_86423)">
            <path d="M227.217 89.1588C227.217 89.1588 234.209 80.2571 237.468 78.8809C237.468 78.8809 234.077 88.2304 230.027 92.3153" fill="white"/>
            <path d="M243.845 89.4849C244.24 89.9 244.229 90.5662 243.801 90.9594C243.384 91.3526 242.715 91.3417 242.32 90.9157L237.754 86.1208C237.359 85.7058 237.37 85.0395 237.798 84.6463C238.215 84.2531 238.884 84.264 239.279 84.6791L243.845 89.474V89.4849Z" fill="#222222"/>
            <path d="M243.088 91.6592C242.704 91.6592 242.32 91.5063 242.034 91.2114L237.468 86.4165C237.205 86.1325 237.062 85.7721 237.062 85.3789C237.062 84.9857 237.238 84.6252 237.512 84.3631C237.798 84.101 238.171 83.9699 238.555 83.959C238.95 83.959 239.312 84.1337 239.576 84.4068L244.142 89.2017C244.69 89.7806 244.668 90.709 244.087 91.2551C243.801 91.5172 243.439 91.6483 243.077 91.6483L243.088 91.6592ZM238.522 84.7782C238.357 84.7782 238.204 84.8437 238.083 84.9529C237.962 85.0731 237.885 85.226 237.885 85.4007C237.885 85.5755 237.94 85.7284 238.061 85.8485L242.627 90.6435C242.868 90.8947 243.274 90.9056 243.527 90.6653C243.779 90.425 243.79 90.0209 243.549 89.7697L238.983 84.9748C238.862 84.8546 238.709 84.7782 238.533 84.7782H238.511H238.522Z" fill="#222222"/>
            <path d="M283.358 98.2235C282.951 92.4565 279.944 88.8849 277.925 88.0876C275.905 87.2902 267.673 87.3995 256.632 87.4868C248.455 87.5524 240.783 87.891 237.348 88.0657C237.907 85.5645 238.983 79.9832 238.862 79.2077C238.72 78.3339 237.655 78.4868 237.655 78.4868C237.556 78.5087 237.457 78.5961 237.392 78.7162C237.26 78.9674 237.501 78.8691 237.501 78.8691C236.25 82.7138 232.826 88.5245 232.826 88.5245C230.938 88.6337 225.351 89.289 222.168 90.1301C218.986 90.9711 215.045 92.8934 214.068 96.4322C213.092 99.9711 214.376 105.443 215.144 107.868C215.847 110.085 221.236 109.91 221.236 109.91L267.542 109.659C267.542 109.659 271.054 109.67 271.965 109.659C282.501 109.616 283.895 105.705 283.358 98.2235Z" fill="#AF84B9"/>
            <path d="M227.217 89.5736C227.129 89.5736 227.042 89.5408 226.965 89.4862C226.789 89.3442 226.756 89.093 226.899 88.9073C227.184 88.5469 234 79.9073 237.315 78.4983C237.523 78.4109 237.765 78.4983 237.853 78.7168C237.94 78.9243 237.853 79.1646 237.633 79.252C234.516 80.5736 227.612 89.3224 227.547 89.4097C227.47 89.508 227.349 89.5627 227.217 89.5627V89.5736Z" fill="#222222"/>
            <path d="M220.873 110.325C219.545 110.325 215.44 110.151 214.749 107.988C214.518 107.245 212.488 100.626 213.662 96.3229C214.837 92.0523 219.918 90.2938 222.048 89.7367C225.066 88.9394 230.389 88.2841 232.562 88.1312C233.133 87.1372 235.822 82.4406 236.986 79.0765C236.92 78.9673 236.887 78.7816 237.018 78.5304C237.139 78.2901 237.348 78.1263 237.567 78.0826C238.094 78.0061 239.093 78.1372 239.257 79.1421C239.4 80.0049 238.357 85.3023 237.853 87.6287C241.518 87.454 248.872 87.1372 256.61 87.0826H258.388C268.661 86.9952 276.081 86.9297 278.056 87.7161C280.021 88.4916 283.314 92.0195 283.753 98.2016C283.994 101.598 283.939 105.05 281.887 107.245C280.109 109.146 276.948 110.052 271.943 110.074C271.032 110.085 267.509 110.074 267.509 110.074L221.203 110.325C221.137 110.325 221.016 110.325 220.84 110.325H220.873ZM237.907 78.8799C237.907 78.8799 237.907 78.9564 237.886 78.9892C236.634 82.8338 233.309 88.4807 233.177 88.721C233.111 88.8411 232.979 88.9176 232.848 88.9176C230.872 89.0377 225.351 89.704 222.267 90.5122C220.27 91.0365 215.528 92.6639 214.464 96.5304C213.553 99.8508 214.705 105.137 215.539 107.737C216.044 109.31 219.809 109.539 221.225 109.495L267.542 109.244C267.542 109.244 271.054 109.255 271.965 109.244C276.728 109.222 279.703 108.403 281.305 106.677C282.787 105.083 283.259 102.647 282.951 98.2452C282.556 92.7513 279.692 89.2125 277.782 88.4588C275.949 87.738 268.222 87.8035 258.421 87.869H256.643C248.664 87.9455 241.079 88.2732 237.556 88.4479C237.468 88.5025 237.359 88.5244 237.249 88.4916C237.216 88.4916 237.194 88.4698 237.161 88.4588C236.107 88.5134 235.515 88.5462 235.493 88.5462C235.262 88.579 235.076 88.3933 235.054 88.1639C235.043 87.9346 235.218 87.7489 235.438 87.727C235.46 87.727 236.02 87.6943 237.007 87.6397C237.644 84.7343 238.544 79.852 238.445 79.2404C238.39 78.9346 238.105 78.8581 237.896 78.8472L237.907 78.8799Z" fill="#222222"/>
            <path d="M214.014 96.6507C215.001 96.5633 216.011 96.4322 216.999 96.2902C217.515 96.2247 219.271 95.9298 219.622 95.9407C219.776 96.7381 219.337 97.7429 218.568 98.016C217.164 98.5293 215.177 98.5293 213.706 98.715C213.706 98.715 213.75 97.5682 214.014 96.6507Z" fill="#F5DD33"/>
            <path d="M213.717 99.1304C213.618 99.1304 213.52 99.0867 213.443 99.0212C213.355 98.9447 213.3 98.8246 213.311 98.7044C213.311 98.6607 213.366 97.5029 213.629 96.5418C213.673 96.3779 213.816 96.2578 213.992 96.2469C214.957 96.1704 215.945 96.0284 216.955 95.8974C217.098 95.8755 217.328 95.8428 217.603 95.7991C218.601 95.6461 219.37 95.5479 219.655 95.5479C219.842 95.5479 220.006 95.6898 220.039 95.8755C220.215 96.8039 219.732 98.0491 218.722 98.4204C217.668 98.8136 216.307 98.9229 215.1 99.0102C214.628 99.043 214.178 99.0867 213.772 99.1304C213.75 99.1304 213.739 99.1304 213.717 99.1304ZM214.354 97.0333C214.255 97.4702 214.2 97.9289 214.167 98.2566C214.442 98.2347 214.738 98.202 215.034 98.1801C216.187 98.0928 217.482 97.9835 218.437 97.634C218.909 97.4593 219.205 96.9022 219.249 96.3779C218.821 96.4326 218.14 96.5309 217.723 96.5964C217.449 96.6401 217.207 96.6728 217.065 96.6947C216.154 96.8258 215.254 96.9459 214.354 97.0224V97.0333Z" fill="#222222"/>
            <path d="M214.672 106.655C214.453 106.655 214.266 106.48 214.255 106.25C214.255 106.021 214.431 105.835 214.661 105.835C215.331 105.824 216 105.835 216.67 105.835C217.471 105.835 218.272 105.835 219.062 105.813H219.073C219.293 105.813 219.479 105.988 219.479 106.207C219.479 106.436 219.304 106.622 219.084 106.633C218.283 106.654 217.471 106.655 216.67 106.655C216 106.655 215.342 106.655 214.672 106.655Z" fill="#222222"/>
            <path d="M240.915 105.935C240.618 105.935 240.388 105.782 240.388 105.52C240.388 105.291 240.574 105.116 240.794 105.116C240.816 105.116 240.871 105.116 240.904 105.116C241.935 105.116 244.624 105.05 247.72 104.985C251.792 104.886 256.423 104.788 258.75 104.788C258.981 104.788 259.156 104.974 259.156 105.203C259.156 105.433 258.97 105.618 258.75 105.618C256.423 105.618 251.814 105.727 247.742 105.815C244.635 105.891 241.946 105.946 240.904 105.946L240.915 105.935Z" fill="#222222"/>
            <path d="M264.743 105.41C264.249 105.41 263.942 105.41 263.865 105.41C263.634 105.41 263.459 105.225 263.459 104.995C263.459 104.766 263.645 104.591 263.865 104.591C263.876 104.591 264.106 104.591 264.545 104.591C267.3 104.591 277.65 104.547 282.095 103.881C282.326 103.837 282.534 104.001 282.567 104.231C282.6 104.46 282.446 104.668 282.216 104.7C277.76 105.367 267.783 105.421 264.743 105.421V105.41Z" fill="#222222"/>
            <path d="M232.178 88.667C231.026 88.9728 230.159 90.1634 230.762 91.2884C231.344 92.3806 232.409 92.0857 233.364 91.7799" fill="#AF84B9"/>
            <path d="M232.013 92.4673C231.399 92.4673 230.795 92.2379 230.389 91.4734C230.093 90.9163 230.071 90.2938 230.323 89.7149C230.62 89.0268 231.289 88.4806 232.068 88.2731C232.299 88.2185 232.518 88.3496 232.573 88.568C232.628 88.7865 232.496 89.0158 232.277 89.0705C231.739 89.2124 231.278 89.5947 231.07 90.0535C230.96 90.2938 230.883 90.676 231.113 91.102C231.487 91.812 232.068 91.7683 233.232 91.3969C233.451 91.3314 233.682 91.4406 233.748 91.659C233.813 91.8775 233.704 92.1069 233.484 92.1724C233.078 92.3035 232.54 92.4782 232.013 92.4782V92.4673Z" fill="#222222"/>
            <path d="M232.112 89.1905C232.178 87.9017 232.376 86.2743 233.649 85.6626C234.615 85.193 237.073 85.2039 237.787 85.3459C239.027 85.5862 239.312 87.1917 239.312 88.2403C239.312 88.8082 239.268 89.3434 239.082 89.8896C238.862 90.5231 238.226 91.091 237.589 91.3095C236.349 91.7245 234.132 91.7245 233.133 91.6044C232.935 91.5825 232.793 91.4515 232.694 91.2767" fill="#AF84B9"/>
            <path d="M234.549 92.074C233.978 92.074 233.451 92.0412 233.067 91.9976C232.749 91.9648 232.496 91.7791 232.321 91.4733C232.211 91.2767 232.277 91.0255 232.475 90.9162C232.672 90.807 232.925 90.8725 233.034 91.0692C233.1 91.1893 233.144 91.1893 233.166 91.1893C234.209 91.3204 236.327 91.2876 237.446 90.9162C237.984 90.7306 238.511 90.2391 238.676 89.7585C238.829 89.3325 238.884 88.8738 238.884 88.2403C238.884 87.858 238.829 85.9684 237.699 85.7391C237.029 85.608 234.67 85.608 233.825 86.023C232.793 86.5255 232.584 87.9126 232.518 89.2014C232.518 89.4308 232.299 89.6056 232.09 89.5946C231.86 89.5837 231.684 89.3871 231.695 89.1687C231.772 87.6395 232.046 85.9793 233.451 85.2912C234.516 84.7779 237.095 84.7888 237.853 84.9417C239.016 85.1711 239.707 86.4053 239.707 88.2403C239.707 88.7209 239.675 89.3653 239.455 90.0206C239.214 90.7415 238.489 91.4296 237.71 91.6917C236.865 91.9757 235.614 92.074 234.549 92.074Z" fill="#222222"/>
            <path d="M222.059 103.313C222.059 103.313 221.971 103.313 221.927 103.291C221.707 103.215 221.598 102.986 221.675 102.767C223.014 98.9881 226.943 96.4541 231.443 96.4541C235.185 96.4541 238.632 98.2563 240.432 101.14C240.553 101.336 240.487 101.588 240.3 101.708C240.103 101.828 239.85 101.762 239.729 101.577C238.083 98.9226 234.9 97.2733 231.443 97.2733C227.283 97.2733 223.672 99.5888 222.454 103.04C222.399 103.204 222.234 103.313 222.07 103.313H222.059Z" fill="#222222"/>
            <path d="M259.365 102.964C259.365 102.964 259.277 102.964 259.233 102.942C259.014 102.866 258.904 102.636 258.981 102.418C260.364 98.5294 264.414 95.9189 269.056 95.9189C272.92 95.9189 276.476 97.7757 278.32 100.758C278.44 100.954 278.374 101.205 278.188 101.326C278.001 101.446 277.738 101.38 277.617 101.194C275.916 98.4529 272.634 96.749 269.045 96.749C264.754 96.749 261.011 99.141 259.749 102.702C259.694 102.866 259.529 102.975 259.365 102.975V102.964Z" fill="#222222"/>
            <path d="M231.432 98.4639C226.636 98.4639 222.75 102.09 222.75 106.557C222.75 107.748 223.025 108.884 223.529 109.9L239.389 109.812C239.861 108.818 240.125 107.715 240.125 106.557C240.125 102.09 236.239 98.4639 231.443 98.4639" fill="#222222"/>
            <path d="M223.529 110.304C223.376 110.304 223.233 110.216 223.156 110.074C222.618 108.96 222.344 107.781 222.344 106.546C222.344 101.861 226.427 98.0488 231.443 98.0488C236.459 98.0488 240.542 101.861 240.542 106.546C240.542 107.737 240.278 108.895 239.773 109.976C239.707 110.118 239.565 110.205 239.4 110.216L223.54 110.304H223.529ZM231.443 98.868C226.877 98.868 223.167 102.319 223.167 106.546C223.167 107.562 223.376 108.545 223.793 109.485L239.126 109.397C239.521 108.491 239.718 107.529 239.718 106.546C239.718 102.309 236.009 98.868 231.443 98.868Z" fill="#222222"/>
            <path d="M269.045 97.9619C264.095 97.9619 260.078 101.697 260.078 106.317C260.078 107.519 260.353 108.655 260.836 109.693L267.531 109.66C267.531 109.66 271.043 109.671 271.954 109.66C274.182 109.66 276.004 109.463 277.486 109.114C277.815 108.24 278.001 107.301 278.001 106.317C278.001 101.708 273.984 97.9619 269.034 97.9619" fill="#222222"/>
            <path d="M260.835 110.096C260.682 110.096 260.528 110.009 260.462 109.867C259.924 108.742 259.661 107.552 259.661 106.317C259.661 101.49 263.865 97.5576 269.034 97.5576C274.204 97.5576 278.407 101.49 278.407 106.317C278.407 107.322 278.221 108.305 277.859 109.255C277.815 109.387 277.705 109.474 277.573 109.507C276.048 109.867 274.204 110.053 271.954 110.064C271.043 110.075 267.52 110.064 267.52 110.064L260.824 110.096H260.835ZM269.034 98.3659C264.315 98.3659 260.484 101.927 260.484 106.306C260.484 107.333 260.693 108.327 261.099 109.266L267.531 109.234C267.531 109.234 271.043 109.245 271.954 109.234C274.039 109.234 275.751 109.07 277.178 108.753C277.452 107.967 277.595 107.147 277.595 106.306C277.595 101.927 273.754 98.3659 269.045 98.3659H269.034Z" fill="#222222"/>
            <path d="M239.334 106.557C239.334 110.62 235.8 113.919 231.432 113.919C227.064 113.919 223.529 110.62 223.529 106.557C223.529 102.494 227.064 99.1953 231.432 99.1953C235.8 99.1953 239.334 102.494 239.334 106.557Z" fill="#353332"/>
            <path d="M231.432 114.323C226.844 114.323 223.123 110.838 223.123 106.557C223.123 102.275 226.855 98.791 231.432 98.791C236.009 98.791 239.74 102.275 239.74 106.557C239.74 110.838 236.009 114.323 231.432 114.323ZM231.432 99.5993C227.305 99.5993 223.946 102.712 223.946 106.546C223.946 110.38 227.305 113.492 231.432 113.492C235.559 113.492 238.917 110.38 238.917 106.546C238.917 102.712 235.559 99.5993 231.432 99.5993Z" fill="#222222"/>
            <path d="M235.186 106.558C235.186 108.48 233.506 110.053 231.443 110.053C229.379 110.053 227.7 108.491 227.7 106.558C227.7 104.624 229.379 103.062 231.443 103.062C233.506 103.062 235.186 104.624 235.186 106.558Z" fill="#A19F9B"/>
            <path d="M231.432 110.457C229.138 110.457 227.272 108.709 227.272 106.557C227.272 104.406 229.138 102.658 231.432 102.658C233.726 102.658 235.592 104.406 235.592 106.557C235.592 108.709 233.726 110.457 231.432 110.457ZM231.432 103.477C229.599 103.477 228.095 104.865 228.095 106.557C228.095 108.25 229.588 109.638 231.432 109.638C233.276 109.638 234.769 108.25 234.769 106.557C234.769 104.865 233.276 103.477 231.432 103.477Z" fill="#D6D5D2"/>
            <path d="M277.2 106.317C277.2 110.511 273.545 113.919 269.045 113.919C264.545 113.919 260.89 110.522 260.89 106.317C260.89 102.112 264.545 98.7148 269.045 98.7148C273.545 98.7148 277.2 102.112 277.2 106.317Z" fill="#353332"/>
            <path d="M269.045 114.324C264.326 114.324 260.484 110.73 260.484 106.318C260.484 101.905 264.326 98.3115 269.045 98.3115C273.765 98.3115 277.606 101.905 277.606 106.318C277.606 110.73 273.765 114.324 269.045 114.324ZM269.045 99.1307C264.776 99.1307 261.307 102.353 261.307 106.318C261.307 110.282 264.776 113.504 269.045 113.504C273.315 113.504 276.783 110.282 276.783 106.318C276.783 102.353 273.315 99.1307 269.045 99.1307Z" fill="#222222"/>
            <path d="M272.909 106.317C272.909 108.305 271.175 109.922 269.045 109.922C266.916 109.922 265.182 108.305 265.182 106.317C265.182 104.329 266.916 102.713 269.045 102.713C271.175 102.713 272.909 104.329 272.909 106.317Z" fill="#A19F9B"/>
            <path d="M269.045 110.326C266.685 110.326 264.765 108.523 264.765 106.317C264.765 104.111 266.685 102.309 269.045 102.309C271.405 102.309 273.326 104.111 273.326 106.317C273.326 108.523 271.405 110.326 269.045 110.326ZM269.045 103.117C267.135 103.117 265.588 104.548 265.588 106.306C265.588 108.065 267.135 109.495 269.045 109.495C270.955 109.495 272.503 108.065 272.503 106.306C272.503 104.548 270.955 103.117 269.045 103.117Z" fill="#D6D5D2"/>
        </g>
        <path d="M142.398 91.6498C143.144 91.6498 144.373 91.3768 144.988 91.8683C145.449 92.2615 148.226 96.4666 148.917 97.3185C149.345 97.8319 149.696 98.2906 150.421 98.236C150.948 98.2032 153.044 97.3513 153.23 96.9472C153.406 96.5758 153.099 96.0078 152.923 95.6692C152.396 94.6644 149.389 89.1595 147.38 86.9532C145.998 85.435 143.352 85.861 141.64 86.1559C141.64 86.1559 140.96 88.7008 142.387 91.6389" fill="#A19F9B"/>
        <path d="M143.671 91.7706C142.365 88.188 142.804 85.9927 142.826 85.9053L143.901 86.1237C143.901 86.1237 143.528 88.1334 144.702 91.3992L143.671 91.7706Z" fill="#7CCBDF"/>
        <path d="M199.987 112.675C199.789 110.851 197.715 109.508 196.211 108.71C194.916 103.042 191.579 97.22 186.399 94.3038L169.804 91.3984L161.177 100.486C160.233 104.767 161.704 110.043 163.789 114.051C163.789 114.051 164.59 115.744 164.7 116.247C165.029 117.732 165.161 119.163 165.249 119.851C165.457 121.402 165.611 123.292 166.961 124.307C168.212 125.247 169.902 125.28 171.417 125.323C172.778 125.378 174.128 125.323 175.456 125.017C177.069 124.635 177.838 123.794 178.43 122.32C178.661 121.686 179.012 119.873 179.868 118.956C180.944 118.213 182.612 118.289 183.863 118.366C185.883 118.497 187.804 119.381 189.724 119.949C191.316 120.43 193.028 120.845 194.587 120.135C196.277 119.349 200.305 115.58 199.987 112.664" fill="white"/>
        <path d="M164.448 115.788C164.261 115.788 164.074 115.69 163.976 115.515C161.737 111.714 159.53 105.466 160.65 100.376C160.716 100.082 161.001 99.8959 161.298 99.9614C161.594 100.027 161.78 100.322 161.715 100.606C160.661 105.39 162.79 111.332 164.919 114.958C165.073 115.22 164.985 115.548 164.722 115.7C164.634 115.755 164.535 115.777 164.448 115.777V115.788Z" fill="#222222"/>
        <path d="M196.222 109.278C195.97 109.278 195.75 109.104 195.684 108.852C194.257 102.605 190.69 97.3512 186.135 94.7844C185.872 94.6315 185.773 94.3039 185.927 94.0417C186.08 93.7796 186.41 93.6813 186.673 93.8342C191.491 96.543 195.256 102.07 196.749 108.612C196.815 108.907 196.628 109.202 196.332 109.267C196.288 109.267 196.255 109.278 196.211 109.278H196.222Z" fill="#222222"/>
        <path d="M172.284 125.902C171.999 125.902 171.702 125.902 171.395 125.88H171.252C169.727 125.825 167.982 125.771 166.632 124.755C165.183 123.663 164.941 121.773 164.744 120.244L164.656 119.523C164.546 118.551 164.36 116.923 163.921 115.383C163.833 115.088 164.008 114.794 164.294 114.706C164.579 114.619 164.887 114.794 164.974 115.078C165.446 116.694 165.633 118.387 165.754 119.392L165.841 120.091C166.017 121.478 166.226 123.051 167.301 123.87C168.377 124.678 169.858 124.733 171.296 124.777H171.45C172.998 124.831 174.238 124.744 175.357 124.493C176.696 124.176 177.366 123.553 177.937 122.122C177.98 122.002 178.035 121.817 178.101 121.598C178.354 120.724 178.738 119.392 179.484 118.595C179.693 118.376 180.044 118.365 180.263 118.562C180.483 118.769 180.494 119.108 180.296 119.337C179.726 119.949 179.385 121.118 179.166 121.893C179.089 122.144 179.034 122.352 178.979 122.505C178.277 124.274 177.3 125.148 175.621 125.552C174.633 125.781 173.568 125.891 172.317 125.891L172.284 125.902Z" fill="#222222"/>
        <path d="M192.721 121.074C191.634 121.074 190.548 120.79 189.56 120.484C189 120.32 188.429 120.124 187.859 119.927C186.541 119.479 185.181 119.01 183.831 118.922C182.755 118.857 181.141 118.758 180.187 119.414C179.934 119.589 179.594 119.523 179.418 119.272C179.243 119.021 179.309 118.682 179.561 118.507C180.724 117.699 182.349 117.732 183.896 117.83C185.4 117.928 186.838 118.42 188.221 118.89C188.781 119.075 189.329 119.272 189.889 119.436C191.393 119.894 192.973 120.288 194.367 119.643C195.97 118.89 199.734 115.329 199.449 112.729C199.317 111.517 198.121 110.316 195.904 109.158C195.64 109.016 195.531 108.688 195.673 108.426C195.816 108.153 196.145 108.055 196.42 108.197C199.021 109.562 200.371 111.004 200.546 112.62C200.898 115.788 196.749 119.741 194.839 120.637C194.148 120.954 193.445 121.074 192.732 121.074H192.721Z" fill="#222222"/>
        <path d="M163.679 108.82C163.679 108.82 175.412 98.8039 183.205 94.8828L185.795 96.1716C185.795 96.1716 170.627 106.035 165.984 111.048" fill="#009BCF"/>
        <path d="M165.984 111.583C165.852 111.583 165.721 111.54 165.611 111.441C165.391 111.234 165.37 110.895 165.578 110.666C169.65 106.264 181.482 98.3454 184.698 96.2265L183.205 95.4837C175.555 99.4158 164.14 109.126 164.03 109.224C163.8 109.421 163.46 109.399 163.262 109.169C163.065 108.94 163.087 108.591 163.317 108.394C163.438 108.296 175.193 98.2908 182.952 94.3806C183.106 94.3041 183.293 94.3041 183.446 94.3806L186.037 95.6694C186.212 95.7568 186.333 95.9316 186.344 96.1282C186.355 96.3248 186.256 96.5104 186.091 96.6197C185.938 96.718 170.923 106.493 166.39 111.409C166.28 111.529 166.138 111.583 165.984 111.583Z" fill="#222222"/>
        <path d="M169.749 114.401C169.859 113.757 170.023 112.523 169.913 111.288C169.749 109.508 168.574 107.444 165.161 107.05C161.748 106.657 160.134 108.394 159.552 110.087C159.157 111.256 159.037 112.49 158.993 113.156C158.071 113.211 156.611 113.637 156.37 115.701C156.007 118.77 159.267 119.185 160.738 119.36L163.657 119.698H163.701L166.621 120.048C168.091 120.223 171.362 120.55 171.713 117.481C171.955 115.417 170.627 114.674 169.738 114.412" fill="#009BCF"/>
        <path d="M168.059 120.682C167.444 120.682 166.917 120.616 166.566 120.583L160.672 119.906C159.98 119.83 158.674 119.677 157.61 119.098C156.26 118.377 155.645 117.176 155.832 115.636C156.018 113.986 156.984 112.927 158.488 112.665C158.554 111.944 158.707 110.906 159.037 109.912C159.882 107.422 162.198 106.155 165.227 106.504C168.256 106.854 170.221 108.623 170.462 111.234C170.561 112.271 170.462 113.32 170.363 114.03C171.768 114.631 172.46 115.876 172.262 117.525C171.955 120.201 169.727 120.671 168.059 120.671V120.682ZM164.195 107.542C161.44 107.542 160.43 109.213 160.068 110.273C159.695 111.387 159.574 112.577 159.541 113.189C159.53 113.462 159.3 113.691 159.026 113.702C157.774 113.779 157.061 114.467 156.918 115.767C156.787 116.87 157.171 117.623 158.126 118.137C159.015 118.617 160.178 118.748 160.793 118.814L166.687 119.491C168.761 119.731 170.912 119.666 171.176 117.405C171.329 116.116 170.791 115.275 169.595 114.915C169.332 114.838 169.167 114.565 169.211 114.292C169.321 113.68 169.474 112.49 169.365 111.332C169.244 110.098 168.541 107.979 165.095 107.586C164.777 107.553 164.48 107.531 164.195 107.531V107.542Z" fill="#222222"/>
        <path d="M161.111 113.516L163.185 113.757C163.306 113.768 163.921 113.778 164.03 112.894L164.491 108.929C164.568 108.285 164.009 108.263 163.877 108.263C161.901 108.372 161.166 109.683 160.891 110.524C160.639 111.321 160.518 112.173 160.463 112.774C160.463 112.937 160.507 113.451 161.111 113.516Z" fill="white"/>
        <path d="M167.608 114.27L165.534 114.029C165.413 114.008 164.81 113.887 164.919 112.992L165.38 109.027C165.457 108.383 166.006 108.481 166.138 108.514C168.036 109.071 168.454 110.512 168.519 111.397C168.585 112.238 168.508 113.09 168.421 113.68C168.388 113.844 168.223 114.335 167.619 114.259" fill="white"/>
        <path d="M162.252 119.13C162.121 120.211 161.144 120.986 160.057 120.866C158.971 120.735 158.191 119.763 158.312 118.671C158.444 117.589 159.421 116.814 160.507 116.934C161.594 117.065 162.373 118.037 162.252 119.119" fill="#222222"/>
        <path d="M169.145 119.928C169.024 121.01 168.037 121.785 166.95 121.665C165.863 121.534 165.084 120.562 165.205 119.47C165.326 118.388 166.313 117.613 167.4 117.733C168.487 117.853 169.266 118.836 169.145 119.928Z" fill="#222222"/>
        <path d="M156.622 92.9717H168.322L169.156 102.474L157.302 103.37" fill="white"/>
        <path d="M141.447 87.3165L139.152 87.5352L139.22 88.2419L141.515 88.0232L141.447 87.3165Z" fill="#222222"/>
        <path d="M139.215 88.799C138.94 88.799 138.699 88.5914 138.666 88.3074L138.6 87.5975C138.567 87.2917 138.798 87.0295 139.094 86.9968L141.388 86.7783C141.541 86.7783 141.673 86.8111 141.794 86.8985C141.904 86.9858 141.98 87.1278 141.991 87.2698L142.057 87.9798C142.068 88.1218 142.024 88.2638 141.937 88.3839C141.849 88.4931 141.706 88.5696 141.563 88.5805L139.269 88.799C139.269 88.799 139.237 88.799 139.215 88.799Z" fill="#222222"/>
        <path d="M141.794 89.6177L139.5 89.8359L139.567 90.5427L141.862 90.3244L141.794 89.6177Z" fill="#222222"/>
        <path d="M139.555 91.1042C139.28 91.1042 139.039 90.8966 139.006 90.6127L138.94 89.9027C138.929 89.7607 138.973 89.6187 139.061 89.4986C139.149 89.3894 139.291 89.3129 139.434 89.302L141.728 89.0835C142.035 89.0617 142.299 89.2801 142.321 89.575L142.386 90.285C142.397 90.427 142.354 90.569 142.266 90.6891C142.178 90.7983 142.035 90.8748 141.893 90.8857L139.599 91.1042C139.599 91.1042 139.566 91.1042 139.544 91.1042H139.555Z" fill="#222222"/>
        <path d="M150.3 98.7827C149.422 98.7827 148.95 98.2147 148.533 97.7123C148.193 97.2863 147.567 96.3907 146.854 95.3531C146.063 94.2171 144.878 92.4914 144.626 92.273C144.351 92.0545 143.605 92.1091 143.056 92.1528C142.551 92.1965 142.068 92.2511 141.893 91.8798C140.389 88.7887 141.081 86.1237 141.102 86.0145C141.157 85.8069 141.333 85.654 141.541 85.6212C143.276 85.3263 146.173 84.8348 147.776 86.5933C150.037 89.0727 153.362 95.3531 153.395 95.4186C153.648 95.921 153.988 96.5873 153.713 97.1771C153.373 97.9198 150.904 98.7608 150.432 98.7827C150.377 98.7827 150.333 98.7827 150.278 98.7827H150.3ZM143.802 91.0169C144.351 91.0169 144.911 91.1043 145.328 91.4319C145.635 91.6941 146.338 92.688 147.754 94.7305C148.434 95.7026 149.071 96.631 149.334 96.9696C149.806 97.5266 149.993 97.7232 150.366 97.6795C150.783 97.6467 152.495 96.9368 152.759 96.6528C152.759 96.5764 152.539 96.1176 152.462 95.9756C151.529 94.1953 148.774 89.2912 146.974 87.3251C145.877 86.1128 143.638 86.3858 142.112 86.637C142.002 87.347 141.871 89.1055 142.738 91.0824C142.815 91.0824 142.891 91.0715 142.979 91.0606C143.243 91.0387 143.528 91.0169 143.813 91.0169H143.802Z" fill="#222222"/>
        <path d="M158.597 93.2551C156.6 92.9274 153.274 92.5342 151.277 92.9711C149.586 93.3316 147.71 94.0415 147.501 95.9748C147.347 97.5039 148.193 99.2951 149.038 100.486C150.245 102.266 153.066 103.02 155.041 103.216C157.368 103.467 159.728 103.391 162.033 103.085" fill="white"/>
        <path d="M157.917 103.927C156.918 103.927 155.93 103.872 154.987 103.774C153.878 103.664 150.146 103.107 148.588 100.803C148.16 100.191 146.755 98.0176 146.963 95.9314C147.249 93.2773 150.201 92.6438 151.167 92.4363C153.45 91.9448 157.193 92.4691 158.696 92.7203C158.993 92.764 159.201 93.048 159.146 93.3538C159.102 93.6487 158.817 93.8562 158.51 93.8016C157.39 93.6159 153.549 93.048 151.398 93.5176C149.246 93.9764 148.182 94.7737 148.05 96.0516C147.918 97.406 148.709 99.0771 149.488 100.191C150.519 101.72 153.055 102.485 155.096 102.692C157.248 102.922 159.563 102.889 161.956 102.561C162.252 102.507 162.538 102.736 162.571 103.031C162.615 103.326 162.395 103.61 162.099 103.643C160.672 103.828 159.267 103.927 157.906 103.927H157.917Z" fill="#222222"/>
        <path d="M164.074 114.182C163.262 114.182 162.428 114.084 161.583 113.898C159.333 113.352 157.423 111.572 156.194 108.907C155.48 107.388 154.976 105.761 154.493 104.188L154.24 103.358C154.152 103.074 154.306 102.768 154.602 102.67C154.888 102.583 155.195 102.736 155.294 103.03L155.546 103.86C156.018 105.401 156.512 106.995 157.193 108.448C157.829 109.813 159.267 112.205 161.846 112.839C164.327 113.407 166.632 113.068 168.662 111.812C171.154 110.348 173.184 107.399 173.974 104.101C174.04 103.806 174.337 103.631 174.633 103.697C174.929 103.762 175.105 104.057 175.039 104.352C174.183 107.924 171.955 111.146 169.222 112.74C167.663 113.691 165.918 114.182 164.085 114.182H164.074Z" fill="#222222"/>
        <path d="M212.082 116.28C211.785 116.28 211.544 116.039 211.533 115.745C211.533 115.439 211.763 115.198 212.071 115.188H212.367C212.663 115.188 212.927 115.395 212.938 115.701C212.949 116.007 212.718 116.258 212.411 116.269H212.082V116.28Z" fill="#222222"/>
        <path d="M210.512 116.29C210.128 116.29 209.733 116.29 209.349 116.268C209.042 116.268 208.811 116.006 208.811 115.711C208.811 115.406 209.074 115.154 209.371 115.176C209.755 115.176 210.128 115.198 210.512 115.198C210.82 115.198 211.061 115.449 211.061 115.744C211.061 116.05 210.82 116.29 210.512 116.29Z" fill="#222222"/>
        <path d="M207.362 116.181C207.362 116.181 207.34 116.181 207.329 116.181C204.047 115.962 200.458 115.438 196.672 114.619C192.534 113.723 188.956 112.544 185.74 111.014C183.26 109.835 181.196 108.448 179.429 106.777C178.299 105.717 177.223 104.658 176.652 103.369C176.532 103.096 176.652 102.768 176.938 102.648C177.212 102.528 177.541 102.648 177.662 102.932C178.156 104.035 179.133 105.007 180.186 105.99C181.866 107.596 183.841 108.917 186.212 110.042C189.351 111.539 192.852 112.686 196.902 113.559C200.634 114.368 204.168 114.881 207.406 115.099C207.713 115.121 207.933 115.383 207.922 115.678C207.9 115.962 207.658 116.192 207.373 116.192L207.362 116.181Z" fill="#222222"/>
        <path d="M165.633 56.8727C164.118 50.7343 158.971 47.8508 154.13 47.9273C149.521 48.0037 145.295 51.062 145.01 55.9552C144.911 57.6918 144.439 64.0814 152.693 66.8994" fill="white"/>
        <path d="M152.693 67.4349C152.638 67.4349 152.572 67.4349 152.517 67.4022C146.832 65.4689 144.121 61.6242 144.461 55.9665C144.779 50.407 149.565 47.447 154.119 47.3706C158.938 47.2723 164.546 50.1558 166.16 56.731C166.236 57.0259 166.05 57.3208 165.754 57.3864C165.457 57.4519 165.161 57.2772 165.095 56.9823C163.624 50.9968 158.554 48.3536 154.13 48.4519C150.08 48.5174 145.833 51.117 145.547 55.9665C145.427 57.9216 145.086 63.7104 152.857 66.3645C153.143 66.4628 153.296 66.7687 153.197 67.0527C153.121 67.282 152.901 67.424 152.682 67.424L152.693 67.4349Z" fill="#222222"/>
        <path d="M174.523 49.664C176.817 49.6312 179.704 49.7077 182.261 50.1118C188.023 50.9856 193.138 53.181 197.33 57.2659C204.563 64.3218 206.287 76.0196 201.787 85.0196C199.866 88.908 196.496 91.7259 192.644 93.5609C190.339 94.7077 184.127 96.8594 175.478 96.8594H175.302C166.632 96.8594 160.343 94.7186 158.027 93.5609C154.185 91.7259 150.816 88.897 148.884 85.0196C144.384 76.0196 146.107 64.3218 153.34 57.2659C157.544 53.181 162.647 50.9747 168.421 50.1118C170.978 49.7077 173.865 49.6312 176.158 49.664" fill="white"/>
        <path d="M175.313 97.4158C164.854 97.4158 158.477 94.4012 157.785 94.0626C153.472 91.9983 150.223 88.9619 148.401 85.2701C143.737 75.9534 145.657 64.0153 152.956 56.883C157.039 52.9072 162.066 50.5262 168.333 49.5759C170.704 49.1936 173.349 49.139 175.335 49.1172C177.355 49.1172 179.967 49.2046 182.338 49.5759C188.605 50.5262 193.632 52.9072 197.715 56.883C205.024 64.0043 206.934 75.9425 202.27 85.2701C200.448 88.951 197.199 91.9983 192.874 94.0626C192.194 94.4012 185.828 97.4158 175.478 97.4158H175.302H175.313ZM174.468 50.2094C172.646 50.2313 170.484 50.3405 168.509 50.6572C162.472 51.5638 157.643 53.8575 153.735 57.6694C146.755 64.474 144.933 75.8769 149.389 84.7896C151.101 88.2629 154.174 91.1245 158.268 93.0905C160.705 94.292 167.016 96.3345 175.313 96.3345H175.489C185.598 96.3345 191.744 93.4291 192.413 93.1015C196.518 91.1354 199.591 88.2738 201.304 84.8005C205.76 75.8878 203.938 64.4849 196.957 57.6803C193.05 53.8793 188.221 51.5856 182.184 50.6682C180.209 50.3514 178.035 50.2422 176.224 50.2203C176.202 50.2203 176.18 50.2203 176.159 50.2203C175.643 50.2203 175.05 50.2203 174.534 50.2203C174.512 50.2203 174.49 50.2203 174.468 50.2203V50.2094Z" fill="#222222"/>
        <path d="M175.5 84.1677C176.422 83.7417 177.388 82.8898 177.585 81.1859C177.585 81.175 177.585 81.1531 177.585 81.1422V81.1095C177.607 80.9565 177.629 80.8255 177.651 80.6944C177.739 80.1811 177.838 79.6349 177.882 79.0997C178.804 78.2806 179.374 77.1883 179.407 75.976C179.473 73.3546 177.004 71.1701 173.876 71.0828C170.748 70.9954 168.157 73.0597 168.091 75.6701C168.059 77.09 168.761 78.3789 169.913 79.2745C169.935 79.7332 169.979 80.192 170.056 80.6398C170.188 81.4262 170.44 82.442 170.912 83.1519C171.066 83.3595 172.591 85.3146 175.489 84.1568" fill="#F1D4DA"/>
        <path d="M176.279 77.0466C176.444 80.7384 175.818 81.6449 175.357 82.1255C174.787 82.7372 173.546 82.8682 172.8 82.5624C171.889 82.191 171.176 81.2408 171.121 77.0357C171.121 77.0357 173.195 76.9483 173.48 75.8779C173.48 75.8779 173.766 76.9592 175.028 77.0029" fill="#E94E64"/>
        <path d="M171.373 77.5493C170.627 77.5493 169.858 77.2544 169.354 76.4899C169.189 76.2387 169.255 75.9001 169.507 75.7362C169.76 75.5724 170.1 75.6379 170.265 75.8891C170.704 76.5445 171.516 76.5663 172.119 76.2933C172.515 76.1185 172.921 75.769 172.976 75.2884C172.943 75.1246 172.932 74.9607 172.921 74.7751C172.921 74.502 173.118 74.2617 173.393 74.218C173.667 74.1853 173.93 74.3491 173.996 74.6112C174.051 74.8078 174.073 75.0044 174.073 75.1901C174.315 76.184 175.237 76.3588 175.544 76.4025C176.191 76.4789 176.96 76.2168 177.091 75.6707C177.168 75.3758 177.465 75.201 177.761 75.2775C178.057 75.3539 178.233 75.6489 178.156 75.9438C177.893 76.9814 176.74 77.6367 175.423 77.4947C174.776 77.4183 174.062 77.1343 173.568 76.5554C173.316 76.8503 172.987 77.1015 172.58 77.2872C172.218 77.451 171.801 77.5493 171.373 77.5493Z" fill="#222222"/>
        <path d="M175.456 72.6223C174.896 72.0871 173.766 72.0762 173.546 72.0762C173.316 72.0762 172.196 72.0762 171.637 72.6223C171.428 72.8189 171.318 73.0701 171.318 73.365C171.318 74.5555 172.054 75.2983 173.327 75.4075C173.327 75.4075 173.458 75.4075 173.579 75.4075C173.645 75.4075 173.711 75.4075 173.766 75.4075C175.039 75.2983 175.774 74.5555 175.774 73.365C175.774 73.0701 175.665 72.8189 175.456 72.6223Z" fill="#222222"/>
        <path d="M168.07 72.1757C168.07 73.2242 167.181 74.0653 166.094 74.0653C165.007 74.0653 164.118 73.2133 164.118 72.1757C164.118 71.1381 165.007 70.2861 166.094 70.2861C167.181 70.2861 168.07 71.1381 168.07 72.1757Z" fill="#222222"/>
        <path d="M184.215 72.1757C184.215 73.2242 183.326 74.0653 182.239 74.0653C181.152 74.0653 180.263 73.2133 180.263 72.1757C180.263 71.1381 181.152 70.2861 182.239 70.2861C183.326 70.2861 184.215 71.1381 184.215 72.1757Z" fill="#222222"/>
        <path d="M188.287 54.033C190.569 50.4177 194.51 48.7029 198.241 48.7684C202.851 48.8449 207.077 51.9031 207.362 56.7963C207.461 58.4784 207.911 64.584 200.316 67.5111" fill="white"/>
        <path d="M200.327 68.0464C200.107 68.0464 199.899 67.9154 199.811 67.6969C199.701 67.413 199.844 67.0962 200.129 66.987C207.263 64.2455 206.934 58.6969 206.824 56.8729C206.539 51.9797 202.291 49.3692 198.241 49.3037C194.312 49.2382 190.778 51.1168 188.759 54.3171C188.594 54.5683 188.254 54.6557 188.001 54.4918C187.749 54.328 187.672 54.0003 187.826 53.7382C190.054 50.2103 193.972 48.1459 198.263 48.2115C202.818 48.2879 207.604 51.2479 207.922 56.7527C208.251 62.2248 205.76 65.993 200.524 68.0028C200.459 68.0246 200.393 68.0355 200.327 68.0355V68.0464Z" fill="#222222"/>
        <path d="M175.917 54.7428C186.157 54.7428 187.793 52.1433 187.793 52.1433C187.112 42.4006 178.233 41.6906 175.939 41.6797H175.72C173.546 41.6797 164.48 42.3023 163.8 52.1433C163.8 52.1433 165.435 54.7428 175.676 54.7428H175.917Z" fill="#009BCF"/>
        <path d="M175.917 55.2891H175.676C165.424 55.2891 163.515 52.7224 163.339 52.4384C163.273 52.3401 163.251 52.2309 163.251 52.1107C163.976 41.6908 173.766 41.1447 175.72 41.1338H175.939C177.882 41.1447 187.617 41.7564 188.341 52.1107C188.341 52.2309 188.32 52.3401 188.254 52.4384C188.067 52.7333 186.157 55.2891 175.917 55.2891ZM164.371 51.9578C164.854 52.4166 167.268 54.1969 175.687 54.1969H175.928C184.302 54.1969 186.739 52.4275 187.233 51.9578C186.476 43.0124 178.409 42.2479 175.939 42.226H175.73C173.25 42.226 165.128 42.9578 164.371 51.9578Z" fill="#222222"/>
        <path d="M173.645 52.5475C173.645 52.5475 176.477 49.5876 177.739 47.0863C177.739 47.0863 175.335 46.9444 174.15 46.999C174.15 46.999 175.017 44.2029 175.149 43.8643C175.149 43.8643 173.074 46.0378 170.978 48.9322C170.978 48.9322 173.096 48.9868 174.732 48.8885L173.634 52.5475H173.645Z" fill="#F5DD33"/>
        <path d="M173.645 53.0933C173.546 53.0933 173.459 53.0715 173.371 53.0169C173.151 52.8858 173.052 52.6346 173.118 52.3834L173.996 49.4562C172.537 49.4999 171.044 49.4671 170.967 49.4671C170.759 49.4671 170.583 49.347 170.484 49.1613C170.396 48.9756 170.407 48.7681 170.528 48.6042C172.624 45.7098 174.721 43.5035 174.743 43.4817C174.929 43.296 175.215 43.2523 175.434 43.4052C175.654 43.5472 175.741 43.8312 175.643 44.0715C175.566 44.2462 175.193 45.4258 174.885 46.4416C176.115 46.4416 177.684 46.5399 177.761 46.5508C177.948 46.5508 178.112 46.6601 178.2 46.8239C178.288 46.9877 178.299 47.1734 178.211 47.3372C176.927 49.8821 174.139 52.8093 174.018 52.9295C173.909 53.0387 173.766 53.1042 173.623 53.1042L173.645 53.0933ZM174.743 48.3421C174.907 48.3421 175.072 48.4186 175.171 48.5496C175.28 48.6916 175.313 48.8773 175.27 49.0411L174.896 50.2863C175.544 49.4889 176.279 48.5278 176.839 47.5885C176.038 47.5448 174.874 47.512 174.183 47.5448C174.007 47.5775 173.832 47.4792 173.722 47.3372C173.612 47.1953 173.579 47.0096 173.634 46.8457C173.667 46.7256 173.744 46.4853 173.832 46.2013C173.305 46.8348 172.69 47.5775 172.065 48.4076C172.811 48.4076 173.832 48.4076 174.71 48.353H174.743V48.3421Z" fill="#F5DD33"/>
        <path d="M173.689 83.2723C173.294 83.2723 172.899 83.2067 172.58 83.0756C171.373 82.5841 170.616 81.4045 170.561 77.0574C170.561 76.7516 170.802 76.5113 171.099 76.5004C171.395 76.5004 171.647 76.7407 171.647 77.0356C171.713 81.5356 172.569 81.896 172.986 82.0599C173.535 82.2783 174.523 82.1909 174.94 81.754C175.226 81.4591 175.884 80.7601 175.708 77.0684C175.697 76.7625 175.928 76.5113 176.235 76.5004C176.543 76.4786 176.795 76.7188 176.806 77.0247C176.971 80.6837 176.389 81.8196 175.73 82.5077C175.236 83.032 174.424 83.2723 173.667 83.2723H173.689Z" fill="#222222"/>
        <path d="M186.102 96.4992C185.126 96.4774 180.516 95.8657 179.21 95.7565C177.212 95.6036 174.6 95.3196 173.063 96.9579C171.933 98.1594 171.812 100.311 172.218 101.818C172.811 103.861 174.973 104.789 176.839 105.324C179.759 106.144 183.249 106.307 186.267 106.002" fill="white"/>
        <path d="M183.413 106.69C181.021 106.69 178.683 106.406 176.696 105.849C175.643 105.543 172.46 104.637 171.691 101.972C171.252 100.344 171.362 97.9741 172.668 96.587C174.326 94.8285 177.037 95.047 179.012 95.1999L179.254 95.2217C179.824 95.2654 181.01 95.4074 182.261 95.5494C183.82 95.7351 185.598 95.9426 186.124 95.9535C186.432 95.9535 186.662 96.2156 186.662 96.5106C186.662 96.8164 186.377 97.0457 186.102 97.0457C185.521 97.0348 183.798 96.8273 182.14 96.6307C180.911 96.4887 179.737 96.3467 179.177 96.303L178.924 96.2812C177.07 96.1392 174.765 95.9535 173.47 97.3297C172.504 98.3564 172.383 100.29 172.756 101.666C173.162 103.086 174.512 104.08 177.004 104.79C179.66 105.532 183.029 105.773 186.223 105.456C186.53 105.423 186.794 105.642 186.827 105.947C186.86 106.253 186.64 106.515 186.333 106.548C185.367 106.646 184.39 106.69 183.413 106.69Z" fill="#222222"/>
        <path d="M229.888 44.4713L229.885 44.9082L236.756 44.9452L236.758 44.5083L229.888 44.4713Z" fill="#181818"/>
        <path d="M233.127 41.2838L233.094 48.1211L233.533 48.1232L233.566 41.2858L233.127 41.2838Z" fill="#181818"/>
        <path d="M239.378 44.4713L239.376 44.9082L246.246 44.9452L246.249 44.5083L239.378 44.4713Z" fill="#181818"/>
        <path d="M242.61 41.2945L242.578 48.1318L243.017 48.1339L243.049 41.2966L242.61 41.2945Z" fill="#181818"/>
        <path d="M248.868 44.4713L248.866 44.9082L255.736 44.9452L255.739 44.5083L248.868 44.4713Z" fill="#181818"/>
        <path d="M252.094 41.2945L252.062 48.1318L252.501 48.1339L252.533 41.2966L252.094 41.2945Z" fill="#181818"/>
    </g>
    <defs>
        <clipPath id="clip0_5349_86423">
            <rect width="270" height="170" rx="10.9756" fill="white"/>
        </clipPath>
    </defs>
</svg>
