<svg width="270" height="170" viewBox="0 0 270 170" fill="none" xmlns="http://www.w3.org/2000/svg">
    <g clip-path="url(#clip0_5344_85744)">
        <path d="M270.06 164.284C270.063 164.284 270.066 164.287 270.066 164.29C270.063 167.576 267.366 170.23 264.055 170.23H6.07655C2.75219 170.23 0.0658493 167.551 0.0658493 164.273V6.188C0.0658493 2.89918 2.76339 0.230469 6.07655 0.230469H264.044C267.357 0.241542 270.055 2.91025 270.055 6.188V164.278C270.055 164.282 270.057 164.284 270.06 164.284V164.284Z" fill="#40A4FF"/>
        <path d="M41.773 140.607H37.7456V41.7822C37.7456 40.9361 38.6255 40.2705 39.7536 40.2705C40.8818 40.2705 41.7617 40.9361 41.7617 41.7822V140.596L41.773 140.607ZM38.8737 139.479H40.6449V41.7822C40.6449 41.6694 40.3403 41.3986 39.7649 41.3986C39.1896 41.3986 38.885 41.6694 38.885 41.7822V139.468L38.8737 139.479Z" fill="#191A1A"/>
        <path d="M20.0563 66.1284L12.2834 55.4337L22.9669 47.6608L22.9782 47.627L63.3655 54.0235L60.4436 72.5137L20.0563 66.1284Z" fill="white"/>
        <path d="M60.9062 73.1663L19.7292 66.6569L11.4825 55.3192L22.448 47.3545L22.5044 47.0273L23.0572 47.0838L63.9973 53.5593L60.8949 73.1776L60.9062 73.1663ZM20.3722 65.6078L59.9698 71.8689L62.7225 54.4843L23.1587 48.2232L13.0732 55.5561L20.3722 65.6078Z" fill="#231815"/>
        <path d="M33.3796 54.8777L32.1838 62.4249L30.0855 62.0977L30.7172 58.0929L29.3184 60.5296L27.5697 60.2476L27.0282 57.5175L26.3965 61.5111L24.3207 61.184L25.5165 53.6367L28.2241 54.0654L28.9348 57.6303L30.7624 54.4715L33.3684 54.889L33.3796 54.8777Z" fill="#009BCF"/>
        <path d="M40.8704 59.9205C40.6561 61.2969 40.2048 62.2558 39.5392 62.7747C38.8736 63.2937 37.8921 63.4629 36.6173 63.2598C35.2974 63.0455 34.4062 62.6055 33.9549 61.9399C33.5037 61.263 33.3909 60.2139 33.6165 58.7811C33.8308 57.4161 34.2708 56.4797 34.9477 55.9495C35.6133 55.4306 36.5835 55.2613 37.8583 55.4644C39.1782 55.6787 40.0694 56.1074 40.532 56.7843C40.9945 57.4499 41.1073 58.4991 40.8817 59.9318L40.8704 59.9205ZM35.8728 59.1308C35.76 59.8416 35.7712 60.338 35.9066 60.62C36.042 60.902 36.3917 61.0825 36.9445 61.1615C37.5086 61.2517 37.9034 61.1841 38.1178 60.9697C38.3321 60.7554 38.4901 60.2815 38.6029 59.5595C38.7157 58.8262 38.7044 58.3073 38.569 58.0366C38.4336 57.7658 38.0839 57.574 37.5199 57.4838C36.9558 57.3935 36.5722 57.4612 36.3579 57.6868C36.1435 57.9125 35.9856 58.3976 35.8615 59.1308H35.8728Z" fill="#009BCF"/>
        <path d="M43.939 64.2846L41.1074 63.8334L42.3032 56.2861L45.1348 56.7374C45.8907 56.8615 46.4886 57.0194 46.9173 57.2225C47.3573 57.4255 47.6844 57.685 47.9101 58.0235C48.1357 58.3506 48.2711 58.768 48.3275 59.2644C48.3839 59.7608 48.35 60.37 48.2372 61.092C48.0342 62.4006 47.5829 63.3144 46.906 63.8221C46.2291 64.341 45.2364 64.4877 43.939 64.2846ZM45.9358 60.731C46.0486 60.0203 46.0374 59.5352 45.902 59.2644C45.7666 58.9937 45.4056 58.8132 44.819 58.7229L44.2211 58.6327L43.657 62.175L44.2549 62.2653C44.8415 62.3555 45.2364 62.2991 45.4507 62.0848C45.6651 61.8704 45.823 61.4192 45.9245 60.7423L45.9358 60.731Z" fill="#009BCF"/>
        <path d="M53.3815 62.4464L54.0584 58.1482L56.2921 58.498L55.6152 62.8074C55.4347 63.9243 55.0286 64.7253 54.3856 65.1991C53.7425 65.6729 52.8626 65.8308 51.7683 65.6503C50.595 65.4698 49.7828 65.0637 49.3428 64.4432C48.8915 63.8228 48.7674 62.9315 48.9479 61.747L49.6248 57.4375L51.8473 57.7872L51.1704 62.0854C51.0914 62.5931 51.114 62.9428 51.2381 63.1459C51.3622 63.3489 51.6442 63.4843 52.0842 63.552C52.5129 63.6197 52.8175 63.5746 52.998 63.4166C53.1785 63.2587 53.3138 62.9315 53.3928 62.4351L53.3815 62.4464Z" fill="#009BCF"/>
        <path d="M50.8094 94.0611L56.8675 85.7242L48.5306 79.6661V79.6436L24.3997 83.4792L26.6898 97.8968L50.8094 94.0611Z" fill="white"/>
        <path d="M26.216 98.5502L23.7567 83.0045L48.9931 78.9883L49.0495 79.338L57.6572 85.5879L51.1253 94.5679L50.8997 94.6017L26.2273 98.5276L26.216 98.5502ZM25.0428 83.9408L27.1524 97.2528L50.4823 93.5413L56.0778 85.8474L48.3501 80.2292L25.0428 83.9295V83.9408Z" fill="#231815"/>
        <path d="M32.7141 86.3448L34.9704 85.9838C36.2114 85.792 37.1026 86.435 37.2718 87.5632C37.4523 88.7026 36.798 89.5713 35.5345 89.7743L34.6094 89.921L34.8802 91.647L33.5828 91.8501L32.7029 86.3335L32.7141 86.3448ZM35.1283 88.7928C35.7375 88.7026 36.0083 88.3078 35.9293 87.7888C35.8503 87.2699 35.4668 86.9991 34.8576 87.0894L34.1694 87.2022L34.4402 88.9057L35.1283 88.7928Z" fill="#009BCF"/>
        <path d="M39.3137 88.4536C39.607 88.3859 40.126 88.2844 40.2952 88.2505L40.2388 87.9121C40.1937 87.6187 39.9567 87.4947 39.607 87.5511C39.2686 87.5962 39.0655 87.788 39.0655 88.07L37.8697 88.2618C37.8133 87.5172 38.3322 86.8178 39.4942 86.6373C40.5208 86.4793 41.3895 86.829 41.5361 87.7316L41.9874 90.5406L40.7803 90.7324L40.69 90.1571H40.6562C40.4983 90.6196 40.1372 90.9129 39.5619 91.0032C38.7722 91.1273 38.1292 90.8114 38.0051 89.9991C37.8584 89.0853 38.5127 88.6453 39.3363 88.4648L39.3137 88.4536ZM39.7988 90.0894C40.2388 90.0217 40.5321 89.6832 40.4644 89.2771L40.4193 89.0064C40.2613 89.0402 39.8327 89.1305 39.6409 89.1756C39.325 89.2658 39.1445 89.4689 39.1896 89.7509C39.2347 90.033 39.4829 90.1458 39.7875 90.0894H39.7988Z" fill="#009BCF"/>
        <path d="M42.9576 91.9507L42.7996 90.9805C42.9689 90.9692 43.1494 90.9354 43.3073 90.9128C43.5104 90.879 43.6796 90.8339 43.7473 90.5405L43.7698 90.4052L41.6151 86.3552L42.9576 86.1408L44.2098 88.9837H44.2549L44.5708 85.8813L45.9246 85.667L45.0785 90.4616C44.9544 91.1723 44.5595 91.7138 43.5893 91.8717C43.3412 91.9056 43.1155 91.9394 42.9463 91.9507H42.9576Z" fill="#009BCF"/>
        <path d="M172.355 125.807C173.742 123.257 174.995 120.222 175.796 117.357C176.157 116.195 176.371 114.807 175.841 113.645C174.859 111.592 171.599 111.321 169.636 110.87C165.078 109.889 160.16 109.212 155.467 109.528C152.297 109.753 150.018 111.005 148.01 113.42C148.01 113.42 141.839 119.895 146.182 125.795" fill="#222222"/>
        <path d="M172.355 126.595C172.231 126.595 172.095 126.561 171.983 126.493C171.599 126.279 171.452 125.805 171.667 125.422C173.043 122.895 174.273 119.883 175.04 117.141C175.457 115.776 175.48 114.749 175.13 113.971C174.487 112.617 172.287 112.2 170.527 111.861C170.144 111.794 169.783 111.715 169.467 111.647C164.108 110.485 159.55 110.056 155.534 110.327C152.669 110.53 150.537 111.647 148.63 113.937C148.359 114.219 142.944 120.052 146.825 125.343C147.085 125.692 147.006 126.189 146.656 126.448C146.306 126.708 145.81 126.629 145.55 126.279C140.88 119.916 147.378 112.956 147.446 112.888C149.612 110.282 152.094 108.996 155.422 108.759C159.584 108.477 164.289 108.928 169.805 110.113C170.121 110.181 170.471 110.248 170.832 110.316C172.829 110.699 175.57 111.23 176.563 113.305C177.093 114.456 177.093 115.855 176.563 117.581C175.762 120.413 174.487 123.549 173.066 126.178C172.919 126.437 172.648 126.595 172.366 126.595H172.355Z" fill="#222222"/>
        <path d="M171.757 78.2452C173.562 78.516 175.818 78.9334 177.781 79.5877C182.204 80.9979 185.938 83.3557 188.713 87.0672C193.507 93.4751 193.372 102.782 188.713 109.19C186.716 111.965 183.704 113.725 180.455 114.661C178.503 115.259 173.348 116.139 166.556 115.034L166.421 115.011C159.618 113.906 154.948 111.435 153.267 110.25C150.48 108.333 148.19 105.704 147.175 102.444C144.772 94.8852 147.604 86.0068 154.169 81.4491C157.982 78.8093 162.269 77.7488 166.906 77.8165C168.97 77.8165 171.249 78.1324 173.043 78.4595" fill="white"/>
        <path d="M173.009 116.341C171.012 116.341 168.779 116.183 166.432 115.8L166.308 115.777C158.005 114.424 153.323 111.231 152.816 110.87C149.623 108.67 147.412 105.827 146.419 102.657C143.892 94.6699 146.96 85.4756 153.718 80.7825C157.486 78.1765 161.773 76.9807 166.917 77.0032C168.846 77.0032 170.956 77.2853 172.547 77.5448C174.137 77.8042 176.191 78.2103 178.018 78.8083C182.88 80.3651 186.592 82.9034 189.333 86.5698C194.263 93.1582 194.263 102.86 189.333 109.64C187.393 112.337 184.392 114.333 180.658 115.405C179 115.913 176.292 116.33 172.998 116.33L173.009 116.341ZM166.534 78.5939C161.92 78.5939 158.016 79.7333 154.621 82.0911C148.416 86.4006 145.595 94.8504 147.919 102.195C148.811 105.037 150.807 107.587 153.707 109.584C155.444 110.814 160.092 113.171 166.534 114.22L166.658 114.243C174.521 115.518 179.654 114.074 180.207 113.905C183.602 112.923 186.31 111.129 188.047 108.726C192.582 102.499 192.594 93.5869 188.07 87.5288C185.531 84.1331 182.079 81.7753 177.533 80.3312C176.044 79.8461 174.374 79.4851 172.964 79.237C172.941 79.237 172.919 79.237 172.896 79.237C172.705 79.2031 172.501 79.1693 172.287 79.1354C172.062 79.1016 171.836 79.0677 171.633 79.0339C171.61 79.0339 171.588 79.0339 171.565 79.0226C170.155 78.8083 168.463 78.6165 166.895 78.6165C166.771 78.6165 166.646 78.6165 166.522 78.6165L166.534 78.5939Z" fill="#222222"/>
        <path d="M168.779 80.3207C168.023 78.9669 166.725 76.3948 166.455 74.3867C166.116 71.8484 168 68.6332 170.572 69.8516C171.576 70.348 172.806 72.3448 172.468 73.6308C171.565 71.2053 173.833 68.2271 176.224 68.5655C177.567 68.7347 178.853 70.0546 179.011 71.5212C179.203 73.2473 178.21 74.0144 177.747 74.7928C177.736 74.8267 177.702 74.8267 177.691 74.8605C178.954 72.2658 182.113 71.5325 183.332 74.2739C184.99 77.9855 179.62 81.5729 177.116 82.8252" fill="#222222"/>
        <path d="M177.116 83.6144C176.822 83.6144 176.552 83.4565 176.405 83.1744C176.213 82.7796 176.371 82.3058 176.766 82.114C179.372 80.8166 183.941 77.5789 182.61 74.5893C182.249 73.7658 181.673 73.3258 180.951 73.3145C180.342 73.2807 179.722 73.5965 179.203 74.0816C179.056 74.3186 178.887 74.5329 178.751 74.7247C178.639 74.8826 178.515 75.0293 178.436 75.1759C178.402 75.2323 178.357 75.2888 178.311 75.3452C178.097 75.6046 177.736 75.7062 177.409 75.5708C177.025 75.4129 176.822 74.9842 176.958 74.5893C176.958 74.5555 176.98 74.5216 177.003 74.4991C177.262 73.9688 177.589 73.495 177.973 73.1002C178.187 72.7053 178.323 72.2428 178.255 71.5997C178.142 70.528 177.161 69.4676 176.157 69.3435C175.344 69.2307 174.498 69.6368 173.855 70.4378C173.483 70.9116 173.235 71.4418 173.133 71.972C173.336 72.6038 173.415 73.2468 173.257 73.8335C173.167 74.1719 172.874 74.4088 172.535 74.4201C172.186 74.4652 171.87 74.2283 171.757 73.9011C171.554 73.3484 171.475 72.7504 171.52 72.1638C171.204 71.4531 170.663 70.7649 170.245 70.5619C169.647 70.2798 169.095 70.3137 168.576 70.6972C167.662 71.3628 167.075 72.9422 167.256 74.2847C167.515 76.2364 168.903 78.8875 169.478 79.9367C169.692 80.3202 169.557 80.7941 169.174 81.0084C168.79 81.2228 168.316 81.0874 168.102 80.7038C167.323 79.3049 165.97 76.6425 165.688 74.4991C165.428 72.5699 166.252 70.4378 167.639 69.4337C168.621 68.7117 169.794 68.6215 170.922 69.1517C171.317 69.3435 171.746 69.7158 172.118 70.1783C172.253 69.9301 172.423 69.6932 172.603 69.4563C173.596 68.2266 174.983 67.6061 176.337 67.7866C178.075 68.0123 179.598 69.6142 179.801 71.4305C179.823 71.5997 179.823 71.7577 179.834 71.9043C180.207 71.7915 180.59 71.7351 180.985 71.7351C182.328 71.7577 183.444 72.5587 184.065 73.9463C185.881 78.0189 180.782 81.8884 177.488 83.5242C177.375 83.5806 177.251 83.6031 177.138 83.6031L177.116 83.6144Z" fill="#222222"/>
        <path d="M167.887 98.6542C164.92 98.9363 163.612 101.869 165.135 103.821C166.568 105.671 169.862 106.326 172.016 105.694C173.133 105.401 174.002 104.915 174.386 103.753C174.645 102.885 174.634 101.7 174.058 100.933C172.919 99.4101 170.347 98.3271 167.899 98.6542" fill="#F5DD33"/>
        <path d="M170.245 106.719C168.136 106.719 165.755 105.929 164.503 104.305C163.634 103.199 163.454 101.766 164.018 100.469C164.65 99.0138 166.06 98.0436 167.797 97.8744C170.415 97.5247 173.303 98.619 174.679 100.458C175.48 101.496 175.423 103.007 175.13 103.966C174.566 105.647 173.19 106.189 172.208 106.448C171.622 106.617 170.945 106.708 170.245 106.708V106.719ZM168.767 99.3861C168.508 99.3861 168.248 99.3974 167.978 99.4425H167.944C166.782 99.5553 165.857 100.176 165.451 101.101C165.124 101.868 165.225 102.692 165.733 103.346C166.951 104.925 169.918 105.489 171.768 104.937C172.851 104.655 173.359 104.248 173.607 103.504C173.788 102.883 173.81 101.958 173.393 101.417C172.603 100.345 170.73 99.3974 168.756 99.3974L168.767 99.3861Z" fill="#222222"/>
        <path d="M169.749 103.414C169.636 103.414 169.512 103.414 169.377 103.38C168.553 103.245 168 102.681 168.068 102.026C168.113 101.541 168.519 101.056 169.343 101.045C169.952 100.977 170.539 101.237 170.832 101.699C171.069 102.083 171.08 102.534 170.843 102.895C170.708 103.098 170.392 103.414 169.749 103.414ZM169.602 101.925C169.523 102.004 169.456 102.117 169.433 102.263C169.433 102.365 169.433 102.455 169.478 102.511C169.546 102.444 169.602 102.353 169.625 102.229C169.647 102.117 169.625 102.004 169.602 101.936V101.925Z" fill="#222222"/>
        <path d="M167.346 96.1363C167.199 97.0614 166.489 97.7044 165.767 97.5916C165.045 97.4788 164.582 96.6327 164.729 95.7189C164.875 94.8051 165.586 94.1508 166.308 94.2636C167.03 94.3764 167.493 95.2225 167.346 96.1363Z" fill="#222222"/>
        <path d="M176.157 97.5584C176.01 98.4835 175.299 99.1265 174.577 99.0137C173.855 98.9009 173.393 98.0548 173.539 97.141C173.686 96.2159 174.397 95.5729 175.119 95.6857C175.841 95.7985 176.303 96.6446 176.157 97.5584Z" fill="#222222"/>
        <path d="M173.054 78.4468C172.851 78.4129 172.626 78.3678 172.411 78.334C172.197 78.3001 171.971 78.2663 171.768 78.2324L173.054 78.4468Z" fill="white"/>
        <path d="M173.054 79.2376C173.054 79.2376 172.964 79.2376 172.93 79.2376L171.644 79.0233C171.215 78.9556 170.922 78.5495 170.99 78.1208C171.058 77.6921 171.452 77.3988 171.881 77.4552L173.19 77.6695C173.618 77.7485 173.9 78.1546 173.833 78.5833C173.765 78.9669 173.438 79.2376 173.054 79.2376Z" fill="#222222"/>
        <path d="M188.713 87.0556C185.938 83.344 182.203 80.9862 177.781 79.5761C176.044 79.0007 174.081 78.6059 172.4 78.3351C172.614 78.369 172.84 78.4141 173.043 78.4479L171.757 78.2336C171.971 78.2674 172.186 78.3013 172.4 78.3351C170.719 78.0531 168.734 77.8162 166.906 77.8049C162.269 77.7485 157.982 78.7976 154.169 81.4375C147.976 85.7357 145.11 93.8696 146.814 101.135C146.453 94.4675 148.946 88.3755 154.282 84.9798C163.33 79.2263 172.016 85.7695 172.016 85.7695C172.016 85.7695 180.726 82.0467 187.483 90.3723C191.477 95.291 191.917 101.857 189.457 108.062C193.372 101.721 193.237 93.0911 188.713 87.0556Z" fill="#222222"/>
        <path d="M189.457 108.862C189.333 108.862 189.221 108.84 189.108 108.783C188.747 108.603 188.578 108.163 188.724 107.79C191.195 101.541 190.529 95.3809 186.874 90.8909C180.568 83.1181 172.411 86.4799 172.332 86.5138C172.073 86.6266 171.768 86.5927 171.543 86.4235C171.204 86.1753 163.172 80.2865 154.711 85.6677C149.826 88.7701 147.231 94.3995 147.604 101.112C147.626 101.518 147.333 101.879 146.927 101.935C146.521 101.992 146.137 101.732 146.047 101.337C144.23 93.6436 147.389 85.2051 153.718 80.8167C157.486 78.2107 161.773 77.0149 166.917 77.0374C168.508 77.0374 170.403 77.2292 172.524 77.5789C174.645 77.9174 176.495 78.3461 178.018 78.8424C182.88 80.3993 186.592 82.9376 189.333 86.604C193.947 92.7749 194.263 101.777 190.112 108.501C189.965 108.738 189.706 108.873 189.435 108.873L189.457 108.862ZM176.71 84.1898C179.992 84.1898 184.358 85.2728 188.092 89.8869C189.796 91.9852 190.913 94.3882 191.432 96.9942C191.24 93.5872 190.112 90.2592 188.081 87.5404C185.543 84.1447 182.091 81.7869 177.544 80.3429C176.258 79.9255 174.735 79.5532 172.987 79.2486C172.964 79.2486 172.942 79.2486 172.93 79.2486L171.644 79.0342C171.644 79.0342 171.599 79.0342 171.588 79.0229C169.828 78.7635 168.26 78.6281 166.929 78.6168C162.145 78.5491 158.129 79.6998 154.643 82.114C151.845 84.0544 149.736 86.8522 148.472 90.0223C149.792 87.7209 151.608 85.7805 153.887 84.3365C162.224 79.0342 170.358 83.7386 172.152 84.9118C172.896 84.6636 174.589 84.2011 176.732 84.2011L176.71 84.1898Z" fill="#222222"/>
        <path d="M99.387 97.5155C97.0631 96.2407 94.976 95.169 92.7536 93.6573C91.5916 92.8563 90.4296 91.9989 89.3015 91.1641C88.602 90.6564 87.6431 90.16 86.8083 90.7354C84.8792 92.0102 87.4288 94.5147 88.5682 95.1351C87.2596 96.3535 86.8985 98.6549 87.4739 100.934C88.0605 103.269 89.8317 104.826 91.6931 106.259C93.453 107.635 100.797 112.712 107.103 114.832C106.077 117.01 105.389 119.435 104.971 121.748L144.828 121.511V104.826L99.3983 97.5268L99.387 97.5155Z" fill="white"/>
        <path d="M104.881 122.084C108.401 120.775 111.751 118.902 115.136 117.221C121.273 114.175 127.365 110.757 132.825 106.561L139.154 107.497C134.393 111.321 129.497 114.841 124.138 117.718C121.656 119.06 113.41 123.381 111.808 124.216" fill="#009BCF"/>
        <path d="M111.819 125.017C111.537 125.017 111.255 124.859 111.12 124.588C110.917 124.205 111.075 123.72 111.458 123.528C113.049 122.704 121.318 118.361 123.777 117.03C128.03 114.74 132.351 111.863 137.247 108.016L133.051 107.395C128.369 110.96 122.773 114.311 115.497 117.932C114.651 118.35 113.816 118.778 112.981 119.207C110.465 120.493 107.848 121.824 105.163 122.828C104.757 122.986 104.294 122.772 104.148 122.366C104.001 121.96 104.204 121.497 104.61 121.351C107.205 120.38 109.777 119.072 112.259 117.808C113.105 117.379 113.951 116.951 114.797 116.522C122.119 112.878 127.703 109.516 132.363 105.94C132.532 105.816 132.746 105.76 132.96 105.782L139.289 106.719C139.605 106.764 139.853 106.989 139.932 107.294C140.011 107.599 139.91 107.914 139.662 108.117C134.089 112.585 129.283 115.868 124.533 118.417C122.074 119.749 113.782 124.092 112.191 124.927C112.079 124.983 111.955 125.017 111.83 125.017H111.819Z" fill="#222222"/>
        <path d="M104.96 122.536C104.96 122.536 104.87 122.536 104.813 122.525C104.385 122.446 104.103 122.04 104.181 121.611C104.644 119.062 105.614 115.384 107.577 112.316C107.814 111.943 108.299 111.842 108.671 112.079C109.044 112.316 109.145 112.801 108.908 113.173C107.081 116.027 106.178 119.502 105.738 121.905C105.671 122.288 105.332 122.548 104.96 122.548V122.536Z" fill="#222222"/>
        <path d="M99.387 98.3041C99.2629 98.3041 99.1276 98.2703 99.0035 98.2026L97.8189 97.5595C95.9462 96.5442 94.175 95.5853 92.3023 94.3105C91.1291 93.4982 89.9558 92.6409 88.8277 91.806C87.7672 91.0389 87.3837 91.2984 87.2596 91.3886C86.9324 91.603 86.8986 91.7948 86.9098 91.9527C86.9437 92.765 88.1734 94.0172 88.9518 94.4346C89.3353 94.6377 89.482 95.1228 89.2676 95.5063C89.0646 95.8899 88.5795 96.0253 88.1959 95.8222C87.237 95.3033 85.3981 93.6562 85.3305 92.0204C85.2966 91.2307 85.6689 90.5425 86.3796 90.0687C87.316 89.4257 88.4554 89.5723 89.764 90.52C90.8922 91.3548 92.0542 92.2009 93.2049 93.0019C95.0099 94.2203 96.7472 95.1679 98.5861 96.1607L99.7706 96.8037C100.154 97.018 100.29 97.4919 100.086 97.8754C99.9398 98.1349 99.6691 98.2815 99.3983 98.2815L99.387 98.3041Z" fill="#222222"/>
        <path d="M107.115 115.632C107.036 115.632 106.945 115.621 106.867 115.587C100.301 113.387 92.8325 108.164 91.1967 106.878C89.2901 105.4 87.361 103.73 86.7067 101.124C86.0298 98.4503 86.5375 95.9346 88.0266 94.5583C88.3425 94.2649 88.8502 94.2762 89.1435 94.6034C89.4368 94.9193 89.4255 95.4269 89.0984 95.7202C88.0492 96.7017 87.7107 98.6647 88.2297 100.752C88.7599 102.873 90.4634 104.328 92.1669 105.648C93.6673 106.821 101.079 111.999 107.363 114.098C107.78 114.233 107.995 114.684 107.859 115.102C107.746 115.429 107.442 115.643 107.115 115.643V115.632Z" fill="#222222"/>
        <path d="M56.9013 123.009C56.9013 123.009 73.6316 101.609 81.4158 98.292C81.4158 98.292 73.3157 120.753 63.625 130.591" fill="white"/>
        <path d="M96.6795 123.809C97.6384 124.813 97.5933 126.404 96.5892 127.352C95.5852 128.31 93.9945 128.265 93.0469 127.261L82.1152 115.743C81.1676 114.739 81.2014 113.148 82.2055 112.201C83.2095 111.242 84.8002 111.287 85.7478 112.291L96.6795 123.809Z" fill="#222222"/>
        <path d="M94.8632 128.829C94.8632 128.829 94.8068 128.829 94.7729 128.829C93.893 128.807 93.0694 128.446 92.4715 127.803L81.5399 116.284C80.9307 115.641 80.6148 114.807 80.6374 113.927C80.6599 113.047 81.0209 112.223 81.664 111.625C82.307 111.016 83.1305 110.678 84.0218 110.723C84.9017 110.745 85.7253 111.106 86.3232 111.749L97.2548 123.268C97.864 123.911 98.1799 124.745 98.1573 125.625C98.1348 126.505 97.7738 127.329 97.1307 127.927C96.5102 128.513 95.7093 128.829 94.8632 128.829ZM83.9315 112.291C83.4915 112.291 83.0741 112.46 82.747 112.765C82.4085 113.081 82.228 113.509 82.2167 113.972C82.2055 114.434 82.3747 114.863 82.6906 115.201L93.6222 126.72C93.9381 127.047 94.3668 127.239 94.818 127.25C95.2693 127.284 95.7093 127.092 96.0477 126.776C96.3862 126.46 96.5667 126.032 96.5779 125.58C96.5892 125.118 96.42 124.689 96.1041 124.351L85.1725 112.832C84.8566 112.505 84.4279 112.313 83.9766 112.302C83.9654 112.302 83.9428 112.302 83.9315 112.302V112.291Z" fill="#222222"/>
        <path d="M191.206 144.793C190.225 130.94 183.027 122.343 178.21 120.437C173.381 118.53 153.673 118.79 127.274 118.993C107.713 119.14 89.3578 119.963 81.145 120.369C82.4875 114.368 85.0596 100.943 84.755 99.0813C84.4166 96.983 81.8783 97.344 81.8783 97.344C81.6413 97.3891 81.4044 97.5922 81.2465 97.8968C80.9193 98.5172 81.506 98.2578 81.506 98.2578C78.5164 107.508 70.3149 121.464 70.3149 121.464C65.8136 121.734 52.4452 123.302 44.8189 125.322C37.1927 127.33 27.7841 131.955 25.4488 140.473C23.1249 148.99 26.1821 162.144 28.021 167.965C29.7019 173.279 42.5852 172.884 42.5852 172.884L153.368 172.264C153.368 172.264 161.773 172.297 163.962 172.264C189.164 172.151 192.492 162.765 191.217 144.782" fill="#AF84B9"/>
        <path d="M56.9013 123.8C56.7321 123.8 56.5629 123.744 56.4162 123.631C56.0778 123.36 56.0101 122.864 56.2809 122.525C56.969 121.646 73.2255 100.933 81.1112 97.5711C81.5173 97.4019 81.9798 97.5824 82.149 97.9885C82.3183 98.3946 82.1378 98.8572 81.7316 99.0264C74.2182 102.23 57.691 123.293 57.5218 123.507C57.3639 123.71 57.1382 123.812 56.9013 123.812V123.8Z" fill="#222222"/>
        <path d="M41.8971 173.699C39.1106 173.699 28.8897 173.338 27.2652 168.228C26.7011 166.457 21.8614 150.595 24.6818 140.284C27.457 130.119 39.5393 125.911 44.6047 124.58C51.8586 122.662 64.7194 121.072 69.8298 120.733C71.0933 118.545 77.6929 106.959 80.502 98.7457C80.3554 98.5314 80.22 98.1478 80.5246 97.5612C80.7953 97.0422 81.224 96.6925 81.7091 96.591C82.9049 96.4218 85.1612 96.7264 85.5222 98.9826C85.8607 101.07 83.2998 114.111 82.1265 119.56C90.8132 119.131 108.57 118.364 127.252 118.229L131.46 118.195C156.031 118.003 173.788 117.868 178.492 119.729C183.151 121.579 190.947 130.006 191.985 144.774C192.56 152.908 192.424 161.143 187.585 166.366C183.377 170.901 175.863 173.045 163.939 173.101C161.773 173.135 153.425 173.101 153.346 173.101L42.574 173.71C42.5063 173.71 42.2694 173.71 41.8859 173.71L41.8971 173.699ZM82.2619 98.114C82.2845 98.2493 82.2845 98.3847 82.2393 98.5201C79.2498 107.748 71.319 121.308 70.9805 121.884C70.8451 122.109 70.6082 122.256 70.3488 122.267C65.6106 122.549 52.3775 124.151 45.0108 126.092C40.2049 127.355 28.7656 131.315 26.2048 140.69C24.0162 148.711 26.7914 161.47 28.7769 167.743C30.0066 171.635 39.1445 172.21 42.5627 172.108L153.357 171.488C153.447 171.488 161.784 171.522 163.939 171.488C175.401 171.432 182.542 169.457 186.434 165.261C190.868 160.477 190.969 152.626 190.416 144.853C189.469 131.552 182.542 123.001 177.917 121.173C173.494 119.424 154.948 119.571 131.483 119.752L127.275 119.785C108.13 119.932 89.9671 120.722 81.5625 121.151C81.3932 121.275 81.1676 121.32 80.942 121.263C80.8743 121.252 80.7953 121.218 80.7389 121.184C78.2006 121.32 76.7453 121.399 76.6889 121.399C76.2489 121.399 75.8766 121.094 75.8541 120.654C75.8315 120.214 76.1587 119.842 76.5987 119.819C76.6551 119.819 78.054 119.729 80.5133 119.605C82.0588 112.622 84.2249 100.697 83.9879 99.197C83.83 98.1929 82.8147 98.0576 82.2845 98.0914L82.2619 98.114Z" fill="#222222"/>
        <path d="M25.3135 141.027C27.6826 140.824 30.1081 140.497 32.4546 140.17C33.6956 140.001 37.881 139.301 38.7271 139.335C39.0994 141.242 38.0615 143.656 36.2113 144.333C32.8608 145.574 28.1113 145.574 24.5915 146.014C24.5915 146.014 24.7043 143.261 25.3248 141.039" fill="#F5DD33"/>
        <path d="M24.5802 146.791C24.3884 146.791 24.1966 146.712 24.05 146.577C23.8807 146.419 23.7905 146.193 23.7905 145.967C23.7905 145.855 23.9146 143.102 24.5463 140.812C24.6366 140.496 24.9073 140.259 25.2458 140.236C27.5923 140.033 29.9388 139.718 32.3418 139.39C32.6802 139.345 33.233 139.255 33.876 139.165C36.2451 138.804 38.1178 138.533 38.7496 138.544C39.1106 138.556 39.4265 138.826 39.4942 139.187C39.9116 141.342 38.7947 144.23 36.4708 145.076C33.9776 146.001 30.7285 146.261 27.8743 146.486C26.7462 146.577 25.6632 146.667 24.6704 146.791C24.6366 146.791 24.6027 146.791 24.5689 146.791H24.5802ZM25.9339 141.759C25.6519 142.967 25.5053 144.264 25.4263 145.11C26.1709 145.031 26.9493 144.975 27.739 144.907C30.4916 144.681 33.6166 144.433 35.918 143.587C37.1928 143.125 37.9712 141.545 37.9825 140.169C36.9784 140.282 35.2524 140.541 34.1017 140.722C33.4473 140.823 32.8833 140.913 32.5448 140.958C30.4014 141.263 28.1338 141.568 25.9227 141.771L25.9339 141.759Z" fill="#222222"/>
        <path d="M26.8703 164.887C26.4416 164.887 26.0919 164.549 26.0806 164.109C26.0806 163.669 26.419 163.308 26.859 163.308C28.461 163.274 30.0629 163.285 31.6762 163.285C33.5601 163.285 35.5005 163.285 37.3958 163.24C37.8245 163.263 38.1968 163.567 38.2081 164.007C38.2193 164.447 37.8809 164.808 37.4409 164.82C35.5231 164.876 33.5601 164.876 31.6649 164.865C30.0629 164.865 28.4722 164.865 26.8816 164.887H26.8703Z" fill="#222222"/>
        <path d="M89.6512 163.149H89.3917C88.9517 163.149 88.602 162.788 88.602 162.359C88.602 161.931 88.963 161.57 89.3917 161.57C89.482 161.581 89.5609 161.57 89.6512 161.57C92.088 161.57 98.5071 161.423 105.885 161.254C115.666 161.028 126.756 160.769 132.351 160.769C132.791 160.769 133.141 161.118 133.141 161.558C133.141 161.998 132.791 162.348 132.351 162.348C126.778 162.348 115.7 162.607 105.919 162.833C98.5183 163.002 92.0992 163.149 89.6399 163.149H89.6512Z" fill="#222222"/>
        <path d="M187.619 129.916C185.859 129.893 184.291 129.758 182.519 130.13C180.342 130.604 179.372 132.409 179.868 134.586C180.376 136.662 182.847 136.854 184.595 136.865C186.457 136.887 188.656 136.865 189.83 135.816C190.868 134.879 191.048 133.368 190.721 132.104C190.349 130.649 189.446 129.972 187.664 129.927" fill="#DB3F36"/>
        <path d="M185.08 137.654C184.911 137.654 184.753 137.654 184.584 137.654C183.275 137.643 179.789 137.609 179.101 134.766C178.797 133.424 178.966 132.16 179.586 131.179C180.173 130.243 181.132 129.611 182.35 129.351C183.873 129.035 185.216 129.069 186.637 129.103C186.964 129.103 187.291 129.114 187.63 129.126C187.675 129.126 187.72 129.126 187.765 129.137C189.83 129.216 191.048 130.118 191.499 131.912C191.849 133.277 191.725 135.172 190.371 136.402C189.13 137.508 187.111 137.654 185.092 137.654H185.08ZM185.34 130.66C184.46 130.66 183.591 130.705 182.677 130.897C181.888 131.066 181.278 131.461 180.917 132.025C180.523 132.657 180.421 133.48 180.635 134.405C180.906 135.545 182.102 136.052 184.595 136.075C186.073 136.098 188.307 136.109 189.3 135.229C190.134 134.473 190.191 133.221 189.954 132.307C189.717 131.359 189.243 130.773 187.641 130.728C187.607 130.728 187.573 130.728 187.528 130.728C187.212 130.728 186.897 130.716 186.592 130.705C186.163 130.705 185.746 130.682 185.34 130.682V130.66Z" fill="#222222"/>
        <path d="M189.717 139.064C188.07 139.064 185.994 138.906 185.712 140.79C185.306 143.565 187.077 143.994 189.119 144.061C190.665 144.129 192.876 144.028 192.91 142.02C192.91 141.32 192.864 140.395 192.391 139.865C191.827 139.199 190.495 139.064 189.661 139.064" fill="#DB3F36"/>
        <path d="M189.728 144.862C189.514 144.862 189.3 144.862 189.096 144.851C187.822 144.806 186.389 144.625 185.543 143.61C184.956 142.91 184.753 141.917 184.945 140.665C185.306 138.24 187.743 138.251 189.367 138.274H189.559C189.559 138.274 189.627 138.274 189.661 138.274C190.766 138.274 192.233 138.465 193 139.357C193.62 140.067 193.711 141.105 193.711 142.03C193.699 142.82 193.429 143.463 192.921 143.948C192.109 144.715 190.868 144.884 189.74 144.884L189.728 144.862ZM189.13 139.842C187.393 139.842 186.637 140.011 186.502 140.891C186.389 141.681 186.468 142.245 186.75 142.594C187.201 143.136 188.273 143.237 189.153 143.26C189.672 143.283 191.217 143.35 191.827 142.775C191.951 142.662 192.109 142.459 192.12 141.996C192.12 141.692 192.12 140.744 191.793 140.372C191.533 140.056 190.766 139.853 189.807 139.842C189.773 139.842 189.74 139.842 189.706 139.842H189.333C189.254 139.842 189.187 139.842 189.108 139.842H189.13Z" fill="#222222"/>
        <path d="M146.25 161.885C145.201 161.885 144.591 161.885 144.546 161.885C144.106 161.885 143.757 161.524 143.757 161.095C143.757 160.666 144.118 160.305 144.546 160.305C144.58 160.294 145.178 160.305 146.261 160.305C152.962 160.305 177.556 160.192 188.183 158.602C188.611 158.545 189.017 158.839 189.085 159.267C189.153 159.696 188.848 160.102 188.42 160.17C177.68 161.783 152.951 161.896 146.238 161.896L146.25 161.885Z" fill="#222222"/>
        <path d="M68.7467 121.836C65.9941 122.569 63.9183 125.435 65.351 128.131C66.7386 130.771 69.2882 130.049 71.5896 129.315" fill="#AF84B9"/>
        <path d="M68.3858 130.771C66.9756 130.771 65.588 130.252 64.6629 128.492C63.986 127.206 63.9296 125.762 64.505 124.431C65.2044 122.84 66.75 121.543 68.555 121.069C68.9724 120.956 69.4124 121.205 69.5252 121.622C69.638 122.039 69.3898 122.479 68.9611 122.592C67.6186 122.953 66.4679 123.901 65.9603 125.063C65.6895 125.683 65.4865 126.665 66.0618 127.759C67.111 129.745 68.916 129.35 71.3528 128.56C71.7702 128.425 72.2102 128.65 72.3455 129.068C72.4809 129.485 72.2553 129.925 71.8379 130.06C70.8902 130.365 69.6267 130.771 68.3858 130.771Z" fill="#222222"/>
        <path d="M68.6114 123.076C68.7694 119.974 69.2319 116.082 72.2779 114.581C74.5793 113.453 80.4794 113.487 82.1716 113.825C85.1386 114.401 85.8155 118.27 85.8155 120.797C85.8155 122.162 85.7027 123.46 85.2627 124.757C84.7438 126.28 83.2095 127.656 81.6978 128.164C78.7195 129.168 73.4286 129.157 71.0256 128.863C70.5405 128.807 70.2247 128.502 69.9765 128.085" fill="#AF84B9"/>
        <path d="M74.4551 129.835C73.0901 129.835 71.8491 129.767 70.9354 129.654C70.2472 129.575 69.6944 129.18 69.2996 128.481C69.0852 128.109 69.2093 127.623 69.5816 127.398C69.9539 127.184 70.439 127.308 70.6646 127.68C70.8564 128.018 71.0031 128.063 71.1271 128.075C73.2706 128.334 78.4939 128.402 81.4496 127.409C82.8146 126.947 84.1007 125.728 84.5181 124.499C84.8791 123.449 85.0371 122.344 85.0371 120.798C85.0371 119.478 84.8227 115.146 82.0362 114.605C80.4343 114.289 74.7033 114.289 72.6388 115.304C70.078 116.556 69.5703 119.963 69.4124 123.122C69.3898 123.562 69.0288 123.912 68.5888 123.867C68.1489 123.844 67.8217 123.472 67.8443 123.043C68.0248 119.422 68.6565 115.496 71.9507 113.883C74.4664 112.653 80.5584 112.71 82.3521 113.059C86.3232 113.838 86.6277 119.185 86.6277 120.81C86.6277 121.96 86.5601 123.472 86.0298 125.017C85.4658 126.698 83.7961 128.3 81.9685 128.921C79.9605 129.598 77.016 129.846 74.4777 129.846L74.4551 129.835Z" fill="#222222"/>
        <path d="M44.5595 156.843C44.4692 156.843 44.379 156.832 44.3 156.798C43.8939 156.651 43.6683 156.2 43.8149 155.794C46.9963 146.803 56.3147 140.756 67.0094 140.756C75.9104 140.756 84.0894 145.043 88.3538 151.936C88.5794 152.308 88.4666 152.793 88.0943 153.019C87.722 153.244 87.2369 153.132 87.0113 152.759C83.029 146.329 75.3689 142.324 67.0094 142.324C56.9916 142.324 48.2711 147.942 45.3041 156.302C45.1912 156.629 44.8866 156.832 44.5595 156.832V156.843Z" fill="#222222"/>
        <path d="M133.806 155.996C133.716 155.996 133.626 155.985 133.547 155.951C133.141 155.804 132.915 155.353 133.062 154.947C136.345 145.674 145.956 139.446 156.978 139.446C166.161 139.446 174.589 143.869 178.988 150.976C179.214 151.348 179.101 151.833 178.729 152.059C178.357 152.285 177.871 152.172 177.646 151.799C173.539 145.155 165.62 141.026 156.99 141.026C146.633 141.026 137.619 146.836 134.562 155.477C134.449 155.804 134.145 156.007 133.818 156.007L133.806 155.996Z" fill="#222222"/>
        <path d="M221.237 148.505H204.202C203.762 148.505 203.413 148.155 203.413 147.715C203.413 147.276 203.762 146.926 204.202 146.926H221.237C221.677 146.926 222.027 147.276 222.027 147.715C222.027 148.155 221.677 148.505 221.237 148.505Z" fill="#222222"/>
        <path d="M227.498 154.584H202.961C202.521 154.584 202.172 154.235 202.172 153.795C202.172 153.355 202.521 153.005 202.961 153.005H227.498C227.938 153.005 228.288 153.355 228.288 153.795C228.288 154.235 227.938 154.584 227.498 154.584Z" fill="#222222"/>
        <path d="M218.123 160.419H199.554C199.114 160.419 198.765 160.07 198.765 159.63C198.765 159.19 199.114 158.84 199.554 158.84H218.123C218.563 158.84 218.913 159.19 218.913 159.63C218.913 160.07 218.563 160.419 218.123 160.419Z" fill="#222222"/>
        <path d="M66.9868 145.37C55.5137 145.37 46.2066 154.079 46.2066 164.819C46.2066 167.684 46.8722 170.403 48.0567 172.851L85.996 172.637C87.1241 170.245 87.7559 167.594 87.7559 164.807C87.7559 154.068 78.4487 145.358 66.9756 145.358" fill="#222222"/>
        <path d="M48.0567 173.652C47.7521 173.652 47.4814 173.482 47.346 173.212C46.0599 170.572 45.4169 167.751 45.4169 164.83C45.4169 153.672 55.0963 144.591 66.9869 144.591C78.8774 144.591 88.5569 153.672 88.5569 164.83C88.5569 167.661 87.9364 170.403 86.7293 172.997C86.6052 173.268 86.3232 173.449 86.0186 173.449L48.068 173.663L48.0567 173.652ZM66.9869 146.159C55.965 146.159 46.9963 154.53 46.9963 164.818C46.9963 167.334 47.5265 169.771 48.5644 172.061L85.4996 171.858C86.4811 169.613 86.9775 167.255 86.9775 164.818C86.9775 154.53 78.0088 146.159 66.9869 146.159Z" fill="#222222"/>
        <path d="M156.956 144.173C145.11 144.173 135.51 153.164 135.51 164.254C135.51 167.142 136.164 169.883 137.337 172.365L153.368 172.275C153.368 172.275 161.773 172.309 163.961 172.275C169.298 172.252 173.641 171.812 177.183 170.966C177.984 168.868 178.413 166.612 178.413 164.254C178.413 153.164 168.812 144.173 156.967 144.173" fill="#222222"/>
        <path d="M137.326 173.155C137.022 173.155 136.74 172.975 136.616 172.704C135.352 170.03 134.72 167.199 134.72 164.254C134.72 152.747 144.693 143.384 156.956 143.384C169.219 143.384 179.191 152.747 179.191 164.254C179.191 166.646 178.763 169.004 177.905 171.249C177.815 171.497 177.601 171.677 177.353 171.734C173.709 172.603 169.32 173.043 163.95 173.065C161.784 173.099 153.436 173.065 153.357 173.065L137.338 173.155H137.326ZM156.945 144.963C145.55 144.963 136.288 153.616 136.288 164.254C136.288 166.793 136.807 169.252 137.834 171.576L153.346 171.486C153.436 171.486 161.773 171.52 163.928 171.486C168.982 171.463 173.122 171.068 176.563 170.29C177.251 168.338 177.601 166.308 177.601 164.254C177.601 153.616 168.339 144.963 156.945 144.963Z" fill="#222222"/>
        <path d="M85.8832 164.83C85.8832 174.599 77.4222 182.519 66.9869 182.519C56.5516 182.519 48.0906 174.599 48.0906 164.83C48.0906 155.06 56.5516 147.141 66.9869 147.141C77.4222 147.141 85.8832 155.06 85.8832 164.83Z" fill="#353332"/>
        <path d="M66.9869 183.308C56.1342 183.308 47.3009 175.017 47.3009 164.829C47.3009 154.642 56.1342 146.351 66.9869 146.351C77.8396 146.351 86.6729 154.642 86.6729 164.829C86.6729 175.017 77.8396 183.308 66.9869 183.308ZM66.9869 147.919C57.0029 147.919 48.8803 155.5 48.8803 164.818C48.8803 174.137 57.0029 181.718 66.9869 181.718C76.9709 181.718 85.0935 174.137 85.0935 164.818C85.0935 155.5 76.9709 147.919 66.9869 147.919Z" fill="#222222"/>
        <path d="M75.9443 164.831C75.9443 169.456 71.9281 173.224 66.9869 173.224C62.0456 173.224 58.0294 169.467 58.0294 164.831C58.0294 160.194 62.0456 156.438 66.9869 156.438C71.9281 156.438 75.9443 160.194 75.9443 164.831Z" fill="#A19F9B"/>
        <path d="M66.9869 174.002C61.6057 174.002 57.2398 169.884 57.2398 164.819C57.2398 159.753 61.6169 155.636 66.9869 155.636C72.3568 155.636 76.734 159.753 76.734 164.819C76.734 169.884 72.3568 174.002 66.9869 174.002ZM66.9869 157.215C62.4856 157.215 58.8192 160.622 58.8192 164.819C58.8192 169.015 62.4856 172.422 66.9869 172.422C71.4881 172.422 75.1546 169.015 75.1546 164.819C75.1546 160.622 71.4881 157.215 66.9869 157.215Z" fill="#D6D5D2"/>
        <path d="M176.461 164.253C176.461 174.338 167.73 182.517 156.956 182.517C146.182 182.517 137.45 174.338 137.45 164.253C137.45 154.167 146.182 145.988 156.956 145.988C167.73 145.988 176.461 154.167 176.461 164.253Z" fill="#353332"/>
        <path d="M156.956 183.308C145.765 183.308 136.661 174.756 136.661 164.253C136.661 153.75 145.765 145.199 156.956 145.199C168.147 145.199 177.251 153.75 177.251 164.253C177.251 174.756 168.147 183.308 156.956 183.308ZM156.956 146.779C146.633 146.779 138.24 154.619 138.24 164.253C138.24 173.888 146.633 181.728 156.956 181.728C167.278 181.728 175.672 173.888 175.672 164.253C175.672 154.619 167.278 146.779 156.956 146.779Z" fill="#222222"/>
        <path d="M166.207 164.253C166.207 169.036 162.066 172.917 156.956 172.917C151.845 172.917 147.705 169.036 147.705 164.253C147.705 159.47 151.845 155.589 156.956 155.589C162.066 155.589 166.207 159.47 166.207 164.253Z" fill="#A19F9B"/>
        <path d="M156.956 173.709C151.417 173.709 146.915 169.468 146.915 164.256C146.915 159.044 151.417 154.802 156.956 154.802C162.495 154.802 166.996 159.044 166.996 164.256C166.996 169.468 162.495 173.709 156.956 173.709ZM156.956 156.392C152.297 156.392 148.495 159.924 148.495 164.267C148.495 168.61 152.285 172.141 156.956 172.141C161.626 172.141 165.417 168.61 165.417 164.267C165.417 159.924 161.626 156.392 156.956 156.392Z" fill="#D6D5D2"/>
        <path d="M142.843 110.554C141.004 110.735 139.143 111.039 137.36 111.773C135.183 112.675 133.728 114.006 133.389 116.353C133.085 118.496 133.558 121.046 135.363 122.49C137.044 123.833 139.65 123.697 141.658 123.46C144.174 123.122 146.622 122.524 148.969 121.588C151.18 120.685 152.522 119.106 153.019 116.793C153.854 112.969 152.082 108.885 148.427 107.271" fill="white"/>
        <path d="M139.436 124.396C137.8 124.396 136.142 124.114 134.878 123.099C132.735 121.395 132.306 118.439 132.611 116.24C132.96 113.814 134.37 112.167 137.055 111.05C139.041 110.227 141.049 109.945 142.764 109.775C143.181 109.719 143.587 110.046 143.633 110.486C143.678 110.915 143.362 111.31 142.922 111.355C141.331 111.513 139.458 111.772 137.665 112.517C135.487 113.419 134.438 114.604 134.167 116.476C133.919 118.236 134.235 120.583 135.86 121.88C137.281 123.02 139.661 122.907 141.579 122.681C144.106 122.343 146.498 121.734 148.687 120.854C150.65 120.053 151.823 118.665 152.263 116.623C153.052 113.024 151.315 109.403 148.122 107.993C147.728 107.812 147.547 107.35 147.716 106.955C147.897 106.56 148.359 106.38 148.754 106.549C152.624 108.252 154.745 112.629 153.797 116.962C153.244 119.511 151.721 121.316 149.273 122.32C146.961 123.245 144.445 123.888 141.771 124.249C141.038 124.34 140.237 124.407 139.436 124.407V124.396Z" fill="#222222"/>
        <path d="M116.196 57.5212C114.425 49.3986 107.78 45.4388 101.44 45.3824C95.4047 45.326 89.7753 49.2068 89.2338 55.6259C89.042 57.9048 88.2072 66.2981 98.9245 70.2691" fill="white"/>
        <path d="M98.9245 71.0572C98.8342 71.0572 98.744 71.0459 98.6537 71.012C91.2419 68.2594 87.8123 63.0925 88.4554 55.6355C89.0646 48.2913 95.4273 44.5121 101.463 44.5911C107.814 44.6475 115.079 48.6298 116.986 57.3503C117.076 57.779 116.805 58.1964 116.377 58.2866C115.948 58.3882 115.531 58.1061 115.44 57.6887C113.726 49.8031 107.171 46.2269 101.452 46.1704C96.2282 46.1028 90.565 49.3856 90.046 55.6919C89.8317 58.2528 89.1887 65.8 99.2178 69.5342C99.6239 69.6808 99.8383 70.1434 99.6803 70.5495C99.5675 70.8654 99.2629 71.0684 98.9358 71.0684L98.9245 71.0572Z" fill="#222222"/>
        <path d="M128.064 48.3383C131.065 48.3721 134.844 48.5639 138.184 49.1844C145.697 50.5156 152.319 53.5841 157.666 59.1007C166.895 68.6222 168.756 84.0664 162.563 95.7539C159.911 100.797 155.41 104.395 150.311 106.686C147.254 108.118 139.052 110.736 127.737 110.442H127.511C116.162 110.149 107.995 107.114 105.005 105.524C100.041 102.974 95.7205 99.1496 93.3288 93.9827C87.7445 82.0019 90.3844 66.6705 100.086 57.6341C105.716 52.3996 112.473 49.6808 120.054 48.7331C123.416 48.2819 127.207 48.2819 130.208 48.3947" fill="white"/>
        <path d="M129.497 111.255C128.91 111.255 128.324 111.255 127.726 111.232H127.511C113.793 110.883 105.547 106.697 104.644 106.224C99.0598 103.358 94.897 99.2404 92.6294 94.3104C86.8308 81.867 89.7414 66.1972 99.5675 57.048C105.05 51.9488 111.729 48.9706 119.975 47.9327C123.1 47.5153 126.552 47.4927 129.192 47.5604C131.821 47.6281 135.25 47.8311 138.342 48.4065C146.521 49.8618 153.041 53.1785 158.253 58.5484C167.594 68.1827 169.715 83.9879 163.273 96.1154C160.758 100.921 156.392 104.825 150.65 107.397C149.781 107.803 142.031 111.244 129.497 111.244V111.255ZM126.947 49.1172C124.804 49.1172 122.401 49.2075 120.167 49.5121C112.248 50.5048 105.862 53.3477 100.628 58.21C91.2869 66.9079 88.523 81.8106 94.0509 93.6448C96.1718 98.2476 100.086 102.117 105.366 104.825C108.502 106.494 116.693 109.371 127.534 109.653H127.748C140.948 109.992 149.093 106.381 149.984 105.975C155.41 103.539 159.505 99.8721 161.863 95.3934C167.989 83.8413 165.981 68.8258 157.102 59.6653C152.127 54.5436 145.889 51.3735 138.048 49.9746C135.476 49.4895 132.644 49.2752 130.275 49.1849C130.242 49.1849 130.219 49.1849 130.185 49.1849C129.858 49.1736 129.508 49.1623 129.147 49.1511C128.764 49.1511 128.403 49.1398 128.064 49.1285C128.03 49.1285 128.008 49.1285 127.974 49.1285C127.647 49.1285 127.297 49.1285 126.959 49.1285L126.947 49.1172Z" fill="#222222"/>
        <path d="M128.2 93.7464C129.429 93.2162 130.715 92.1219 131.031 89.8882V89.7754C131.076 89.5723 131.11 89.4031 131.144 89.2339C131.268 88.557 131.415 87.8463 131.494 87.1468C132.723 86.1089 133.513 84.6875 133.592 83.0968C133.773 79.656 130.602 76.7003 126.519 76.4859C122.435 76.2716 118.971 78.8888 118.791 82.3297C118.689 84.1911 119.581 85.9171 121.058 87.1355C121.07 87.7447 121.115 88.3539 121.205 88.9405C121.352 89.9784 121.645 91.3209 122.243 92.2798C122.435 92.5619 124.364 95.1791 128.2 93.7464Z" fill="#F1D4DA"/>
        <path d="M129.441 84.4052C129.531 89.2562 128.685 90.4408 128.064 91.0612C127.286 91.8509 125.673 91.9863 124.702 91.5576C123.529 91.0387 122.627 89.7752 122.683 84.236C122.683 84.236 125.391 84.1909 125.808 82.792C125.808 82.792 126.146 84.2247 127.793 84.315" fill="#E94E64"/>
        <path d="M128.91 85.0926C128.719 85.0926 128.516 85.0813 128.312 85.0475C127.478 84.9347 126.564 84.5398 125.921 83.784C125.582 84.145 125.154 84.4496 124.623 84.6752C123.27 85.2393 121.352 85.1152 120.337 83.4906C120.111 83.1184 120.224 82.6333 120.585 82.4076C120.957 82.182 121.442 82.2948 121.668 82.6558C122.198 83.5019 123.225 83.5471 124.003 83.2199C124.499 83.0055 125.018 82.5881 125.109 81.9902C125.075 81.7759 125.063 81.5502 125.063 81.3133C125.063 80.9185 125.368 80.5801 125.763 80.5236C126.158 80.4785 126.53 80.738 126.62 81.1216C126.688 81.381 126.71 81.6405 126.699 81.9C126.981 83.1635 128.132 83.423 128.516 83.4794C129.339 83.5922 130.298 83.2989 130.49 82.622C130.603 82.2046 131.043 81.9677 131.46 82.0692C131.877 82.182 132.126 82.622 132.013 83.0394C131.663 84.2803 130.411 85.0813 128.899 85.0813L128.91 85.0926Z" fill="#222222"/>
        <path d="M128.527 78.5621C127.816 77.8401 126.338 77.795 126.045 77.7837C125.752 77.7724 124.274 77.7499 123.529 78.4268C123.247 78.6862 123.1 79.0134 123.089 79.397C123.044 80.9538 123.98 81.9578 125.65 82.1496C125.65 82.1496 125.819 82.1609 125.988 82.1722C126.079 82.1722 126.158 82.1722 126.237 82.1722C127.906 82.0706 128.888 81.1117 128.933 79.5549C128.933 79.1713 128.809 78.8329 128.549 78.5621" fill="#222222"/>
        <path d="M118.87 77.7267C118.836 79.103 117.652 80.186 116.219 80.1522C114.786 80.1183 113.658 78.9676 113.692 77.5913C113.726 76.215 114.91 75.132 116.343 75.1658C117.776 75.1997 118.904 76.3504 118.87 77.7267Z" fill="#222222"/>
        <path d="M140 78.2658C139.966 79.6421 138.781 80.7251 137.349 80.6912C135.916 80.6574 134.788 79.5067 134.822 78.1304C134.856 76.754 136.04 75.671 137.473 75.7049C138.906 75.7387 140.034 76.8894 140 78.2658Z" fill="#222222"/>
        <path d="M145.945 54.5421C149.059 49.8603 154.26 47.7507 159.156 47.9538C165.18 48.2133 170.618 52.3648 170.821 58.8065C170.9 61.0289 171.272 69.0725 161.243 72.66" fill="white"/>
        <path d="M161.243 73.4507C160.916 73.4507 160.611 73.2476 160.498 72.9317C160.352 72.5256 160.566 72.0743 160.972 71.9277C170.358 68.5771 170.11 61.3119 170.031 58.9203C169.828 52.5124 164.39 48.9701 159.122 48.7557C154.023 48.5414 149.341 50.8766 146.6 54.9943C146.363 55.3553 145.866 55.4569 145.505 55.22C145.144 54.9831 145.043 54.4867 145.291 54.1257C148.337 49.5454 153.538 46.9282 159.19 47.1764C165.191 47.4245 171.385 51.4971 171.61 58.7962C171.859 66.0388 168.452 70.9349 161.514 73.4168C161.423 73.4507 161.333 73.4619 161.243 73.4619V73.4507Z" fill="#222222"/>
        <path d="M129.723 55.0631C143.125 55.4016 145.347 52.0397 145.347 52.0397C144.783 39.2015 133.186 37.9832 130.185 37.8816H129.903C127.06 37.8139 115.17 38.3103 113.951 51.2388C113.951 51.2388 116.005 54.7134 129.407 55.0519H129.723V55.0631Z" fill="#009BCF"/>
        <path d="M131.595 55.8742C130.986 55.8742 130.354 55.8742 129.7 55.8516H129.384C115.937 55.5019 113.5 52.0385 113.274 51.6437C113.184 51.497 113.15 51.3278 113.173 51.1698C114.481 37.4291 127.365 37.0343 129.937 37.0907H130.219C132.78 37.1809 145.55 38.3204 146.148 52.0159C146.148 52.1852 146.114 52.3431 146.013 52.4898C145.776 52.8508 143.407 55.8855 131.607 55.8855L131.595 55.8742ZM114.775 50.9893C115.418 51.6211 118.565 53.9902 129.429 54.2609H129.745C140.553 54.543 143.836 52.3657 144.546 51.7452C143.847 40.0577 133.378 38.7829 130.163 38.6701H129.892C126.654 38.5798 116.083 39.268 114.775 50.9893Z" fill="#222222"/>
        <path d="M126.823 52.107C126.823 52.107 130.636 48.3052 132.363 45.0674C132.363 45.0674 129.226 44.7966 127.669 44.8305C127.669 44.8305 128.888 41.1753 129.08 40.7354C129.08 40.7354 126.304 43.5219 123.45 47.2673C123.45 47.2673 126.214 47.4026 128.369 47.335L126.812 52.1183L126.823 52.107Z" fill="#F5DD33"/>
        <path d="M126.823 52.8953C126.677 52.8953 126.541 52.8614 126.406 52.7825C126.09 52.5907 125.954 52.2071 126.067 51.8687L127.274 48.1458C125.413 48.1458 123.506 48.0669 123.405 48.0556C123.112 48.0443 122.852 47.8638 122.728 47.6043C122.604 47.3336 122.638 47.029 122.818 46.7921C125.661 43.0467 128.403 40.3053 128.515 40.1812C128.786 39.9104 129.204 39.8766 129.519 40.0909C129.835 40.3053 129.948 40.7114 129.79 41.0611C129.689 41.2868 129.181 42.7533 128.752 44.0507C130.343 44.1071 132.317 44.2763 132.419 44.2763C132.678 44.2989 132.915 44.4568 133.039 44.6824C133.163 44.9194 133.163 45.2014 133.039 45.427C131.268 48.7325 127.523 52.5004 127.353 52.6584C127.207 52.805 127.004 52.884 126.801 52.884L126.823 52.8953ZM128.38 46.5326C128.628 46.5326 128.865 46.6454 129.012 46.8485C129.17 47.0515 129.215 47.3223 129.136 47.5705L128.718 48.8566C129.508 47.9202 130.354 46.8259 131.054 45.7542C130.016 45.6865 128.583 45.585 127.703 45.6188C127.455 45.6188 127.207 45.506 127.049 45.2916C126.902 45.0886 126.857 44.8178 126.936 44.5696L127.105 44.0507C126.473 44.7727 125.774 45.6075 125.041 46.5213C126 46.5552 127.274 46.5664 128.357 46.5213H128.38V46.5326Z" fill="#F5DD33"/>
        <path d="M125.966 92.5715C125.391 92.5715 124.826 92.47 124.375 92.2669C122.503 91.4434 121.826 89.2661 121.882 84.212C121.882 83.7833 122.243 83.4336 122.672 83.4336C123.112 83.4336 123.461 83.7946 123.45 84.2346C123.382 90.1122 124.465 90.586 124.996 90.8229C125.763 91.1613 126.992 91.0034 127.478 90.4957C127.85 90.1234 128.719 89.2548 128.628 84.4151C128.628 83.9751 128.967 83.6141 129.407 83.6141H129.418C129.847 83.6141 130.196 83.9525 130.208 84.3925C130.298 89.2322 129.486 90.7326 128.594 91.6239C127.94 92.2782 126.914 92.5828 125.943 92.5828L125.966 92.5715Z" fill="#222222"/>
        <path d="M160.87 116.082C159.799 116.951 158.625 118.022 157.926 119.23C157.384 120.098 156.854 121.745 158.061 122.309C159.302 122.907 160.848 122.682 162.111 122.445C164.187 122.039 172.298 120.369 173.844 118.79" fill="#222222"/>
        <path d="M159.945 123.482C159.178 123.482 158.422 123.369 157.712 123.02C157.181 122.771 156.798 122.331 156.64 121.779C156.347 120.797 156.764 119.613 157.26 118.812C158.061 117.424 159.426 116.239 160.385 115.461C160.724 115.19 161.22 115.235 161.491 115.574C161.762 115.912 161.717 116.409 161.378 116.679C160.521 117.379 159.302 118.439 158.614 119.613C158.231 120.233 158.05 120.932 158.163 121.316C158.197 121.44 158.276 121.519 158.411 121.587C159.415 122.072 160.724 121.891 161.987 121.655C166.703 120.741 172.265 119.274 173.291 118.225C173.596 117.909 174.092 117.909 174.408 118.214C174.724 118.518 174.724 119.015 174.419 119.331C172.761 121.034 165.372 122.613 162.281 123.211C161.547 123.347 160.746 123.471 159.957 123.471L159.945 123.482Z" fill="#222222"/>
        <path d="M213.938 142.561H203.943C203.503 142.561 203.153 142.211 203.153 141.771C203.153 141.331 203.503 140.981 203.943 140.981H213.938C214.378 140.981 214.728 141.331 214.728 141.771C214.728 142.211 214.378 142.561 213.938 142.561Z" fill="#222222"/>
        <path fill-rule="evenodd" clip-rule="evenodd" d="M259.174 8.7959C256.985 8.7959 255.214 10.5671 255.214 12.7557C255.214 13.3874 255.361 13.974 255.62 14.5043C256.523 14.4591 257.324 15.1135 257.425 16.0273L257.459 16.3319C257.978 16.58 258.554 16.7154 259.163 16.7154C261.351 16.7154 263.123 14.9442 263.123 12.7557C263.123 10.5671 261.351 8.7959 259.163 8.7959H259.174ZM260.765 11.9885L257.978 15.0119C257.899 15.0909 257.775 15.0119 257.809 14.9104L258.655 12.6428C258.655 12.6428 258.655 12.53 258.587 12.5075L257.911 12.2818C257.843 12.2593 257.82 12.169 257.865 12.1126L259.727 10.1835C259.806 10.1045 259.93 10.1835 259.896 10.285L259.501 11.447C259.479 11.5034 259.512 11.5711 259.58 11.5824L260.708 11.808C260.787 11.8193 260.81 11.9208 260.765 11.9772V11.9885Z" fill="#FCDD61"/>
        <path d="M218.922 23.0219C218.922 23.0219 218.967 23.0332 218.99 23.0332C219.012 23.0332 219.035 23.0219 219.057 23.0219C219.193 23.0332 219.317 23.067 219.43 23.1009C219.554 23.1347 219.667 23.1911 219.779 23.2927C219.892 23.4055 219.949 23.5408 219.949 23.7101C219.949 23.8003 219.937 23.8906 219.903 23.9921C219.881 24.0824 219.847 24.1613 219.791 24.2177C219.723 24.2854 219.644 24.3305 219.554 24.3644C219.463 24.3982 219.362 24.4208 219.283 24.4321C219.193 24.4321 219.114 24.4434 219.046 24.4434H212.255C212.255 24.4434 212.176 24.4434 212.131 24.4546H212.006C211.837 24.4546 211.657 24.4546 211.465 24.4546C211.273 24.4434 211.115 24.3757 210.98 24.2629C210.811 24.1162 210.732 23.9357 210.732 23.7439C210.732 23.6198 210.766 23.4957 210.845 23.3716C210.912 23.2475 211.014 23.1573 211.127 23.1122C211.284 23.0445 211.454 23.0219 211.612 23.0219C211.77 23.0219 211.961 23.0219 212.142 23.0106H212.198C212.886 22.9993 213.608 22.9993 214.342 23.0106V21.3974H214.048L213.766 21.3748C213.563 21.3635 213.338 21.3635 213.101 21.3748C212.864 21.3748 212.638 21.3748 212.446 21.3635C212.243 21.3523 212.052 21.2959 211.871 21.2169C211.702 21.1266 211.6 20.9687 211.555 20.7543C211.51 20.54 211.488 20.3257 211.476 20.1226C211.476 19.9195 211.465 19.7165 211.454 19.5247V18.9268C211.454 18.7237 211.465 18.5094 211.465 18.2837V17.4489C211.465 17.3474 211.465 17.2346 211.454 17.0992C211.454 16.9751 211.454 16.8397 211.476 16.7156C211.499 16.5915 211.533 16.4674 211.589 16.3659C211.645 16.2644 211.724 16.1854 211.837 16.129C211.961 16.0726 212.097 16.0275 212.243 15.9936C212.39 15.9485 212.548 15.9259 212.695 15.9146C212.853 15.9034 213.011 15.8921 213.157 15.8921C213.315 15.8921 213.462 15.8808 213.597 15.8808H217.444C217.444 15.8808 217.501 15.8808 217.591 15.8921C217.681 15.8921 217.794 15.9034 217.929 15.9259C218.053 15.9372 218.189 15.971 218.313 15.9936C218.448 16.0162 218.561 16.05 218.64 16.1064C218.73 16.1628 218.809 16.2531 218.866 16.3772C218.922 16.5013 218.956 16.6254 218.99 16.7495C219.024 16.8736 219.035 16.9977 219.035 17.0992C219.035 17.1894 219.046 17.2458 219.046 17.2571V19.5585C219.046 19.739 219.046 19.9195 219.035 20.1113C219.035 20.2918 219.024 20.4723 218.99 20.6641C218.978 20.7769 218.945 20.8897 218.911 21.0025C218.866 21.1154 218.798 21.1943 218.685 21.2507C218.55 21.3184 218.369 21.3523 218.155 21.3635C217.94 21.3635 217.76 21.3635 217.613 21.3523C217.444 21.3523 217.275 21.3523 217.117 21.3748C216.948 21.3748 216.779 21.3861 216.621 21.3861H216.034L216.056 23.0219H216.643C216.812 23.0219 216.97 23.0106 217.117 23.0106H217.591C217.749 23.0106 217.929 23.0106 218.144 23.0219C218.29 23.0219 218.426 23.0219 218.561 23.0219C218.696 23.0106 218.832 23.0106 218.956 23.0219H218.922ZM216.688 19.8857C216.756 19.8744 216.835 19.8631 216.903 19.8744C216.97 19.8744 217.049 19.8744 217.128 19.8406C217.173 19.818 217.207 19.7842 217.241 19.7503C217.264 19.7052 217.275 19.6601 217.275 19.6036C217.275 19.5472 217.275 19.4908 217.275 19.4344V17.9566C217.275 17.8663 217.252 17.7873 217.218 17.7309C217.185 17.6745 217.117 17.6407 217.015 17.6068C216.914 17.5843 216.756 17.5617 216.564 17.5617H214.127C214.127 17.5617 214.003 17.5617 213.913 17.573C213.834 17.573 213.755 17.573 213.665 17.5843C213.575 17.5843 213.507 17.5956 213.439 17.6068C213.338 17.6181 213.247 17.6633 213.191 17.7422C213.123 17.8099 213.101 17.9002 213.101 18.0017L213.123 19.6036C213.135 19.6939 213.18 19.7729 213.247 19.818C213.315 19.8631 213.394 19.8857 213.484 19.897C213.575 19.9082 213.665 19.9195 213.744 19.9195C213.834 19.9195 213.924 19.9082 213.992 19.9082L216.7 19.8857H216.688ZM227.8 19.1637C227.891 19.2088 227.958 19.2652 228.015 19.3442C228.071 19.4231 228.105 19.5021 228.128 19.5924C228.173 19.7729 228.128 19.9308 228.003 20.0662C227.891 20.2128 227.755 20.3144 227.597 20.3933C227.439 20.461 227.27 20.5062 227.078 20.54C226.898 20.5738 226.717 20.5851 226.526 20.5851H224.032C223.671 20.5851 223.344 20.5851 223.028 20.5964H222.036C221.912 20.5964 221.799 20.5964 221.675 20.5738C221.551 20.5626 221.438 20.5287 221.325 20.5062C221.212 20.461 221.111 20.4159 221.009 20.3369C220.919 20.2693 220.851 20.179 220.795 20.0662C220.648 19.7842 220.58 19.5021 220.58 19.1975C220.58 18.8816 220.592 18.577 220.592 18.2612V17.4489C220.592 17.4489 220.592 17.3587 220.58 17.2571C220.58 17.1556 220.569 17.0315 220.569 16.8961C220.569 16.7607 220.592 16.6254 220.603 16.4787C220.625 16.3321 220.671 16.2192 220.738 16.1177C220.783 16.0387 220.862 15.971 220.964 15.9259C221.077 15.8808 221.178 15.847 221.291 15.8131C221.404 15.7905 221.505 15.768 221.584 15.768C221.675 15.768 221.731 15.7567 221.754 15.7567H226.65C226.65 15.7567 226.717 15.7567 226.841 15.768C226.966 15.768 227.101 15.7793 227.248 15.8131C227.394 15.8357 227.541 15.8808 227.676 15.9485C227.812 16.0162 227.902 16.1064 227.936 16.2305C227.947 16.2756 227.958 16.3433 227.958 16.411C227.958 16.4787 227.97 16.5464 227.97 16.6141C227.97 16.6818 227.97 16.7495 227.947 16.8171C227.947 16.8848 227.925 16.93 227.913 16.9638C227.879 17.0315 227.823 17.0766 227.744 17.1217C227.665 17.1556 227.586 17.1782 227.518 17.1894C227.451 17.2007 227.36 17.2233 227.248 17.2346C227.135 17.2458 226.999 17.2571 226.841 17.2571H226.469C226.153 17.2458 225.86 17.2346 225.589 17.2346C225.33 17.2346 225.059 17.2346 224.8 17.2346C224.54 17.2346 224.258 17.2346 223.976 17.2458C223.694 17.2458 223.367 17.2458 223.006 17.2571C222.938 17.2571 222.87 17.2571 222.791 17.2458C222.713 17.2458 222.634 17.2458 222.555 17.2458C222.476 17.2458 222.408 17.2684 222.352 17.291C222.295 17.3135 222.261 17.3587 222.239 17.4263C222.194 17.5617 222.182 17.6858 222.194 17.8099C222.194 17.934 222.194 18.0694 222.194 18.216C222.194 18.2724 222.194 18.3289 222.182 18.3965V18.5996C222.182 18.6673 222.205 18.7237 222.227 18.7801C222.25 18.8365 222.295 18.8816 222.352 18.9268C222.408 18.9719 222.487 18.9832 222.588 18.9832H222.859C223.141 18.9945 223.412 19.0057 223.671 19.0057C223.931 19.0057 224.213 19.0057 224.495 18.9832C224.912 18.9832 225.296 18.9719 225.646 18.9719H226.796C227.18 18.9719 227.507 19.0396 227.789 19.1637H227.8ZM221.054 23.0445C220.874 23.0445 220.693 23.0106 220.524 22.9768C220.366 22.9317 220.231 22.8301 220.129 22.6609C220.039 22.5255 219.994 22.3789 219.994 22.2322C219.994 22.0743 220.061 21.9389 220.174 21.8261C220.242 21.7584 220.321 21.7133 220.411 21.6794C220.501 21.6456 220.603 21.623 220.682 21.6117C220.772 21.6005 220.84 21.5892 220.907 21.5892H227.541C227.665 21.5892 227.8 21.5892 227.947 21.5892C228.094 21.5892 228.24 21.623 228.364 21.6681C228.489 21.7133 228.601 21.781 228.692 21.8825C228.782 21.9727 228.827 22.1081 228.827 22.2886C228.827 22.4917 228.759 22.6383 228.624 22.7399C228.489 22.8301 228.331 22.9091 228.139 22.9542C227.958 22.9993 227.767 23.0219 227.563 23.0219H226.605C226.447 23.0219 226.289 23.0332 226.142 23.0332C225.995 23.0332 225.837 23.0219 225.68 23.0219H225.228C225.228 23.2475 225.24 23.4844 225.251 23.7439C225.251 23.9921 225.251 24.2065 225.217 24.387C225.206 24.5336 225.161 24.6803 225.093 24.8156C225.036 24.9623 224.946 25.0751 224.811 25.1654C224.687 25.2443 224.551 25.2895 224.393 25.2895C224.235 25.2895 224.089 25.2669 223.965 25.1992C223.863 25.1315 223.784 25.0413 223.728 24.9285C223.683 24.8044 223.649 24.6916 223.638 24.5787C223.626 24.4885 223.615 24.3982 223.615 24.2967C223.615 24.1952 223.626 24.0936 223.626 24.0147C223.626 23.868 223.615 23.7213 223.615 23.5521V23.0332H223.322C223.096 23.0332 222.893 23.0332 222.713 23.0445C222.532 23.0445 222.363 23.0445 222.194 23.0557H221.065L221.054 23.0445ZM230.091 20.6979C229.775 20.4723 229.549 20.1564 229.414 19.739C229.335 19.536 229.278 19.3329 229.244 19.1411C229.222 18.9493 229.211 18.7575 229.211 18.5545C229.211 18.3514 229.222 18.1596 229.256 17.9791C229.301 17.7986 229.346 17.6181 229.414 17.4376C229.493 17.2684 229.572 17.1105 229.662 16.9751C229.752 16.8284 229.865 16.6931 230 16.5802C230.124 16.4449 230.26 16.3321 230.395 16.2305C230.542 16.1403 230.7 16.05 230.88 15.9936C231.038 15.9146 231.207 15.8582 231.399 15.8244C231.591 15.7793 231.794 15.768 231.997 15.768C232.144 15.7454 232.279 15.7454 232.414 15.768C232.482 15.768 232.55 15.768 232.618 15.7793C232.697 15.7793 232.764 15.8018 232.832 15.8131C232.866 15.8244 232.9 15.8357 232.922 15.8357C232.967 15.8357 233.001 15.8357 233.046 15.8582C233.091 15.8582 233.125 15.8582 233.159 15.8808C233.204 15.8808 233.227 15.9034 233.249 15.9146C233.34 15.9372 233.419 15.971 233.486 15.9936C233.565 16.0162 233.644 16.05 233.723 16.0839C233.859 16.1515 233.994 16.2192 234.129 16.2982C234.174 16.3208 234.231 16.3546 234.287 16.411C234.355 16.4561 234.411 16.5126 234.468 16.569C234.614 16.7156 234.727 16.8623 234.817 17.0089C234.863 17.0879 234.908 17.1669 234.942 17.2571C234.987 17.3474 235.009 17.4376 235.02 17.5392C235.043 17.6294 235.066 17.7197 235.077 17.8099L235.122 18.0694C235.133 18.1596 235.145 18.2499 235.156 18.3289C235.167 18.4078 235.156 18.5094 235.145 18.6109C235.145 18.656 235.145 18.7124 235.133 18.7801C235.133 18.8365 235.122 18.8929 235.122 18.938C235.111 19.0057 235.099 19.0621 235.088 19.1298C235.088 19.1975 235.066 19.2539 235.043 19.2991C234.998 19.6149 234.896 19.897 234.75 20.1564C234.659 20.2918 234.558 20.4159 234.456 20.5174C234.355 20.619 234.231 20.7205 234.095 20.8108C233.994 20.8784 233.892 20.9349 233.78 20.98C233.678 21.0251 233.565 21.0589 233.452 21.0928C233.351 21.1266 233.238 21.1492 233.125 21.1718C233.024 21.183 232.911 21.2056 232.798 21.2282C232.753 21.2394 232.719 21.2507 232.674 21.2507H232.46C232.46 21.2507 232.392 21.2507 232.347 21.2733H232.02C232.02 21.2733 231.952 21.2733 231.907 21.2507H231.749C231.749 21.2507 231.659 21.2507 231.602 21.2282C231.535 21.2282 231.478 21.2282 231.422 21.2169C231.377 21.2169 231.32 21.2056 231.264 21.2056C231.049 21.1718 230.846 21.1154 230.643 21.0138L230.327 20.8559C230.237 20.7995 230.136 20.7318 230.057 20.6528L230.091 20.6979ZM237.796 17.9002C237.807 18.0581 237.818 18.2273 237.818 18.3853V21.3635C237.818 21.5215 237.818 21.6794 237.796 21.8261V23.1911C237.784 23.3152 237.773 23.4506 237.784 23.5747C237.784 23.6988 237.796 23.8116 237.796 23.9244V24.15C237.796 24.2177 237.796 24.2854 237.773 24.3531C237.773 24.4772 237.751 24.5787 237.694 24.669C237.683 24.7141 237.66 24.748 237.649 24.7818C237.638 24.8044 237.615 24.8382 237.604 24.8721C237.57 24.8946 237.536 24.9285 237.514 24.951C237.48 24.9849 237.435 25.0074 237.367 25.03C237.299 25.0864 237.209 25.1202 237.119 25.1428C237.029 25.1541 236.927 25.1541 236.826 25.1428C236.69 25.109 236.589 25.0638 236.532 24.9849C236.465 24.9397 236.408 24.8608 236.352 24.7367C236.329 24.6803 236.307 24.6239 236.295 24.5787C236.284 24.5336 236.273 24.4772 236.273 24.4208C236.261 24.3757 236.25 24.3418 236.239 24.2967C236.239 24.2516 236.228 24.229 236.228 24.2064V24.0711L236.205 16.9864V16.6705C236.205 16.569 236.228 16.4561 236.25 16.3208C236.273 16.1064 236.34 15.9259 236.465 15.7905C236.577 15.7116 236.668 15.6552 236.724 15.6326C236.78 15.6213 236.837 15.61 236.882 15.61H237.062C237.13 15.61 237.187 15.61 237.254 15.6326C237.322 15.6439 237.378 15.6777 237.446 15.7116C237.548 15.7905 237.626 15.8921 237.672 16.0049C237.717 16.0951 237.739 16.1854 237.762 16.2644C237.784 16.3546 237.796 16.4449 237.796 16.5238V16.8059C237.796 16.8961 237.796 16.9977 237.818 17.0766V17.855L237.796 17.9002ZM235.167 22.6271C235.269 22.6609 235.359 22.706 235.438 22.7624C235.517 22.8414 235.573 22.9204 235.618 22.9993C235.664 23.0783 235.686 23.1686 235.686 23.2588C235.686 23.3942 235.641 23.5183 235.551 23.6198C235.472 23.7214 235.381 23.789 235.291 23.8229C235.246 23.8342 235.212 23.8454 235.167 23.8567C235.122 23.8567 235.088 23.868 235.043 23.868C234.998 23.8793 234.953 23.8906 234.908 23.8906H233.238C233.103 23.8906 232.956 23.8906 232.809 23.9131H231.975C231.828 23.9019 231.704 23.8906 231.591 23.8906H230C229.921 23.8906 229.842 23.8906 229.775 23.8793C229.707 23.8793 229.628 23.8567 229.549 23.8454C229.504 23.8342 229.47 23.8229 229.425 23.8116C229.391 23.8003 229.357 23.7778 229.312 23.7665C229.244 23.7439 229.177 23.7101 229.109 23.6537C229.064 23.5973 229.019 23.5408 228.985 23.4732C228.962 23.4055 228.951 23.3152 228.951 23.2137C228.951 23.067 229.008 22.9317 229.109 22.8076C229.154 22.7399 229.233 22.6835 229.335 22.6609C229.38 22.6496 229.425 22.6383 229.481 22.6271C229.526 22.6158 229.572 22.5932 229.617 22.5819C229.673 22.5707 229.718 22.5594 229.752 22.5594H234.592C234.659 22.5594 234.727 22.5594 234.795 22.5819C234.863 22.5819 234.919 22.5819 234.975 22.5932C235.032 22.5932 235.088 22.6158 235.156 22.6271H235.167ZM230.79 18.3401C230.767 18.4868 230.767 18.656 230.79 18.814C230.835 19.0057 230.88 19.1637 230.948 19.2765C231.106 19.5247 231.343 19.7052 231.647 19.8293C231.76 19.8744 231.873 19.897 231.986 19.9082C232.11 19.9195 232.223 19.9308 232.336 19.9308C232.403 19.9195 232.46 19.9082 232.516 19.9082C232.572 19.9082 232.629 19.9082 232.697 19.8857C232.753 19.8857 232.809 19.8744 232.854 19.8518L233.024 19.7842C233.17 19.7165 233.306 19.5924 233.407 19.4231C233.464 19.3329 233.498 19.2539 233.531 19.175C233.554 19.096 233.576 19.017 233.599 18.9268C233.633 18.7914 233.644 18.6673 233.622 18.5432C233.622 18.4191 233.588 18.295 233.554 18.1596C233.543 18.1032 233.509 18.0468 233.486 18.0017C233.464 17.9453 233.441 17.9002 233.419 17.855C233.396 17.8325 233.373 17.8099 233.362 17.7873C233.351 17.7535 233.317 17.7309 233.294 17.7197C233.272 17.6633 233.227 17.6068 233.148 17.5617C233.08 17.5166 233.024 17.494 232.956 17.4715C232.922 17.4489 232.888 17.4263 232.843 17.4151C232.809 17.4038 232.775 17.3812 232.73 17.3699C232.527 17.3248 232.313 17.3022 232.099 17.3022C231.997 17.3022 231.896 17.3022 231.805 17.3248C231.715 17.3361 231.614 17.3699 231.535 17.4038C231.444 17.4489 231.365 17.494 231.286 17.5504C231.207 17.5956 231.14 17.6633 231.072 17.7535C231.004 17.8325 230.959 17.9227 230.914 18.0243C230.88 18.1145 230.846 18.2273 230.824 18.3514L230.79 18.3401ZM239.093 23.6649C239.093 23.3716 239.172 23.1234 239.33 22.9317C239.499 22.7286 239.725 22.5819 239.996 22.4691C240.278 22.3563 240.616 22.2773 241.011 22.2322C241.406 22.1758 241.823 22.142 242.274 22.1194C242.274 22.0179 242.274 21.9163 242.286 21.8374C242.286 21.7471 242.297 21.6343 242.297 21.5102H241.575C241.293 21.5102 240.988 21.4989 240.684 21.4989C240.368 21.4989 240.075 21.4876 239.793 21.4764C239.51 21.4651 239.274 21.4538 239.116 21.4425C238.992 21.4312 238.89 21.4087 238.8 21.3974C238.732 21.3748 238.642 21.3184 238.54 21.2169C238.439 21.1266 238.382 20.98 238.382 20.7995C238.382 20.6303 238.439 20.4949 238.54 20.3933C238.597 20.3257 238.676 20.2805 238.766 20.2467C238.856 20.2128 238.958 20.1903 239.037 20.179C239.127 20.1677 239.195 20.1564 239.262 20.1564H246.573C246.697 20.1564 246.81 20.1564 246.922 20.1677C247.035 20.1677 247.137 20.1903 247.25 20.2128C247.362 20.2354 247.464 20.2918 247.543 20.3708C247.633 20.4385 247.678 20.5062 247.689 20.5851C247.701 20.6641 247.712 20.7543 247.712 20.8446C247.712 21.0928 247.588 21.262 247.328 21.341C247.171 21.4087 246.99 21.4425 246.798 21.4651C246.618 21.4651 246.437 21.4764 246.268 21.4876C245.873 21.4989 245.478 21.5102 245.106 21.5215C244.734 21.5215 244.339 21.5328 243.933 21.5328C243.933 21.6456 243.921 21.7471 243.91 21.8261C243.91 21.905 243.91 22.0066 243.899 22.1081C244.328 22.1081 244.722 22.142 245.095 22.1871C245.456 22.2322 245.772 22.2999 246.042 22.4127C246.313 22.5142 246.527 22.6722 246.674 22.864C246.821 23.067 246.9 23.3265 246.9 23.6424C246.9 24.0147 246.798 24.308 246.584 24.511C246.381 24.7141 246.099 24.8721 245.738 24.9623C245.388 25.0638 244.971 25.1315 244.497 25.1541C244.023 25.1766 243.527 25.1879 242.985 25.1879C242.444 25.1879 241.936 25.1766 241.451 25.1541C240.977 25.1315 240.571 25.0638 240.221 24.9623C239.871 24.8721 239.589 24.7141 239.386 24.511C239.183 24.308 239.071 24.0147 239.071 23.6424L239.093 23.6649ZM245.862 18.0468C246.009 18.1145 246.155 18.1935 246.302 18.2837C246.449 18.374 246.584 18.4755 246.708 18.577C246.776 18.6335 246.821 18.7011 246.843 18.7914C246.866 18.8816 246.866 18.9719 246.843 19.0509C246.832 19.1298 246.787 19.2088 246.719 19.2765C246.663 19.3442 246.584 19.378 246.494 19.4006C246.234 19.457 245.975 19.457 245.693 19.4006C245.422 19.3329 245.174 19.2539 244.937 19.1524C244.722 19.0621 244.519 18.9606 244.339 18.8816C244.158 18.7914 243.978 18.7011 243.786 18.5996C243.73 18.5658 243.651 18.5319 243.56 18.4755L243.301 18.3289C243.199 18.2724 243.087 18.216 242.963 18.1596C242.827 18.2273 242.692 18.2837 242.568 18.3401L242.229 18.4868C242.128 18.5319 242.038 18.577 241.981 18.6109C241.778 18.7237 241.586 18.814 241.406 18.8929C241.225 18.9606 241.045 19.0509 240.83 19.1411C240.672 19.2088 240.503 19.2765 240.345 19.3667C240.187 19.4457 240.018 19.4796 239.826 19.457C239.68 19.457 239.544 19.4119 239.409 19.3442C239.274 19.2765 239.195 19.1637 239.161 19.0057C239.161 18.9268 239.161 18.8365 239.183 18.735C239.217 18.6222 239.262 18.5319 239.341 18.4529C239.42 18.374 239.522 18.3063 239.623 18.2386L240.447 17.8325C240.582 17.7648 240.706 17.6971 240.808 17.652C240.909 17.6068 241.033 17.5504 241.18 17.4828C241.248 17.4376 241.316 17.4038 241.394 17.3587C241.473 17.3135 241.552 17.2797 241.643 17.2346H240.887C240.763 17.2346 240.65 17.2346 240.548 17.2458C240.458 17.2458 240.357 17.2458 240.232 17.2233C240.142 17.212 240.052 17.2007 239.95 17.2007C239.849 17.2007 239.747 17.1782 239.668 17.1443C239.578 17.0992 239.51 17.0202 239.454 16.9187C239.409 16.8397 239.375 16.7495 239.375 16.6592C239.375 16.5577 239.375 16.4561 239.42 16.3772C239.488 16.2531 239.589 16.1515 239.736 16.0951C239.883 16.0275 240.029 16.0049 240.176 16.0049H240.447C240.571 16.0049 240.661 16.0162 240.718 16.0162C240.785 16.0162 240.876 16.0049 241 16.0049H242.06V15.6439C242.06 15.407 242.162 15.2378 242.376 15.1588C242.579 15.0685 242.805 15.0347 243.042 15.0685C243.256 15.0911 243.425 15.1362 243.527 15.2152C243.651 15.2829 243.707 15.3957 243.718 15.5536C243.718 15.61 243.73 15.6777 243.73 15.768C243.73 15.847 243.741 15.9259 243.741 16.0162H245.129C245.253 16.0162 245.399 16.0162 245.569 16.0049C245.738 16.0049 245.896 16.0049 246.042 16.0387C246.2 16.0613 246.336 16.1177 246.46 16.1967C246.584 16.2756 246.674 16.3997 246.708 16.569C246.753 16.7607 246.719 16.9074 246.595 17.0089C246.482 17.1105 246.336 17.1894 246.155 17.2346C245.975 17.2797 245.794 17.3022 245.591 17.3022C245.388 17.3022 245.23 17.3022 245.106 17.291C244.982 17.291 244.847 17.2797 244.7 17.2797H244.305L244.373 17.3248C244.373 17.3248 244.429 17.3474 244.452 17.3587C244.531 17.4038 244.61 17.4376 244.677 17.4828C244.756 17.5166 244.835 17.5504 244.914 17.5956C245.061 17.6633 245.208 17.7422 245.354 17.8212L245.805 18.0581L245.862 18.0468ZM245.332 23.6649C245.332 23.5408 245.264 23.4506 245.117 23.3942C244.982 23.3378 244.801 23.3039 244.565 23.2814C244.339 23.2701 244.091 23.2588 243.809 23.2701C243.527 23.2701 243.256 23.2814 242.985 23.2814C242.714 23.2814 242.444 23.2814 242.173 23.2701C241.902 23.2701 241.654 23.2701 241.44 23.2814C241.225 23.2927 241.045 23.3378 240.909 23.3942C240.785 23.4506 240.718 23.5408 240.718 23.6649C240.718 23.7778 240.785 23.8567 240.909 23.9131C241.045 23.9695 241.225 24.0034 241.44 24.0372C241.654 24.0485 241.902 24.0598 242.173 24.0598C242.444 24.0598 242.714 24.0485 242.985 24.0485C243.256 24.0485 243.527 24.0485 243.809 24.0711C244.091 24.0824 244.339 24.0936 244.565 24.0824C244.79 24.0711 244.982 24.0259 245.117 23.9695C245.264 23.9131 245.332 23.8116 245.332 23.6537V23.6649ZM251.57 17.0541V18.0581C251.57 18.1822 251.57 18.2612 251.57 18.2724C251.615 18.3176 251.683 18.3853 251.785 18.4755C251.886 18.5658 251.976 18.6335 252.044 18.7011C252.123 18.7688 252.202 18.8365 252.281 18.9155C252.371 18.9832 252.462 19.0621 252.54 19.1524C252.597 19.2088 252.653 19.2652 252.698 19.3216L252.834 19.457C252.98 19.6036 253.138 19.7729 253.285 19.9421C253.432 20.1226 253.545 20.2918 253.601 20.4836C253.623 20.5513 253.623 20.6303 253.612 20.7205C253.601 20.8108 253.545 20.8784 253.454 20.9461C253.319 21.0251 253.172 21.0702 253.026 21.0702C252.845 21.0702 252.687 21.0364 252.529 20.9574C252.371 20.8897 252.247 20.8108 252.146 20.7431C251.999 20.6303 251.852 20.5174 251.728 20.3933L251.345 20.0098L251.051 19.7165C250.939 19.5924 250.826 19.4908 250.713 19.4006L250.386 19.7277L250.216 19.897C250.216 19.897 250.104 19.9985 250.059 20.0549C249.957 20.1677 249.844 20.2805 249.731 20.4046C249.619 20.5174 249.495 20.619 249.348 20.7318C249.021 20.9687 248.716 21.0928 248.423 21.0928H248.31C248.31 21.0928 248.254 21.0928 248.22 21.0702C248.039 21.0251 247.926 20.9574 247.87 20.8559C247.814 20.7656 247.791 20.6641 247.814 20.5626C247.836 20.4498 247.87 20.3482 247.926 20.2692C247.994 20.179 248.062 20.1 248.141 20.0211C248.22 19.9308 248.299 19.8406 248.378 19.7616C248.445 19.6826 248.558 19.5698 248.716 19.4231C248.874 19.2765 249.032 19.1185 249.19 18.9719C249.348 18.814 249.495 18.6673 249.63 18.5432C249.765 18.4191 249.844 18.3401 249.878 18.3063V17.0879H249.111C249.021 17.0879 248.908 17.0879 248.772 17.0992C248.648 17.0992 248.513 17.0992 248.389 17.0766C248.265 17.0653 248.163 17.0315 248.05 16.9864C247.949 16.93 247.87 16.8397 247.825 16.7269C247.78 16.6366 247.757 16.5351 247.746 16.4336C247.746 16.3208 247.746 16.2192 247.768 16.1177C247.802 16.0049 247.87 15.9259 247.983 15.8921C248.096 15.847 248.197 15.8131 248.31 15.8018H249.269C249.393 15.8018 249.461 15.8018 249.483 15.7905H252.281C252.597 15.7905 252.868 15.8131 253.082 15.847C253.308 15.8921 253.488 15.9823 253.623 16.1403C253.669 16.1854 253.691 16.2531 253.691 16.3321C253.702 16.411 253.702 16.49 253.691 16.5802C253.691 16.6592 253.657 16.7382 253.623 16.8059C253.59 16.8736 253.545 16.93 253.477 16.9638C253.409 16.9864 253.341 17.0202 253.251 17.0428C253.161 17.0653 253.093 17.0879 253.026 17.0879C252.913 17.0879 252.8 17.0992 252.676 17.0992C252.563 17.0992 252.45 17.0879 252.337 17.0879H251.548L251.57 17.0541ZM256.026 23.8116L256.094 23.8342C256.094 23.8342 256.207 23.8793 256.275 23.9131C256.342 23.947 256.399 23.9921 256.455 24.0598C256.512 24.1162 256.545 24.1839 256.568 24.2629C256.613 24.5675 256.557 24.8044 256.41 24.9623C256.32 25.0751 256.207 25.1428 256.094 25.1654C255.981 25.1879 255.925 25.1992 255.914 25.1992H249.934C249.607 25.1992 249.348 25.1428 249.167 25.0413C248.987 24.951 248.897 24.8044 248.897 24.6239V22.9655C248.897 22.9655 248.897 22.8527 248.885 22.785V22.3225C248.885 22.2548 248.897 22.1871 248.897 22.142C248.908 21.9727 248.987 21.8374 249.133 21.7358C249.28 21.6343 249.438 21.5779 249.619 21.5779C249.664 21.5779 249.709 21.5779 249.765 21.5892C249.833 21.5892 249.878 21.5892 249.923 21.6117C250.025 21.6456 250.115 21.702 250.171 21.781C250.239 21.8486 250.284 21.9389 250.318 22.0291C250.352 22.1194 250.374 22.2322 250.374 22.345C250.374 22.4466 250.386 22.5481 250.397 22.6271V23.7778C250.397 23.7778 250.487 23.8003 250.589 23.8116C250.702 23.8116 250.905 23.8229 251.198 23.8229C251.457 23.8229 251.683 23.8229 251.875 23.8116C252.078 23.8116 252.179 23.8003 252.191 23.8003H256.026V23.8116ZM254.413 19.1862C254.188 19.175 253.973 19.1637 253.793 19.1524C253.612 19.1411 253.466 19.0509 253.364 18.8929C253.319 18.814 253.296 18.7124 253.296 18.5996C253.296 18.4868 253.296 18.374 253.319 18.2837C253.341 18.1935 253.387 18.1258 253.454 18.0694C253.522 18.0017 253.635 17.9566 253.793 17.9114C253.827 17.9114 253.894 17.9002 254.007 17.9002C254.12 17.9002 254.233 17.8889 254.368 17.8776C254.503 17.8776 254.628 17.8663 254.74 17.8663C254.853 17.8663 254.921 17.855 254.955 17.855V16.5915C254.955 16.5013 254.943 16.411 254.943 16.3321C254.943 16.2418 254.966 16.1515 254.989 16.0726C255 16.0049 255.022 15.9485 255.034 15.8921C255.045 15.8357 255.09 15.7793 255.146 15.7116C255.214 15.6326 255.293 15.5762 255.406 15.5424C255.53 15.5085 255.654 15.4972 255.789 15.5198C256.049 15.5649 256.207 15.6552 256.275 15.8131C256.32 15.9034 256.354 16.0275 256.354 16.1741C256.365 16.3095 256.376 16.3885 256.376 16.4223V21.2733H256.365C256.365 21.2733 256.365 21.3071 256.354 21.3523C256.354 21.3974 256.331 21.4651 256.308 21.5328C256.286 21.6005 256.252 21.6681 256.196 21.7358C256.151 21.8035 256.083 21.8712 256.004 21.9163C255.891 21.984 255.778 22.0066 255.665 22.0066C255.53 22.0066 255.395 21.9615 255.271 21.8712C255.18 21.8035 255.113 21.7245 255.067 21.6343C255.022 21.544 254.989 21.4538 254.977 21.3748C254.966 21.2846 254.955 21.1943 254.943 21.1154V19.1975H254.413V19.1862Z" fill="white"/>
    </g>
    <defs>
        <clipPath id="clip0_5344_85744">
            <rect width="270" height="170" rx="10" fill="white"/>
        </clipPath>
    </defs>
</svg>
