<?xml version="1.0" standalone="no"?>
<!DOCTYPE svg PUBLIC "-//W3C//DTD SVG 20010904//EN"
 "http://www.w3.org/TR/2001/REC-SVG-20010904/DTD/svg10.dtd">
<svg version="1.0" xmlns="http://www.w3.org/2000/svg"
 width="299.000000pt" height="435.000000pt" viewBox="0 0 299.000000 435.000000"
 preserveAspectRatio="xMidYMid meet">

<g transform="translate(0.000000,435.000000) scale(0.100000,-0.100000)"
fill="#000000" stroke="none">
<path d="M85 4311 c-23 -10 -46 -29 -53 -45 -9 -21 -12 -453 -12 -1965 0
-1832 1 -1940 18 -1960 17 -20 19 -20 942 -23 715 -2 930 -6 947 -15 12 -7 48
-62 79 -123 83 -157 40 -146 562 -142 l422 2 0 2118 0 2119 -26 24 -26 24
-1406 2 c-1348 3 -1409 2 -1447 -16z"/>
</g>
</svg>
