<?xml version="1.0" encoding="UTF-8"?>
<svg xmlns="http://www.w3.org/2000/svg" xmlns:xlink="http://www.w3.org/1999/xlink" width="px" height="px" viewBox="0 0 152 220" version="1.1">
<g id="surface1">
<rect x="0" y="0" width="152" height="220" style="fill:rgb(0.392157%,0.392157%,0.392157%);fill-opacity:1;stroke:none;"/>
<path style=" stroke:none;fill-rule:nonzero;fill:rgb(73.333333%,23.921569%,45.882353%);fill-opacity:1;" d="M 102 203.5 L 101.5 2.5 L 10.5 2.5 C 8.191406 2.5 5.007812 2.03125 3.160156 3.757812 C 0.71875 6.039062 2 12.914062 2 16 L 2 205 C 2 207.632812 0.816406 214.214844 2.800781 216.199219 C 4.730469 218.125 10.949219 217 13.5 217 C 21.355469 217 29.136719 217.5 37 217.5 C 40.332031 217.5 44.492188 218.179688 47.449219 216.316406 C 51.769531 213.59375 51.253906 205.707031 56.503906 204.140625 C 61.289062 202.710938 67.066406 203.5 72 203.5 Z M 102 203.5 "/>
<path style=" stroke:none;fill-rule:nonzero;fill:rgb(80.392157%,58.039216%,31.764706%);fill-opacity:1;" d="M 101.5 2.5 L 102 3 Z M 101.5 2.5 "/>
<path style=" stroke:none;fill-rule:nonzero;fill:rgb(83.529412%,74.901961%,23.921569%);fill-opacity:1;" d="M 101.5 3 L 102 27 L 102 71 L 102.5 203.5 L 124 203.5 L 124 2.5 Z M 101.5 3 "/>
<path style=" stroke:none;fill-rule:nonzero;fill:rgb(80.392157%,58.039216%,31.764706%);fill-opacity:1;" d="M 124 2.5 L 124 203.5 L 124.5 203.5 L 124.5 20.5 Z M 124 2.5 "/>
<path style=" stroke:none;fill-rule:nonzero;fill:rgb(73.333333%,23.921569%,45.882353%);fill-opacity:1;" d="M 124.5 2.5 L 124.5 203.5 L 143 203.5 C 144.875 203.5 148.242188 204.089844 149.484375 202.28125 C 151.253906 199.714844 150 193.050781 150 190 L 150 46.5 C 150 36.453125 149.546875 26.476562 149.5 16.5 C 149.484375 13.226562 151.089844 7.535156 149.339844 4.636719 C 147.992188 2.398438 144.757812 2.503906 142.5 2.5 Z M 124.5 2.5 "/>
<path style=" stroke:none;fill-rule:nonzero;fill:rgb(80.392157%,58.039216%,31.764706%);fill-opacity:1;" d="M 101.5 4 L 101.5 125.5 L 102 125.5 L 102 15.5 L 101.5 4 M 149.5 5 L 150 5.5 L 149.5 5 M 149.5 8.5 L 149.5 10 L 150 10 Z M 149.5 8.5 "/>
<path style=" stroke:none;fill-rule:nonzero;fill:rgb(100%,0.392157%,0.392157%);fill-opacity:1;" d="M 149.5 11 L 149.5 20.5 L 150 20.5 Z M 149.5 11 "/>
<path style=" stroke:none;fill-rule:nonzero;fill:rgb(80.392157%,58.039216%,31.764706%);fill-opacity:1;" d="M 149.5 24 L 149.5 30 L 150 30 L 149.5 24 M 101.667969 126.332031 L 101.832031 126.667969 L 101.667969 126.332031 M 102 136.5 L 102.5 137 L 102 136.5 M 102 138.5 L 102 203.5 L 102.5 203.5 L 102.5 158 C 102.5 152.421875 104.152344 143.632812 102 138.5 Z M 102 138.5 "/>
<path style=" stroke:none;fill-rule:nonzero;fill:rgb(83.529412%,74.901961%,23.921569%);fill-opacity:1;" d="M 123.332031 207.167969 L 123.667969 207.332031 Z M 123.332031 207.167969 "/>
</g>
</svg>
